<mxfile host="app.diagrams.net" modified="2024-06-10T03:05:04.114Z" agent="Mozilla/5.0 (Macintosh; Intel Mac OS X 10_15_7) AppleWebKit/537.36 (KHTML, like Gecko) Chrome/125.0.0.0 Safari/537.36" etag="Cz4TPc45l260DlwHGUPN" version="24.2.5" type="device" pages="2">
  <diagram name="HighLevel" id="TgGSeFBQKJudxHvlxUsq">
    <mxGraphModel dx="2261" dy="795" grid="1" gridSize="10" guides="1" tooltips="1" connect="1" arrows="1" fold="1" page="1" pageScale="1" pageWidth="827" pageHeight="1169" math="0" shadow="0">
      <root>
        <mxCell id="0" />
        <mxCell id="1" parent="0" />
        <mxCell id="3lFjE9dBdx0LUiIUw8xG-16" style="edgeStyle=orthogonalEdgeStyle;rounded=0;orthogonalLoop=1;jettySize=auto;html=1;exitX=0;exitY=0.5;exitDx=0;exitDy=0;" parent="1" source="oO-yoU9O_R-_ua10_7h0-1" edge="1">
          <mxGeometry relative="1" as="geometry">
            <mxPoint x="20" y="330.090909090909" as="targetPoint" />
          </mxGeometry>
        </mxCell>
        <mxCell id="oO-yoU9O_R-_ua10_7h0-1" value="Ai-Sentry&lt;div&gt;Proxy&lt;/div&gt;" style="shape=hexagon;perimeter=hexagonPerimeter2;whiteSpace=wrap;html=1;fixedSize=1;strokeWidth=2;fillColor=#00CC00;" parent="1" vertex="1">
          <mxGeometry x="70" y="280" width="120" height="100" as="geometry" />
        </mxCell>
        <mxCell id="oO-yoU9O_R-_ua10_7h0-2" value="&lt;div&gt;CosmosDB Logger&lt;/div&gt;&lt;div&gt;+ PII Stripping&lt;/div&gt;" style="shape=hexagon;perimeter=hexagonPerimeter2;whiteSpace=wrap;html=1;fixedSize=1;strokeWidth=2;fillColor=#6666FF;" parent="1" vertex="1">
          <mxGeometry x="680" y="470" width="120" height="100" as="geometry" />
        </mxCell>
        <mxCell id="oO-yoU9O_R-_ua10_7h0-6" value="" style="group" parent="1" vertex="1" connectable="0">
          <mxGeometry x="730" y="550" width="90" height="55" as="geometry" />
        </mxCell>
        <mxCell id="oO-yoU9O_R-_ua10_7h0-5" value="" style="shape=hexagon;perimeter=hexagonPerimeter2;whiteSpace=wrap;html=1;fixedSize=1;strokeWidth=2;fillColor=#FFFFFF;" parent="oO-yoU9O_R-_ua10_7h0-6" vertex="1">
          <mxGeometry width="90" height="55" as="geometry" />
        </mxCell>
        <mxCell id="oO-yoU9O_R-_ua10_7h0-4" value="" style="shape=image;verticalLabelPosition=bottom;labelBackgroundColor=default;verticalAlign=top;aspect=fixed;imageAspect=0;image=https://upload.wikimedia.org/wikipedia/commons/thumb/c/c0/Dapr_logo.svg/367px-Dapr_logo.svg.png;" parent="oO-yoU9O_R-_ua10_7h0-6" vertex="1">
          <mxGeometry x="11.5" y="2.8500000000000227" width="67" height="49.29" as="geometry" />
        </mxCell>
        <mxCell id="oO-yoU9O_R-_ua10_7h0-7" value="" style="group" parent="1" vertex="1" connectable="0">
          <mxGeometry x="120" y="360" width="90" height="55" as="geometry" />
        </mxCell>
        <mxCell id="oO-yoU9O_R-_ua10_7h0-8" value="" style="shape=hexagon;perimeter=hexagonPerimeter2;whiteSpace=wrap;html=1;fixedSize=1;strokeWidth=2;fillColor=#FFFFFF;" parent="oO-yoU9O_R-_ua10_7h0-7" vertex="1">
          <mxGeometry width="90" height="55" as="geometry" />
        </mxCell>
        <mxCell id="oO-yoU9O_R-_ua10_7h0-9" value="" style="shape=image;verticalLabelPosition=bottom;labelBackgroundColor=default;verticalAlign=top;aspect=fixed;imageAspect=0;image=https://upload.wikimedia.org/wikipedia/commons/thumb/c/c0/Dapr_logo.svg/367px-Dapr_logo.svg.png;" parent="oO-yoU9O_R-_ua10_7h0-7" vertex="1">
          <mxGeometry x="11.5" y="2.8500000000000227" width="67" height="49.29" as="geometry" />
        </mxCell>
        <mxCell id="oO-yoU9O_R-_ua10_7h0-19" value="" style="edgeStyle=entityRelationEdgeStyle;html=1;startArrow=blockThin;startFill=1;endArrow=none;rounded=0;endFill=0;" parent="1" target="oO-yoU9O_R-_ua10_7h0-20" edge="1">
          <mxGeometry width="50" relative="1" as="geometry">
            <mxPoint x="482" y="387" as="sourcePoint" />
          </mxGeometry>
        </mxCell>
        <mxCell id="AK5pfq6Lcy51ytAFB1wp-8" style="edgeStyle=orthogonalEdgeStyle;rounded=0;orthogonalLoop=1;jettySize=auto;html=1;exitX=0.75;exitY=0;exitDx=0;exitDy=0;entryX=0;entryY=0.5;entryDx=0;entryDy=0;" edge="1" parent="1" source="oO-yoU9O_R-_ua10_7h0-20" target="AK5pfq6Lcy51ytAFB1wp-3">
          <mxGeometry relative="1" as="geometry" />
        </mxCell>
        <mxCell id="oO-yoU9O_R-_ua10_7h0-20" value="Subscribe" style="html=1;rounded=1;absoluteArcSize=1;arcSize=80;whiteSpace=wrap;fontSize=11;" parent="1" vertex="1">
          <mxGeometry x="562" y="372" width="80" height="30" as="geometry" />
        </mxCell>
        <mxCell id="oO-yoU9O_R-_ua10_7h0-21" value="" style="edgeStyle=entityRelationEdgeStyle;html=1;endArrow=blockThin;endFill=1;startArrow=none;rounded=0;startFill=0;entryX=0;entryY=0.5;entryDx=0;entryDy=0;exitX=0.5;exitY=1;exitDx=0;exitDy=0;" parent="1" target="oO-yoU9O_R-_ua10_7h0-5" edge="1" source="oO-yoU9O_R-_ua10_7h0-20">
          <mxGeometry width="180" relative="1" as="geometry">
            <mxPoint x="700" y="577" as="targetPoint" />
            <mxPoint x="650" y="577" as="sourcePoint" />
            <Array as="points">
              <mxPoint x="620" y="500" />
              <mxPoint x="610" y="510" />
              <mxPoint x="570" y="570" />
            </Array>
          </mxGeometry>
        </mxCell>
        <mxCell id="oO-yoU9O_R-_ua10_7h0-22" value="" style="edgeStyle=entityRelationEdgeStyle;html=1;startArrow=blockThin;startFill=1;endArrow=none;rounded=0;endFill=0;" parent="1" target="oO-yoU9O_R-_ua10_7h0-23" edge="1">
          <mxGeometry width="50" relative="1" as="geometry">
            <mxPoint x="212" y="387" as="sourcePoint" />
          </mxGeometry>
        </mxCell>
        <mxCell id="oO-yoU9O_R-_ua10_7h0-23" value="Publish" style="html=1;rounded=1;absoluteArcSize=1;arcSize=80;whiteSpace=wrap;fontSize=11;" parent="1" vertex="1">
          <mxGeometry x="262" y="372" width="80" height="30" as="geometry" />
        </mxCell>
        <mxCell id="oO-yoU9O_R-_ua10_7h0-24" value="" style="edgeStyle=entityRelationEdgeStyle;html=1;endArrow=blockThin;endFill=1;startArrow=none;rounded=0;startFill=0;" parent="1" source="oO-yoU9O_R-_ua10_7h0-23" edge="1">
          <mxGeometry width="180" relative="1" as="geometry">
            <mxPoint x="422" y="387" as="targetPoint" />
          </mxGeometry>
        </mxCell>
        <mxCell id="oO-yoU9O_R-_ua10_7h0-26" value="Pub/Sub" style="sketch=0;html=1;verticalAlign=top;labelPosition=center;verticalLabelPosition=bottom;align=center;spacingTop=-6;fontSize=11;fontStyle=1;fontColor=#999999;shape=image;aspect=fixed;imageAspect=0;image=data:image/svg+xml,PHN2ZyB4bWxucz0iaHR0cDovL3d3dy53My5vcmcvMjAwMC9zdmciIHhtbG5zOnY9Imh0dHBzOi8vdmVjdGEuaW8vbmFubyIgd2lkdGg9IjE4LjMxOTk5OTY5NDgyNDIyIiBoZWlnaHQ9IjIwLjAwMDAwMTkwNzM0ODYzMyIgdmlld0JveD0iMCAwIDE4LjMxOTk5OTY5NDgyNDIyIDIwLjAwMDAwMTkwNzM0ODYzMyI+JiN4YTsJPHN0eWxlIHR5cGU9InRleHQvY3NzIj4mI3hhOwkuc3Qwe2ZpbGw6IzY2OWRmNjt9JiN4YTsJLnN0MXtmaWxsOiM0Mjg1ZjQ7fSYjeGE7CS5zdDJ7ZmlsbDojYWVjYmZhO30mI3hhOwk8L3N0eWxlPiYjeGE7CTxkZWZzPiYjeGE7CQk8ZmlsdGVyIGlkPSJBIiB4PSI0LjY0IiB5PSI0LjE5IiB3aWR0aD0iMTQuNzMiIGhlaWdodD0iMTIuNzYiIGZpbHRlclVuaXRzPSJ1c2VyU3BhY2VPblVzZSIgY29sb3ItaW50ZXJwb2xhdGlvbi1maWx0ZXJzPSJzUkdCIj4mI3hhOwkJCTxmZUZsb29kIGZsb29kLWNvbG9yPSIjZmZmIi8+JiN4YTsJCQk8ZmVCbGVuZCBpbj0iU291cmNlR3JhcGhpYyIvPiYjeGE7CQk8L2ZpbHRlcj4mI3hhOwkJPG1hc2sgaWQ9IkIiIHg9IjQuNjQiIHk9IjQuMTkiIHdpZHRoPSIxNC43MyIgaGVpZ2h0PSIxMi43NiIgbWFza1VuaXRzPSJ1c2VyU3BhY2VPblVzZSI+JiN4YTsJCQk8Y2lyY2xlIGN4PSIxMiIgY3k9IjEyLjIzIiByPSIzLjU4IiBmaWx0ZXI9InVybCgjQSkiLz4mI3hhOwkJPC9tYXNrPiYjeGE7CTwvZGVmcz4mI3hhOwk8ZyBjbGFzcz0ic3QwIj4mI3hhOwkJPGNpcmNsZSBjeD0iMTYuMTMiIGN5PSI2LjIxIiByPSIxLjcyIi8+JiN4YTsJCTxjaXJjbGUgY3g9IjIuMTkiIGN5PSI2LjIxIiByPSIxLjcyIi8+JiN4YTsJCTxjaXJjbGUgY3g9IjkuMTYiIGN5PSIxOC4yOCIgcj0iMS43MiIvPiYjeGE7CTwvZz4mI3hhOwk8ZyBtYXNrPSJ1cmwoI0IpIiB0cmFuc2Zvcm09InRyYW5zbGF0ZSgtMi44NCAtMikiPiYjeGE7CQk8cGF0aCB0cmFuc2Zvcm09Im1hdHJpeCguNSAtLjg3IC44NyAuNSAtNC41OSAyMC41MykiIGQ9Ik0xNC42OSAxMC4yMmgxLjU5djguMDRoLTEuNTl6IiBjbGFzcz0ic3QxIi8+JiN4YTsJCTxwYXRoIHRyYW5zZm9ybT0icm90YXRlKDMzMCA4LjUyMyAxNC4yNDQpIiBkPSJNNC40OSAxMy40NWg4LjA0djEuNTlINC40OXoiIGNsYXNzPSJzdDEiLz4mI3hhOwkJPHBhdGggZD0iTTExLjIgNC4xOWgxLjU5djguMDRIMTEuMnoiIGNsYXNzPSJzdDEiLz4mI3hhOwk8L2c+JiN4YTsJPGcgY2xhc3M9InN0MiI+JiN4YTsJCTxjaXJjbGUgY3g9IjkuMTYiIGN5PSIxMC4yMyIgcj0iMi43OCIvPiYjeGE7CQk8Y2lyY2xlIGN4PSIyLjE5IiBjeT0iMTQuMjUiIHI9IjIuMTkiLz4mI3hhOwkJPGNpcmNsZSBjeD0iMTYuMTMiIGN5PSIxNC4yNSIgcj0iMi4xOSIvPiYjeGE7CQk8Y2lyY2xlIGN4PSI5LjE2IiBjeT0iMi4xOSIgcj0iMi4xOSIvPiYjeGE7CTwvZz4mI3hhOzwvc3ZnPg==;" parent="1" vertex="1">
          <mxGeometry x="436" y="366" width="38" height="42" as="geometry" />
        </mxCell>
        <mxCell id="3PPzKcf8SJXLLi3a6Jo8-1" value="" style="image;sketch=0;aspect=fixed;html=1;points=[];align=center;fontSize=12;image=img/lib/mscae/CosmosDB.svg;" parent="1" vertex="1">
          <mxGeometry x="980" y="360" width="50" height="50" as="geometry" />
        </mxCell>
        <mxCell id="3PPzKcf8SJXLLi3a6Jo8-3" style="edgeStyle=orthogonalEdgeStyle;rounded=0;orthogonalLoop=1;jettySize=auto;html=1;exitX=1;exitY=0;exitDx=0;exitDy=0;entryX=-0.02;entryY=0.5;entryDx=0;entryDy=0;entryPerimeter=0;" parent="1" source="oO-yoU9O_R-_ua10_7h0-4" target="3PPzKcf8SJXLLi3a6Jo8-1" edge="1">
          <mxGeometry relative="1" as="geometry" />
        </mxCell>
        <mxCell id="3lFjE9dBdx0LUiIUw8xG-9" style="edgeStyle=orthogonalEdgeStyle;rounded=0;orthogonalLoop=1;jettySize=auto;html=1;entryX=0.5;entryY=0;entryDx=0;entryDy=0;" parent="1" source="3lFjE9dBdx0LUiIUw8xG-1" target="oO-yoU9O_R-_ua10_7h0-1" edge="1">
          <mxGeometry relative="1" as="geometry" />
        </mxCell>
        <mxCell id="3lFjE9dBdx0LUiIUw8xG-1" value="API Management" style="image;sketch=0;aspect=fixed;html=1;points=[];align=center;fontSize=12;image=img/lib/mscae/API_Management.svg;" parent="1" vertex="1">
          <mxGeometry x="104" y="140" width="50" height="42" as="geometry" />
        </mxCell>
        <mxCell id="3lFjE9dBdx0LUiIUw8xG-5" style="edgeStyle=orthogonalEdgeStyle;rounded=0;orthogonalLoop=1;jettySize=auto;html=1;" parent="1" source="3lFjE9dBdx0LUiIUw8xG-2" target="3lFjE9dBdx0LUiIUw8xG-1" edge="1">
          <mxGeometry relative="1" as="geometry">
            <Array as="points">
              <mxPoint x="102" y="100" />
              <mxPoint x="125" y="100" />
            </Array>
          </mxGeometry>
        </mxCell>
        <mxCell id="3lFjE9dBdx0LUiIUw8xG-2" value="" style="image;aspect=fixed;html=1;points=[];align=center;fontSize=12;image=img/lib/azure2/other/VM_Application_Definition.svg;" parent="1" vertex="1">
          <mxGeometry x="80" y="35" width="43.31" height="40" as="geometry" />
        </mxCell>
        <mxCell id="3lFjE9dBdx0LUiIUw8xG-3" value="" style="image;aspect=fixed;html=1;points=[];align=center;fontSize=12;image=img/lib/azure2/integration/App_Configuration.svg;" parent="1" vertex="1">
          <mxGeometry x="160" y="30" width="42.36" height="45" as="geometry" />
        </mxCell>
        <mxCell id="3lFjE9dBdx0LUiIUw8xG-10" style="edgeStyle=orthogonalEdgeStyle;rounded=0;orthogonalLoop=1;jettySize=auto;html=1;entryX=0.655;entryY=-0.007;entryDx=0;entryDy=0;entryPerimeter=0;" parent="1" source="3lFjE9dBdx0LUiIUw8xG-3" target="3lFjE9dBdx0LUiIUw8xG-1" edge="1">
          <mxGeometry relative="1" as="geometry">
            <Array as="points">
              <mxPoint x="181" y="100" />
              <mxPoint x="137" y="100" />
            </Array>
          </mxGeometry>
        </mxCell>
        <mxCell id="3lFjE9dBdx0LUiIUw8xG-13" value="" style="shape=image;verticalLabelPosition=bottom;labelBackgroundColor=default;verticalAlign=top;aspect=fixed;imageAspect=0;image=data:image/png,iVBORw0KGgoAAAANSUhEUgAAAgAAAAIACAYAAAD0eNT6AAAABGdBTUEAALGPC/xhBQAAACBjSFJNAAB6JgAAgIQAAPoAAACA6AAAdTAAAOpgAAA6mAAAF3CculE8AAAABmJLR0QA/wD/AP+gvaeTAACAAElEQVR42u3ddZgd53U/8O/M5WVmZt7V8opXDLZkkgySnZjTpGlqx3HStL9kkzRpEzvQpg3ZjsyyJZMkixkWtavd1TIzM++lmd8fslyDZAv2zp25cz7Pk6dNZGvmnqEz77zvOQyI5OTt2qWdteeCeZ73MDOMO8tw7uBZD4Dz5BnGneHhCAA8GB0DTvvJ/+/EAAqKHiHkq/CAmQE/eeW/MXMA5j/5k0meZ0ZYYIhn+RGOZ0cUPD9i5rkho9N8xx83/ZOeoictDIVAnJ7f94ojp0cCeCTwLBfC8EwIwIQAfCgAX4oQIURceQP6ALQxPN/OM0w7wLSBZapnubmaP23/zjSFiBIAcq2H/fsvBZjNyGYYNonh+UQASTwQSseHEGIjyUErwF9mwFRxDF+pMLFFv3nw8V4KDSUAsrJtzx5FGDseY+KYJQyYpQDSAMRRZAghMtMH4AIP5ANM2dSYqfhvTz9tpLBQAmBTnt3990BGYd7IABsAZjUAJ4oKIYR8zgSAEzyDIwqWP/Kbe5/sppBQAiDJt/xQfmo5x/KbeB4bGSCeokIIITfzcOKrOJ45zDLsIfvazvN5eXkcRYUSAFHKy8tjp+ICFzMMtoHnt4Em6hFCyEIZAXAIPPu6Q13nKUoGKAEQhe+/87cMRqHYCZ6/D4AfRYQQQiyqm2Gwl+P5t367/ckyCgclAIL67ptvOqnVcw8wYL4FYBFFhBBCrKIWPF43M3jp99ufGKVwUAJgMT949+UlPPinwGAbwOgoIoQQIgqzPLCHAfO3F7c/XkjhoARgQeTl5bHTsQGbGQY/5oFsigghhIhaOcMwf7D36Ho7LzfPROGgBOCmPb/vFUeznn+MAZ4BEEwRIYQQ6eCBdobHX0xqxV//cPej4xQRSgC+1jN7XnZjGf77DM98B4AzRYQQQiRtDAzzPyYl+ztKBCgBuKZv7/lfBzte8x0w+BEAF4oIIYTYlCkw+JOCN//Hr7c/PUHhoAQAz73+uj2vNTzBgPkxwHvRKUEIITZtBDz/P3qj7nd/3LlzkhIAGcrLy2On4wIfZcD/kge86ZoghBBZ6eV5/NixrvsNuRYWkmUC8Nx7f89iOO4PNKufEEJkr4xh+Gde2PbkeUoAbNjz778UwJmZXwHYCfr8QQgh5BM8mI9VZva7//ngo+2UANiQvNN5yqmhgO8wwC8B2NOpTggh5BppwBx45mcdjNOLe7dvN1MCIHHPvfdSEjj2ZYDPoJObEELIDajgwT9h670GbDYBeGbPHp2Cn/ghGOZfAKjpfCaEEHITTGCYP2FO9eMXH3lkhhIAiXh+z8uZHPAmgEg6hwkhhNzGY7KeB7fTFkcDbCoByMvLY6fiAr7LAL+ht35CCCELNhrA87/sYJx/YUtzA2wmAfjhnr8GmcG+DjAr6FwlhBBiAYUAv+PF7U+22cKPYW3hR/xgz0v3m6G4TA9/QgghFpQDMGU/ePeVe2kEwMryTucpp4cD/h08fkjnJSGEEOEenszfJsZM//i3p582UgIgsH/Z83dPE7jdPLCaTkVCCCFWcI6B4v4Xtj/aTwmAQJ5/75V0juPfBxBE5x8hhBDr4Xs4Dvf97oEni6S255KbA/Dc3pce5Tg+nx7+hBBCRPAe7c+yzJnv73n5YUoALJZk8cxz776UB575O2iJHyGEEPHQMMBrV55RvGRG1iWxo3l79qinmclXwGMnnWeEEEJE/LL6ugPj/GTe9u0GSgBu04/e+pOrSaX6kJb4EUIIkYh83mS+67cPPT1MCcAten73K36cgj8OII7OJ0IIIRJSzUCxVswrBEQ7B+CHe/4axCn4s/TwJ4QQIkEJPMwFz7z/9zAaAbgJz+15KRRgTgIIpXOIEEKIhHUyrGLNC/c92kQjAF/j+XdeigWYC/TwJ4QQYgOCwJnPP7NnVyKNAHzVm/87LyeAxWkAHnTOEEIIsSFDCpbL/fV9T9VQAvAFz+x5OUIBnAPgS+cJIYQQ28MMssDy32x/vEEMeyOKTwDP7v57IAscp4c/IYQQ28V7ceCP/2j3rhBKAAB87+2XvFkFd5wBQujkIIQQYuMCTQrz8X9+/69Wf+G16ieAZ/a87KYAzoOW+hFCCJERBnyVUaVc/oe7Hx2X3QhA3p49agWYvfTwJ4QQIjc8mESl0fTRdw/9t0ZeCQDPM9OYfBngV9FpQAghRKbjACu0M/a7rNVASGGNjf4gLvAXYPBdOviEEEJkLnFxXQVfsHf/WcHTD6E3+Nzelx79pKUvIYQQQgCeB77x2+1PvGGzCcCz77yUzbLMGQAaOt6EEELIp4wMj9wX7n8i3+YSgO+9/ZK3SokygPGn40wIIYR8SZcKbNp/bH9sSIiNCTIJMO90nlKlxLv08CeEEEKuK9AA7t2803lKm0kAZoYCXgSYFXRsCSGEkOtjgNypwYBfCrQty/rBnpfu58G8Q4eVEEIIuSE8z/D3/Xbbkx9INgF4/v2XAjgzcxmAKx1PQggh5IaNK2BO/vX2pzsttQGLfQLIy8tjOTPzBj38CSGEkJvmYobijW179lisXo/FEoCp+IAfA1hJx5AQQgi5JctDmMnvW+ovt8gngO/veSmNAVMIQEXHjxBCCLllRhZY+pvtT5SIfgTgmT17dAyYt+nhTwghhNw2FQfmtbxdu7SiTwBYfjIPQBQdM0IIIWQh8DEzduZ/Xei/dUE/ATz7zivJLMtfpLd/QgghZEGZOBaZv7vviXLRjQDknc5Tsiz/Cj38CSGEkAWnZDnmrwu5KmDBEoDpwYDvA0ijY0QIIYRYAp8RzEx9d6H+tgX5BPCj3btCTApTLcDo6AARQgghFjPDKviY39z7ZLcoRgBMCu4FevgTQgghFmfPmZlfi2IE4AfvvryEZ3AeArYWJoQQQmSM58Es/+32xy9YbQQgLy+P5Rn8gR7+hBBCiGAYBtx/5eXl3dYz/LZ6Dk/FBzzG8EinY0HI7VOwLLQqNXQq9ZX/q1aDAQOtSv2lf1ZvMoLjOYAHZgx6zBrmMaPXw2g2USAJkUcOkDoVG/AwgNdu+W+41X/x23v+18EemmYe8KYDQciNPeA9HZ3h4eAEdwcneDg4wUVnDyedPRy1Ojhodbc9lGY0mzFrmMf47AxGZ6YwOjONsdkpjM5MYXByAhNzM3QgCLEdvQ46c2TenU/PCjoCoOO1/8QzPD38CbkGtVKJAFcPBLl5wc/FDT7ObvBydIaCZS26XZVCAWedPZx19gh29/rSn88a9OgdH0Hv+Cj6JkbRNTqEwclx8HTICJEiv+k55XcAvCDYCMAP9/zV2QxFKwA3ij8hgEqhRLiXL2J8AhDi7g1fF1ewDCuJfZ/Rz6N9ZACtQ/1oGx5Az9gwOJ5SAkIkYoTVMKG/2fr4lCAjAGaefQYMPfyJvLnbOyLS2x+R3n6I9gmARinNIpj2Gi3i/YIR7xf86ShB82AvmgZ6UdPbgan5OTrYhIj4VsTpuX8C8EuLjwD884e7XJRGcxsAF4o7kZsQD2+kBIYhxicA7g5ONv97OZ5H+/AALne3obKrDdN6SgYIEaFxpdEQ9p87vj1m0REApcH8PBh6+BP5cNbZIzU4HJmh0fCQwUP/s1iGQZinD8I8fbAlJRudI4Mo62hGRVcL5o1GOjkIEQcXk1rzDICfWGwE4Pl9rzhyer4LgDPFm9gylUKBWN8gpIdEINonECxDpS4+y2Q2o7K7Decbq9EzPkIBIcT6xmahD/rT9u9MW2QEwGzgnmLA0MOf2Cw3e0csj0pAekikZL/pC0GpUCAtOAJpwRHoGBlEYUsdKrvbYDKbKTiEWIerDprHAfzXgo8A5J3OU04PBbQACKI4E1vj6+yGFdGJWBQUJpnZ+2Izo59HQUsdzjdWY85ooIAQIjAeaHf07I7My827oYpgNzwCMD0UsJ0e/sTWhHp4IzcmCTG+QVTP+jbZa7RYG7cIy6MScLGtEafqK2kFASECYoCQ6cHAewDsWdAEgAe+RzdIYivCvXyxOTEDgW6eFIwFplGqsDQyHpmh0TjfVI0zDZdpwiAhgmUB/A9uNAG4oWf69/e8spQBf54iS6TO09EZGxLSkBQQSsEQyKxBjzMNl3G+qYbmCBAiTBaw+MXtjxcuyAgAw3NPgmZBEwmzU2uwLj4V2WExFi/HS74c+02JGcgKi8GhyxdxubuNgkKIJfF4EsDXJgBf+1T/pOxvLwA7iiqRGgXLIiMkChsS0mCv0VJARKBlsA8flBdgcHKcgkGIZTKAOZNK6feHux/9yovsa1+FzFA8TA9/IkVBbp54du3duDdtCT38RSTcyxfPrr0bmxIzoFQoKCCELDhGpzBwD3zdP3UjnwAep2ASKVEqFFgXl4oV0YlUwEekFCyL3JgkJAaE4J2Ss+gYGaSgELKQKQDDPwHgL1/5z3zVH37/nb9lMCxbQqEkUhHo5okHMpbDy8mFgiERPM8jv7kWBy9fhImjSYKELFgSwLFpLzzw2KVbGwFgmIcphEQqb5TLoxKwPj6NJvlJ7k2FwdLIeER4+eGdkrNUWpiQhUquWW4HgOsmANe9U+bl5bEMw9xLISRi5+nojO+tuQubEjPo4S9hPs6u+MfVdyInPIaCQcjC2A6eZ246AZiJC1oGwI/iR8Qs1jcI3129Bb7OrhQMG6BkFbgndQkezFoJtVJJASHk9gQ8+95LOde93q47dADufoodESuWYbAmbhHWxKaAoYl+Nic1KBwBru54veAUBibHKCCE3Oq9Eor7ARRc68+ueefctmePIgSTPTzgTeEjYmOv0eKhrJWI8vanYNg4vcmIt4rOoK6vk4JByK3p74BTwN7t281fTg6uIZSfWk4PfyJGAa4e+N6arfTwlwmNUoVvLlmDpZHxFAxCbo1PCDOx+NqjA9fAA5spZkRsIrz88K2Vm+Bq50DBkBGWYbA1JRv3pi2hVs2E3AKOZzdd63+/5hwAnuE3UsiImKQEhuGBzBWymOU/Z9BjWj+PWYMeBpMJHM9BbzJCq1LDUauDWqmCRqmEklVAq1LL5hzIDouBs84ObxSehtFsoouCkBvEgN8A4F++/L9/wfPvvxTAmZkuChkRi8URcbgrJdumJvuNzUyjb2IUfRNjGJmexOjsFEZnpjAxOwuO527q71IplHDS2cHN3gFu9o6f/sfd3hGeji7QqlQ2dT60DvXj7xeOQW+iFsOE3CCeNTMBv3nw8d6vHAEwm7GJ5lQTsVgXn4q1cYsk/Rv0JiM6RgbRPjyA9pEBdI0OY95oWLC/32g2YWR6EiPTk1/O/BkG3k4uCHbzQrC7F4LcPeHl6CLpZCrM0wdPr9iIl88fxaxBTxcJITcwCMApufUAdn1lAsCC2chTsIi1z1aGwV2LcrA4PFaS+983MYr6vm409HejfWQAZo6zyn7wPI/+iTH0T4yhuK0BAKBVqRDm6Yt4v2DE+wVJslFSoJsnvrVyE146dwRT83N0wRDy9TZ8MQH43GvAtj17FMGYHAXgRLEi1nRP6mLkSOzh3zcxioquVlzuasPwNd7GxYhlGAS7eyPePwgJfsFwd5DWpT8wOY4/nzmIGf08XTSEfLVRh9puz7y8PO6aCcCz7728iOWuXzeYEEHS1IR0rI5NlsS+zhn0uNTZguLWevRNSL9gTaCbJ3LCY5ASGA6VRFr1do8N469nD9/UZxVHrQ6OWjs4aLTQqdXQqTTQqdVQsgqoFEowDAOtSgW90QiOvzImauY5GExGzBkM0JuMmDPoMTk/i+n5eUzr52967gYhguOQ+OIDT1Rf/a+f+wTAclhCESLWtCI6URIP/97xUZxvqkZlVyuMZtvpYNc1OoSu0SEcqCxBenAEssNj4OXoIup9DnD1wGNL1+Klc0c/XR3AAHB3cIK3kys8HZ3g4eAMT0dnuNo5wElnt+CrSTiex9jsNIanJjB09T/TExiamsTE7DTosyoRBQWWALh2AgAeS0AzAImVZIVGY3NSpqj3saG/G2cbq9A00GvTx2LOoMf5phpcaKpBuJcfcmOSRF18KdTDB9/O3YyOkUH4ubjBz8UdGqVwqx9YhoH7Jysvon0CPvdnRrMZ/ROjaL86EXR4AJPzs3TBE+HxWALgr9dOABgaASDWkeAfjHvSFos2/2wfHsDh6lK0DvXL7H4BNA/2onmwFyHu3lifkIoIL3H2CAtw9UCAq4fo9kulUCDQzROBbp5Y9klFw5GZqU+TgbbhfgxMjtNNgAhh6ecf+Z94Zs9r/goYuyk+RGgRXn54Ytl6URb56R4bxoHKYtk9+L9KlLc/NiSkIdDNk4KxQMZmplHT24Havk60DPbTfAJiMWaoAn6//Rs9nxsBUPKmbJ6G/4nAXO0csDM7V3QP/8n5WRypKkNpRxN4nr7gflbjQA8aB3qQ6B+CrYuy4ayzp6Dc7nVg74ClkfFYGhmPWYMedX1dqO3tRH1/FwwmqnpIFo4CpkwAH34uAeBZJNNMFSIklUKBbyxeI6p16DzPo6ClDoerSqnS3Neo6mlH40APNiSkYXFEHFhqy7wg7NQapAVHIC04AvNGIyq6WlDUUo+e8REKDlmAmxyX/KUEADyfRJEhQro7dTH8Xd1Fsz/D05N4r/QCWob66ODcIL3JiH0VRShtb8J96UtF+Q1eyrQqFbLDYpAdFoPusWEUtzagvLOFklNy6xgm8er/+9lJgJQAEMEsi4xHRkiUOBJiABeaanCo6iJMNrSkT0g94yP448kDWBGdgPXxabJo2iS0AFcPBKR5YHNSBi51XhkV6JsYpcCQm/VpAsAAwPP7XnHk9PwEQIsAieWFeHjjWys2ieIhMTU/hz2l51HfR/2vFvJBtTNnFdztHSkYFtY00IujNWXoGBmkYJAbxWFe7fTiI4/MKAHAZDAnsmDp4U8szlGrwzcWrxbFw79lsA9vFJ2iMrILrHtsGP99Yh8eyFyOWN8gCogFRXr7IdLbD+3DAzhSU4aWQfp8Rb4Wy6vn4wBcZK8MA7BxFBMihLtTF8NBo7P6fhS11uOl80fo4W8hswY9dl04jv0VRVZrhCQnV0fVvpN7ByJFWqeBiCgDYBXxAPDJaxgfSiEhlpYWHIFE/xCr7oOJM2N3yVm8X5ZPDyYL4wFUdLVieHqCgiFgIvDUio14avlGeDu5UkDI9a7OUOCTSYAs2FCe1gASC3LW2WHrohyrv5W+VnCCivoIQMGyuDM5CznhsbQ80Aoivf3w7Lq7UNBch6M1l26qURKRRXL+fwkAz/MhFBJiKQyAbenLoFOprbYP47PTeOncUQxOjdMBsbC04AjctWgxtCoVBcOKWIbF0sh4JAeG4VjNJRS3NVBRK3JVyKcJwNX/QoglZIXFfKlBipDGZqbx17OHMDIzRQfDgvxc3PBwzmp4ODhRMETEUavDvWlLkBkahQ/LC9E1OkRBIaEAwOTt2qWdtjfPgpYAEgtwtXPA99ffI2hnts8anBrHX88exuQcdV+zFDuNFjuyVoq6WyC5guN5nK6/jOO1l2gOjMxPBb3DrJ1yUmcMoiWAxFK2pGRb7eE/Mj1JD38LYhgGa+MWYVVMMhX+kQiWYbA6NhlxfkHYXXwafRNjFBSZngrKabtAJcMqvEATAIkFRHn7I8E/2Crbnpibwd/OHaGHv4UkBYTgvrSl0Kk1FAwJ8nV2xXdXb8Xhqou40FRDTwAZUoDxVILnPWjwnyz4ycWyuMtKs/5n9PP4y5lDGKVv/gvOw8EJD+eshp+LGwVD4lQKBbakZCPGNxDvXjxHybLc8LyHkmEYdxoBIAttSUQcPB2dBd+uyWzGq/knMDw9SQdhAWmUKmzPWIbEgFB6X7AxUd7+eGbtXdhdfBaNAz0UEJlgGMadRgDIgtOqVFgVk2yFhJbHOxfPon1kgA7CQt0kAKyMScK6+FQoWQUFxEY5aHR4fNl6HKkuxen6yxQQuYwAgOHdaQEAWUgro5Ngr9EKvt0TdRWo7GqjA7BAIr398UDmcjhp7SgYMsAyDDYlZsDdwQkfXiqgVQI2jmMYdyUA+phHFvRNYllkguDbre/rwvHacjoAC8DNzhE7cnIR5OZJwZChrNBoeDu64LWCk5jWz1FAbBTD8O5KhmHtqDoUWSgrohOhVioF3ebIzBTeLjlLVc5uk4JlcU/qEmSERIKh8r2yFuLhje+t2YpXC46jZ2yEAmKLCQDH2yl5nqd1PGRB2Kk1yAmPEXSbHM9hd/EZzBn0dABuw9KIeGxKSodKoZTdb583GjE5N4M5owEGkwlzxivnkpnjoDcZwTIstCoVNEoVVAoldGoNHDRaOGh1Nv3x1MXOHv+wcjNezT+B5sFeukhsDM8waiUPRs3QKgCyAJZHJQpe9OdkXSU6RgYp+LcozNMHD2Xlwlln+9/5W4f60T8xisGpCQxPT2JkehITc7Mwmk239PexDAsHrRbu9o7wcHCGu4MTvJ1c4O/iDld7B5uImUapwmNL1+G1ghNo6O+mC8aWRgAAjZIBr6ZQkIW4USwW+O2/c3QIJ2orKPi3wElnh4dzViHE3dtmf6PBZEL/5BiaBnpQ29uJ7rFhcAv4mYjjOUzOzWJybhZtw59feaJTaxDg6o5QDx+EefogyM0LKoU0V1GoFAp8c8kavFl4CjW9nXTx2MoIABiNEuA1tAqA3K60kEhBq8KZOQ57S8+D42mm8s24WqApKzTa5r7zmzkOXaNDuNTZgrq+LozPTlttX+YMejQN9KJpoPfTuId5+CDGNxCxvoFWqZFxO5SsAg/nrMbbxWdwuZtW2thGAsCrlQBDIwDktjAAlkbECbrNU/WV6Kc65jclMzTKqr0ZLMHEmdE+PIiCllrU9naKdumamePQNNiLpsFeHKgshpejC1KCwpASGCaZZEDBstiRnQvlRQUudTTTBSX5+zajUfKAgt7/ye2IEfiNZmhqAqfqKinwNyjQ1QM7c1bBzd7RNt5ceB7tI4M4XluO5sFeSa7+GJwax7GaSzhWcwkBrh7ICovGoqBw0SdnLMPggYzlUDAsLrY30sUl7REApZLCQG5XVpiw3/73VxbDxJkp8F9Dp9ZgR9ZKRPsE2MTv0RuNuNjeiBN1FZjRz9vMceoeG0Z32TA+rizBoqBwLI2Mh7eTi3jfHBkG96UvxZxRj+qeDrrQJIwSAHJbnHR2iPUV7gHT0N+N+r4uCvzXvKVtTsrE0sg4sIz02/SOzkzhcFUpKrvbbLrWg95kRFFrPYpb6xHrF4SV0YkI9fAR7Tm2IysXL184ipbBPrroKAEgcpQeEinYQ4bjeRyoLKGgf4XkwDDcl7YEWpX0p/aMzU7jg7IC1PfLK+HjAdT2dqK2txPhXr7YEJ+GEA/xrdZQKhT45uK1+POZj9E7PkoXHyUARHYJQHCkYNuq6GzBwCRN/LsWT0cXfGPxalEPHd+oWYMeBy+XoKSNvjG3DPbhfwc/RoxvIDYnZsDH2VVU+6dVqfDoknX448n9mJyndsKUABDZ8Hd1F2zyH8dzVOv/GjRKJR7MWol4v2DJ/xaDyYRDVRdR0FxLpcm+oL6vC439PcgOj8H6+FTYqcVTwNXFzh7fXLIGfz5z6JaLKhFKAIjELAoMF2xbZR3NGJ6epKB/ggGwNn4RVsWkQMFK+zs/z/MoaWvER+WFNLnza5LgguZaVHS24I6kTKSHRommgkugmyfuz1iOt4pOUfJGCQCxdSzDYlGQMAkAD+BsQxUF/RMxPoG4P3M5HKzQcnmhdY4O4fWCE5iYo+HjGzVr0GNP6XlcbG/CtvSloqkjkBwYiq7RRJxtpGuVEgBiU9RKJfxd3BHi4Y1QD2+EevgINtGsoa8LA5Pjsj8GbvYOeDhnNQJcPST/W6bn5/DOxbNo6O+hi+sWtQ334/fHP8KdyVmCN+G6nk1J6egaG0LrUD8dIEoAiJS52zsizi8Isb5BCPP0sdpQ87mmalkfBxWrwLaMZUgJDJN8+V4TZ8bR6ks423CZhooXgNFswgeX8tE40I1t6cusPjeAZVjszF6F3x//EFPzc3SAKAEgUsEACHb3RlJgKOJ8A+Hu4GT1fRqamkDzgHxbkS6PSsCGhHTJNpK5igdQ3d2Ody+eg95kpIttgVX3dKBrdAgP56xGsLuXVffFUavD/RnL8cr5o5TkUQJAxM7byQXJgWFYFBQODxE89D+ruK1BljeRIDdP7MxeZRNtZYenJ7DrwgkMTo3TxWZBE3Oz+NPpg9iQkIbcmCSr7ku0TwCWRSXgXGM1HRhKAIjYaJQqLAoKR054DPxc3EW5j2aOQ1m7vJqOOGp1eCRntSgLv9ysWYMee0vPU7lYAXE8h0NVFzE6M4W7U3OsWglyY2I6mgd7qUgQJQBELLwcXbA4IhZpwRGirxbXPTaMab08viOyDIuti7KRHRYDVuLf+c08h3MNVThcXWbTpXvFrKi1HiMzk3gkZw20Kus0GFKyCtyfsQL/fXKfaLs0UgJAZCHM0werYpIR5RMAqTxe5PLwyAiNwlYbadPb0N+Nt4pOY85ooIvOypoGevGXMwfx2LJ1cNLaWWUf/FzckBudhBN1FXRAKAEgQov09sO6+FSEuEtvSLmotd6mj02AqwcetpE2vaMzU3ij8BS6x4bpohORnvER/Pn0QTy9YhNc7Oytsg9r4hahurcD/RNUxpsSACKIWN8gbEhIg5+LmyT3n+d5m/12rFWpsSM7FzE20KZXbzLio/JClLY30UUnUsPTk/jT6Y/x9IqNVlnZo2BZ3Ju6BH86/TGtCqAEgFhSoJsnNidmINzLV9K/o39yzOaWizEMgzsSM7A0Kl7ybXo5nkdJWwM+Ki+k77sSMDY7jb+cPYRv594BVzvhV5aEeHgjLSSSEkVKAIgluDs4YVNiOhIDQsHYwO8p72yxqeOT6B+C+9KXiqqJy63qGh3GrvzjmKLub5IyPjuDv509jG/n3gFHrU7w7d+ZnIXa3k7MGvR0MCgBIAtyAFkFVsYkYVVMsuSLxXyWrbwpeDu54pHFq+Dl6GITD5A3i06hY2SQLjyJGp6exMvnj+IfVm4SfBWQnVqDtXGLsK+iiA4EJQDkdoV5+uCe1CU20QP+s+aMBsmXEVUrldievgxJgWGSH5Exmc04VnsJp+sv00VnA3rHR7Ar/zieWr5R8PLeOeGxyG+upc6elACQW6VTa3DXohykBoXb5O8bkPhs4VUxyVgXnyr9Nr3gUdHZij2l52EyU5teW9I61I8PLuVjW/oyQberYFlsTEzHG4Wn6CBQAkBuVpS3P7ZnLIOzzt5mf2PDgDQ7xNlSm97e8RG8VnASozNTdNHZqJK2Rvg6u2FpZLyg200MCEWwuxd9SqIEgNwolUKBtXGpWBmdKPmOcF+nrq9TUvvrZu+IbyxeLdqSyjdjWj+H3cVn0ThAbXrl4OPLJQhw8xC0TggDYHNSBv50+iAdAEoAyNfxdXbDwzmr4OnobPO/led5yRQMUbIs7klbivTgCJto03umvgrHai9R+V4ZMXMc3iw8jWfW3gV7AUeuQj18EO7li5bBPjoIlACQ60kPicQ9qYuhUsjjUE3Oz0piXbmttOkFgLq+LrxdfBrzRmrTK0cTczPYXXIWjy9bL+iE1dWxKZQAUAJArnlgFApsTswQ/PuctY1Mi/ubc5inDx7KyoWzzk7ysR6cGsfr+ScxQG16Za+hvxuFLXVYHB4r2DYjvfwQ4u6N9pEBOgCUAJCrnHX2eHTpWvjbwDflmzU0PSHK/XLU6vDNxWsQ5O4l+RjPGfR4rywfl7vb6GIjnzp4uQRR3v7wELBc8KrYJPz9wnEKPiUABLjyvf+xpeus1rjD2vrGR0S3T8ujErA5KVPybXo5jsPZpmocqSoFR9/5yRcYTCa8e/Ecvr1ys2BzWmJ8g+Dt5IqBSWoURAmAzEX7BGBn9iqr9e8Wg57xUVHtzwOZK5AWHCH5uDb29+Ct4tNUhpV8pfbhARS3NSA7LEaQ7TEAlkTE4oNLBRR8SgDka2lkPO5MzpL8W+btGhFRhbB7UhdL/uE/Mj2JN4pOo4fa9JIbdLiqFAn+wXDQCNMvIDU4AoeqLtIkVCtgKQTWtzZuEbamZMv+4c/zPKZFUgI43i8YOQJOiFpoepMRe0ov4D8P76WHP7kpswY9TtRWCLY9jVKF1OBICjyNAMjLlYIYmVgRnUjBwJU1ybxIjsuDmSskGUOO51HcWo99FUWyb9OrUigQ4eUPD0cnaBQqTM7PoGWoT/QrTcSgrKMZ6+JTBeteuTg8FoXNtaCZKZQAyObhv3VRDpZExFEwPmHixFFvflVsCjQSnIfRMTKI1wtPYnJOvm16NUolNiVlIikg9Lolmc0ch67RIRyquoi2YVqCdi3zRgNO11/G5qQMQbbn7eSCYFoSSAmAXB7+96UvQ2ZoFAXjCzdmMVgssaH/iblZvF18Gq1D/bI9dxQsi60p2cgKiwbLsF/7z4Z4eOPbuXdgYHIcbxSexMDkOF2AX5DfXItlUfFw0gpT82JRcDglAAKjOQBWcGdKtqQe/r3jI4J8mzeJIAGwU6nhJJEiP0azGfsri/HLj3fL+uGfERqFn23diZzw2K99+F/rzfO59ffiiWXroVWp6eb0ufPLhJN1lYJtLzkgVPIdNGkEgHyldfGpWCaB6n5mjkNNbweKWuvRNNCL59bfAwetzsLbtP4ngDj/YNEfGx5AVVcb9pSeh94k35nTfi7ueDhn1YIUron2CUDelh0421iFI1Wl9C36E8Wt9VgZlQhXeweLb8teo0WUd4DkmoFRAkBuyPKoBKyNWyTqfZycn0Vhcx2K2xow9bm3fsuvUBDDCECAq4eoj0/P+Ahel3mbXp1KjR3ZuYj2CVjQv1fBslgVk4zssBjsuXgeNb0dsr9nmTkOpxsqcU/qEkG2tygojBIASgBsT3JgKO5IzhLt/s0a9DhVX4mC5loYzV9+ExdihSInggRAyI5oN2NGP489F8+htq9LttcQwzBYn5CKlVFJFh0qtlNr8M0la9A3MYpX80/IOtkCgEsdLdiUmCHIJ5I4vyAoWFb2K1goAbAhAa4euD9jOcS4yt9gMiG/uRan6ysxZzTQBcGKq7sfx3M411iNwzIv3xvnG4jtGcsFTdB8nd3wo03bUdPTgbeLTsMoklUqQtObjCjraBZkxZJGqUK4py8aB3rowUEJgPS52Tvi8WXrRNfO18xxKGipw8m6Cszo5+lAiVDjQA/eLDwl68TM3cEJD2evgr+rdRpjMQAS/IPx87sexom6Cpysq5DlcShorsPiiDhBXmJifAMpAaAEQPq0KhUeW7pOsJKaN6prdAjvlV1Ar8jq7pMrRmem8HrhSfSMjcg2BiqFEvekLUZaUIRgjWm+8kapUGBDQhqWRMThraLTaBmSVx/7walxtAz2IsLLz+LbivMLwv6KIroRUAIgXQyA7enL4e3kIpp9MprNOF57CWcbqqgb3HVZLy7zRiM+LC/ApY5mWV83q2KSsSZ+keg+xwBX2kJ/a+UmdI4O4rUCeRVdKmipEyQBcLd3hJejCwanxul2RAmANC2LSkBiQIho9qd1qB/vlV3A0NQEHRyR4XgeRa312C/z8r2R3v54IHO5YIVnbkeQmxf+bfMDKGlvxAdlBeB42z9utb2dmDPooROgPHCEly8lAJQASFOwuxc2JWaIYl/MHIcDlcUooDrbotQxcuVNcmpevuV7Xewc8GDWCoR5+EhrtIJhkBUajUVB4ThQWYyilnqbPk5mjkNtX5cgHTJDPX1Q0FJHNwhKAKTFTq3BzuxVoqhoNTE3gzcKT6FjZJAOjMjQsfm/8r3ZYTGi+M5/q9QKJe5NXYJVMcl4veAkum24+2J1T7sgCUCYpw/dJCgBkJ5705bAxc7e6vvROtSPN4tOfaGYz22979DBXQBGsxlHq0txtrFa1nHIDo/BnUmZUCtVNvObXO0c8L01W9E61I/XCo5j1mB7qzca+ntgMJmgVlr20eGktYOHgxOGpyfppkEJgDQsCgpHUkCoVfeBB3C6vhJHq8toot8txs8ify/P41JnC94ruwCT2Szb+Aa6eWJndi7c7B1t9jeGefrgJ3fuQH5zLT6+XALehq5Do9mExoEeJAhQMjvUw4cSAEoApMFJZ4e7FuVYdR84nsf7ZRdQ0tZIB0RkScUvD76LibkZ2cbAXqPFjqyViPT2l8XvVbAslkclICMkEnvLLqCqu91mflt1T7sgCUCAqzsutoNQAiB+29KWwk6A2bHXY+LMeLvoDKp66IoRXwbAy/bhzzIsNiSkYkVUIlgZdnrTqTV4JGc1hqcn8Wr+cZtoOyxUkR5fF3cQSgBELy04AjG+gVbb/rzRgF35xyXfEpahaQY2JTkwDPemLYGO2uzCw8EJ319/75WywsWnr9lvQyqm5ucwMjMFdwt/xvFzcQMD0OolSgDES6tSYVNShlUvxlfOH0XPuPSrxtGUBdvg4+yKh7JWwtfZjYLx2QQXV8oK/+KuR3C6vhLHai5J9uHWMTxg8QRAo1TBzcEJIzQPgBIAsdqQkG61wiUz+nn8+cxBmynuQyMA0k+Gt2esQKIA34elTMGyWBO3CFlh0Xi7+CyaB3ullwCMDCJVgOWAvs6ulABQAiBOvs6uyAmPscq2jWYTduUfF+zhL8SzmUYApPtmuzo2BWviFomi/oVUOGrt8PSKjeibGMXfLxzD+Kx05om0C1S/wsPBmU4USgDEedO7N20pWEb4G56Z4/Bq/gmbKyJDIwDSE+ntjwczV8BRq6Ng3PKLhBt+vOl+lHe1Yu/F8zBJoO1w/8Qo5o1GaFWWrePg7uBIJwglAOKTFBiGYHcvwbfL8zx2l5y1yXaZohgBoFGIG+Jm74hHFq+GP83UXqDkl0FqUDgS/IPxcWUJCkVeBpfjeQxMjln8Huhu70QnByUA4qJgWWxMTLfKtvdVFKGyq9VGb4Ji2Ak6v7+KSqHAXYtykBESJenyvWKlVihxT+pirI5NxltFp9E2PCDafR2ZmbJ4AuBm70AnBSUA4rIkIs7iM2CvpaStEfnNtXQAaATAKnnR0qgEbExIh0qhEP3+msxmKCWwn9fjrLPHt3PvQNNAD94sOo1Zg158CYAAk/Nc7R3AMgxVNaUEQCQZulKJ3JgkwbfbNzGKj8oLbfvZS9e4KIV5+uChrJVw1tmLfl9nDXrsKT2Put4urE9IxUqJFyCK9PbHT7fsQElbAz68VCCqB+HozJTFt8EyLOzUWkzr5+hCpARADG//8XDQCDvhSW8y4o3CUzCaTbb9lkkjyqJir9HioayViJJA+V4zx+FcYxUOVZV++r8drirFuYYqPJSdK4nfcP2HIIPssBikBIbh/bJ8VIjkE+DI9JRg5yElAJQAiOLtf3lUvLBvxQDevXjOZtb6E/FTsCzuSslGZlgMWAlkZQ393Xij6BT0RuOX/mzGoMdL544g2N0TO7JXwdVOut+UtSo1dmTnYn1CmijKCo/MCLM+316joYuSEgDrWxweK/jb//nGaptqJELELSMkClsXZUMjgTa9g1PjeDX/JIamvv5B2DEyhF8dfBeLI2KxOTHT4u1sLelqWeG63k7sLj6DeZPRKvsxNTcLjucsvhTaXqOlC5MSAOu/FS2JEPbtf3h6EoerS8URABqet2kBru7Ykb0KHg7iX3Y1bzTg/UsFqOhsuel/t6C5DiVtjbhb4isZGABxfkHI27oTZxqqcLSmTPC2wzwAvclk8V4P9mpKACgBsLKUwDC42NkLenF9UJYv697xxPJ0ag22pS1FYkCI6PeV43mUtDXgg0sFt/WwM5nN2Ft6AcdryvFg9kqEefhI+sVkdWwyssNjsOfiWdT2dgm6fYPJaPEEQCXh1RyUANiI5VGJgm7vYlsjmiRYI5xI5A2SYbA6NhlrYqVRvrdzdAh/P38MM4b5Bfs7x+dm8OfTBxHu5YuHMlfCSWcn2eNpr9bg0SXrMDA5jl35xwWrn68X4PODkhIASgCsKczTB34uwnU2m5qfw8eXSyjwxCLi/YOxLX2pJIZWJ+Zm8FrBSXSNDllsGy2Dffj3j3djSWQ8NiVmSPqN09vJBT/ccB+qetqxu+SsxUcQrzXxcsEfUiwlAJQAWFFWmLANf/ZVFGFOhIU/5MCWSxG42TtiZ/YqBLp5iH5fjWYzDlddxPmmGsGO+4WmGhS3NuDetCVIDY6Q7LQXhmGQFBCKON8gnKgrx8m6Sotty2Cy/NJkBSUAlABYi51agyT/EMG2V9zWYLOlfol1aJQq3Je+FMmBYaJ/qPE8j7KOZuwtPW+VojdGswnvlJzFidoKPJKzCr4Cjvwt+M1docCGhHTkhMfizaIzaB/uX/gEwCzEJwDqMEkJgJWkh0QK9g3KYDLhWPUlCjpZmDdBXClctSlJGsPaveOjeDX/OMZmp62+L8PTE/jd8Q8R5xeE7enLJL0UzVlnj+/kbkb36DB25R/H5PyspN7OeSoRSgmAtaQGRwi2rbONVQt6cS70w4RIR4SXHx7IXC6J8r0z+nm8XXIGjf3i63BZ29uJnx14W1ITJq8nwM0D/3bHAyhtb8L7l/Jh5rjb/jvVCss/QmglFCUAVuHt5CpYu9NZgx5nG6pEGwthcnBKM277bc/OHg9mrkC4p6/o99XEmXGyrgInaitEvZ88z+NEbQXym2qxLX0ZEgJCJD0/ICM0CsmBodhXXoSS9sbb+vtUAhRUWohEhVACcNPSgsMF21Z+c60gS2rE/WgWw1CfNIcbFSyLLclZyAmPlURxm4b+brxecBIGCfW3mDMa8HrhSfi5uGFHdi68HF0ke29TK1XYlrEMa+NT8XrBCXSNDYt3BICjEQBKAKwgOTBMkO3oTUZcEGi2s8jfTygEtyAnLBZ3JEujvG3/xBhezT+OkZkpyca7d3wULxx5H2khkbgrJQdalUqyv8XFzh7/tGYrGgd68GbhKcwZDTc3AqCgEQBKAGyQn4sb3OwdBdlWcWuDKPt9E3ELcvfCzuxcSTS4mTPo8V5ZPi53t9lM/Mvam1DR2YLNSZlYEhEnicZJ1xPl7Y+8rTtwoakWBy+X3PAKDCGSzptNSgglALctQaClfzzPI7+5lt7Or0SDTrwbYK/W4IHMFYjxDRT9vnI8h/NNtThYWWyTR9fMcdhfUYSTdRWSaZ18PSzDYnlUAjJCo7C39PzXNiFTKhTQqS3fqW9GTy9HlAAILN4vSJDt1Pd3Y1TCw6HSSzKkS8Gy2JSYjqWRCZJ422we7MVrBacwb7T9G/iMfh4vnTuCAFcP7MzOhbsEmipdj06lxiM5qzE0NYFd+cev24rc1c5BkCt2dgHLPxNKAL6Wg0YHX4Fm/xdI4u2fWFu0jz92ZOdCpxJ/b/Q5gx5/OXsYveMjsjtO3WPD+M/De5EdHoM7k7MEmSRnKZ6OzvjBhntxuasd7148B+MXJmwK9Yl0Rk8JACUAAgr38hEks52cm0XjQA8F/FP0CeCLvBxdcGdKFmJ8AqTzBqnW4I6kTOyvLEL/xJgsj1tRSz3K2ptwT+pipAVHSrjtMIPkwFDE+wfheE05TtdXfnqVCjX3ZIbmR1kM1Vi8hjCB1lBf6myxSrlTInAKcgv3fp1KjTuTs/Dsursl9fC/KtLbD8+svQv3pi2RdBW922E0m/HuxfP4j0PvonNkUNpviqwCGxPT8ZM7H/p0noOrveUTAIPJhHlKAGgEQNARAIESgPLOZgq26N54rJtVMAyD1KBwbE7KhKNWJ+23C4ZFdlgMkgJCcaK2HPnNtbJMeMdmZ/DHUwcQ4eWHB7NWwEkr3bbDDlodnly+Ad2jw5jUW75q6cjMFI0LUgIg4Amu0cHLycXi2xmcHEfv+CgF3PKPX8mMAIR7+mJLSragraeFYKfWYEtKNrLDYrC/shgN/d2yPLubB3vx7wd2IzcmGWvjFkm6z32AQB0lR2cm6bZICYCAb/8Cff+v7u2gYBMAV5q1bExMl3QL2hvh5eSCJ5atR11fJ/aVF0m6GNDtJJin6itxvqkG2zOWSaJDozWNTNMKKUoABCTU9//a3k4KtsypFErkxiRhZXSSJLr1LZRY3yBEeQegsKUOR2vKMG80yu7YG80mvFV0GkeqS7EjaxUCBXqjlhpaIk0JgKBC3L0svo2p+Tl0jg5RsGWKAZAYEIo7kjMlUcXPEhQsi6WR8UgKCMXx2nIUtzXIsu3ryPQU/vvkPiT6h+C+9KWwU2voAvmMwclxCgIlAMJgGQaeAjT4aB7spR7XMhXg6oGtKdkI8fCmYABw0tnh3rQlyAqLxr6KIrQPD8gyDlU97aju7cCa2BSsjk2RdNvhhdQ7QfOkKAEQiLuDkyBDsa1D/RRsuT3otHZYG78IWaHRkl0TbunE6Nu5d6Cquw0HKkswPjstuxjwPI/jteXIb6rB9ozliPcPlvU5MTE3S0WAKAEQjo+TqyDbaRnqo2DLCAMGz2+8DxqlioLxlXECkgJCEesbiNKOZuyvKILJLL9WsLNGA14tOAF/V3c8nL1K0mWFb0efDCtJCo3GmT7D29nyCcCMfv66tbWJ7aKH/41TKZTICYvBz7c+jOVRCbKNQ8/YCP7z8F68VXwa8zLsiNdDy6QpAbC1EYDusWEKtJjR1AwRJQIK3JmchX/dfD9CPLxkG4eKzlbk7X8LhS11spo71D1GE6UpARAyAXB2oQRA7mTyeX5oagJ/v3AMfzt7WPT1+l3sHPCd3Dvxndw74KDRyfK0NHMcPrhUgJ8deFsW/UN4AG0ynRAqJJoDcDUTYlh4ODhbfDs99F2LRgCsaM5owOn6SpxrrIaZ4wAAvz/+ETJDo7AhIU3UdftDPLzx/+58EMWt9dhXUfTp/svJ1bbDYR4+eDBrJVzs7G3ydw5MjNEEQEoAhOOo1Qqy9Eaq61pp3rrE8xqex6XOFnxcWYJp/dzn/ozjORS11uNydxvWxi3C4ohYsIw4BwdZhkFOeCxSgyOwr7wIF9sbZXk8W4f78cuD7yA7PAZbkrOgUiht7vcRSgAE4yBA4xWe52VZ/pRYV8tgH/ZXFn1t74lZgx77KopQ2FKPLSlZiBZxF0KNUoXtGcuwJi4FrxecQs+4PD+tXW07fNeiHGSERNnMEtM2WipNCYCgIwACfFscn52R5bImYh3jszM4Ul2Kso6b6zo5ODWOl88fRZxfELakZMPd3lG0v9HN3hH/vHYrGgd68EbhKVnOljeazdhbegHHayuwI3slQtylXWSK53laKk0JgO2NAFBdayIEg8mEs41VOFVfeVsJZ21vJxr6u7E4PBbr4tOgVYl3KWOUtz/ytuzA+aZqHK4qlWXb4fHZafzvqY8R6e2PBzKXS7btcOfoEKbm5+hCpgRAwBEAAS6WiflZCrT43z8kvecLXUnPzHE431SDyq420VcyVLAsVkYnITM0GntKz6GmR54Nt5oGevDvB3ZjRXQi1iekQclKq9FUXV8X3YYoARA6AbD8CMDkHCUAxDK6x4axr7wI7SOWWTo1OT+L98vyUdzaIPpeBnZqDb65eC0Gp8bxav4JWRbe4gGcaahCQUsdtqVLq+0wdUoVDtUB+IQQy5+maViLWCCpfL8sH/99cr/FHv5fTDT+dPpj7C45iwmRJ7Reji74wYb7sCM71+Zmyd8og+lK2+HfHNn7tZNAxUBvMmFwcowubBoBEP6twdLmjHoKNFkQZo5DYUsdjlSXQW8yCv52eamjGVXd7ciNScLK6CRBmmjdCgZASmAYEvyDcbymHKfrK2VZ7HF4ahK/P/4hkgJCcW/aEtG2HdYolbgrdTHeL8uni5wSAOGwAnzXFPpGveB3UhmQwsOhrq8T+8qLrL6k1Gg24VjNJRS3NmBjYjpSgyNEe5ooWQU2JqZjWVQC3ik5i4b+blne5y53t6Gqp13UbYezw2IwODmO80019GCiBMCGEgCjkQJNblnv+Cj2VxSJbonUxNwM3ik5i4ttjdiSkg0/FzfRxtBBo8UTy9ajc3QIrxWckOW8nKtthwta6rAzOxcRXn6i28c7k7MwOjONmt4OuvAt+dyjEFxNACwfCpMMS5eS2zdr0GN/RRH+68RHol4f3TLUhz+c+AjvlJwV/TKuIDdP/NvmB/Bg1kooFQpZnlcz+nn89exh/PnMQUyLrOwuwzB4MGsFfJxd6QZACYBtjADwkv76SMWAhWbmrpTo/c2R93C+qUYSa9t5nkdZRzNeOPLe5/oNiPKMZhikBoXjZ1t2IjssRrbnWetQP35xYDfON1aLqtugRqnCIzmroVWp6WZACYDlbwaEiEV9fzd+d+xDvF+WL8mmKHNGAw5UFuN3xz5Evci/t6uVStybtgT/uvkBBLl7yvJ843gO+z85XuOzM6LZL09HZzyYuYJePygBkP4IAEOnMfkaw9OTeKPwFF45fxSDU+OS/z2DU+N45fxRvHLhmOjX47vY2eO7q7bgWys2iboroiX1T47hVwffQWFrnWj2Kc4vCMujE+nmYAE0CVDAEQC5rkUmX09vMuJcYzVO1VXCxNlev4j6vi40DfQgI0T8bYfDvXzxkzsfQnFbPfaVy6/tMA/gg7ICNPT1YGdOrigqCW5MSEf78AA6RgbpZkEjAAvPYDJZfBtqJSUA5As320++mf/68F4cq7lkkw//q67OaXjh6Psoaq0X9ZwGlmGQExaLvC07kBocIctzs6a3A/95aA/GZqatvi8KlsWDmStE3Y+CEgAJE6JIj4YSAPIZrUP9+MOJfZKYNb+QZvTzeL8sH7899oHo1+NrVWo8mLkCP950PwJcPWR3jk7MzeLXR/aipsf6y/HcHZywJTmbbhyUAFggATBYvo2oTqTVt4jQN9Ur6+b/cuYgesdHZBuHwckrbYd35R8XfadMV3sHfG/NVjy5fAN0MpuVbuY4vFpwAmfqL1t9XzJCoxDjG0g3EUoAFnoEwPIJgFTbc5KFYTSbcLy2HL8+vBdlHc2yLEl7LbW9nfjNkfewv6JI9NUyo7z9kbd1J7akZAkycVhMDlZdxIflhVY/b7elL6WXKUoAFnoEwPKfAIToOEjE6XJ3G1448j6O1VyC0WymgFzjLfN8Uw1eOPIeLnW2iPumyTBYFpmAn27ZgTi/IFkdp4LmWrxReMKq9QKctHa4IymTLhpKABbOrAAJgJOORgDkaHp+Dm8UnsLY7DQF42tMzM1id/EZSXTOtFNr8OiStfj+unvg7uAom2NU1d2Bl84dteokzozQKISKuCU1JQASMy/AJwB3e+neJKiCwa2jEtC2HTMfZ1f8cON2fHPxGmiU8pil3jTYg7+dPWS1JIABcG/aElE2M6IEQIpvaQJUW3PW2Yu2berXoe/VhHz1AynePxh5W3ZgRXSiLBLmlqF+vF54wmolzr2dXLE0Ip5OPkoAbt/I9KTlbxIMAzd7JxoBIMRGKRUK3JGUiZ9s2YEYnwCb/701PZ14t+Sc1ba/Nn4Rza2iBOD2jc5MC1Lxi7pbEWL7HDRaPL5sPf55zV1wsbO36d9a1tGMo9VlVpkYqFGqsDo2hU44SgBuD8dzgkzS8ndxp2CLGM/Txw6ygNe7qzt+vOl+bEtfZtPfq0/UVeCVC8esssIlOywGXo4udLJRAnB7hgX4DODvSgmAmFFXSGKJcyozNAq/uOthLItMsNnf2dDfjfdKzwu+XQXLYnUcjQJQAnC7CYAA3coCXD3oezqNABAZUimU2JKShX+94wGEuHvZ5G+81NmCC001gm83JTAMno7OdJJRAnDrRgQoR2qn1sDLieYBECJXLjp7fGfVnfiHlZttsu3wx5dL0D48IOyDjGGQG5NEJxclALdOqH7l4Z4+FGxCZC7M0wc/ufMh3LUoByxjO7diM8fhreLTglRX/azUoAi42TvSiUUJwK3pHhsWZEVrGCUAhJBP3lyXRMTh53ftREZIpM38rvHZGbxXli/oNhUsi5XRNApACcAtmtHPC1IPINLb36YyfkLI7dEoVdiesRzPb9gGXxtZKny5uw3lAvd1yAiNhDOVXKcE4FZ1jAxafBt2ag2C3T0p2F9gr9FApVBadR+oXr/tGp6eFP0kT09HJzy77h48umQttDZQVnhfRRFmBKiyepWSVWAFjQJQAiDmBAAA9bS+BgeNDr+462FsTEy32j6YqW6/zSrvbMG/f7wbLUN9ot/XOL8g5G3dic1JGZJemjqjn8e+iiJhRwFCIq3+IkEJACUAXynBP5iCfQ0KlsWqmGT8dMsOxPgGUEDIgpqcn8NfzhzCX84cxOT8rOivhZXRScjbskPS94vyzhY0DvQItj2tSo2kgBA62SkBuHn9E6PQm4wW346Xowv8JFQVUOiRUweNFo8vXY9/WrMVzjp7OjHJgmoZ6scvDuzGh+WFMJpNot5XO7UG31i8Bs+tvxeeDtJc676vokjQ0bXM0Gg6ySkBuHkcz6N7dFiQbaUEhkkmLgYr3SQDXT3wr5vvx/0Zy6GgKn1kgRU01+InH72BS53NVutqd6O8nVzwg4334RuL10iuq+jg5DgKW+oE216Ypw+VB6YE4NY0D/YKsp1FQWFgJfJQm5ibsdq2GYZBekgkfnH3I1gaEUcnKFlQJo7D7uKz+M3hveibGBX1vjK48vnw51sflty1cLy2HPNGg2DbywiNopObEoCbV9PbKch2XOwcECWRlqFCJUVfRaVQYuuiHPx48/0IdqNVFGRhDU9P4XfHPsSr+ScwK3ARm5ulVCiwdVEO/nntXVBLZDRg1qDH2cZqwbaXFhxh0w2YKAGwkL6JUYwKUBYYALIk8q2qsLleNAOkrnYO+MfVW/Dd1VvgoNXSCUsW+AWgA3n73sTJukrRrwrxd3HHjzc/AHuNRhKxPd9YLdiyQEetDrG02ooSgFtR19clyHbi/AIlMcnNYDaiX2TDo0Funvh/dzyErYuyqYsfWVA8gCPVpfjpvjdR09sp6tkB9hotnl17jySKi+lNRkFHARIDQulkpgTg1t4CBDkADItlkfGSiMl7pRfEdwIzDJZGxOMXWx9GalAEnbhkwR9Yr+Yfx2+PfSBYr5Bb4aSzwzcWr5ZETAtbagWbCxDrG0ifASgBuHmtQ/2YE+gkzQ6PgU6lFn1MOkeHUNfXKcp906hUeDBrBf5l03b4OrvRCUwW1MDEGH5z5D3sLjmLeaNRlPsY5xeEADcP0cdy3mhESVujINvSqdQI8fCmE5gSgJtj5jg09HcL8/BSqpAdHiOJuLxecBKTc+ItoOJm74hn192Np5ZvlERSRaTlUkczfrLvDeQ314ITYVnhbWlLJRHHC001gsUv3o+KrlECcAuqutsF29aKqERoJFD728Rx+O3xDwSt730rIr398NMtO7AhIR00O4AsJJ7n8VF5IfL2vynYS8KN8nVxl8R9ZGx2WrDYJVACQAnArajt6xTsM4C9RiuZuQCzej1+dfAd9IyPiHo/FSyL1bHJyNu6E/H+QXRCkwU1ZzDg5fNH8T8nD4imiRQD6awsKmqtF2Q7rvYO8LGRDouUAAj5tms2o7KrVbDtLY9OhE4tjeU8BrMZfzj+EfaVF8JkNot6X+3UGnxz8Vo8u+5ueDg40YlNFlTH6CB+dfBdvF+WD4PJ+mWFI7x9JRG3+r4uwQqMxfnRCwAlALegrL1ZsG3pVGqsjVskqfhcaK7FT/a9gUudLaIvperr7IbnN27Do0vWQqWkbmFk4d9o/99Hr6Owpc6qbYdddA6SiBfH86joFOYFK8LTj05QSgBuXvvIAPomxgTb3pKIWMkNVxnNZuwuPoP/OLhHsG6Kt4r55G3g51t3Yo3Eki0ijYfaB5cK8MuD76B7bNgq+6BWqSQTrwqBRlgD3TwlU3adEgCREbKJBcuwuDM5S5JxGpudxv+cOoBdF45jWuSTBJWsAuvjU/HTOx9ClLc/neRkQU3MzeK/TuzD384dwdT8nOBJrlR0jw0LUl9Bq1LB28mFTkxKAG7epY5mQdf+Rnn7Y1FQuGTjVdvXiZ/vfwuHqi7CxIl7foCDVocnl2/A99ffA1d7BzrZyYJqGujBzw+8jY8vl4h+roy1VPcIU3Qt2J3qAVACcAv0JiPKOpoE3ebWlGzYa6Rb554HcLr+MvL2vYXa3k7R76+Pkyv+ZeN2SSde5KtZsyLc2YYq/GTfm6IfGbMGocquB7t7UbApAbjFC7ixChwvXGMQe40WW1KybSJ52pV/HC8e/QD9k2Oi3leGYWiVgA1ztbPuCI/RbBJ9/Qxr6BgZEKT7YpA7dRClBOAWjc1Mo7KrTdBtpgaF28wb6cDkGH579AO8WXgKcwYDnVCEEABXJk42DVi+3binowvsJLLMmhIAETrTUCX4Qre7Uxdb/c1lIVV2tyFv/5s43XBZ0BEVQoh4tQ73W3wbDAB/V3cKNiUAt6Z3fETw79k6lRoPZa20qY5WHM/j0OWL+Nn+t9E40EMnFiEy1zbUL8h2PBycKdiUANy6o9Wlghf5CPHwxh1JmTYXy1mDHi+dO4LfH/8Qw9OTdHIRIlP9k2OYE2AeAM3xoQTgtvRNjAm2bOWzlkbGIyMkyiZj2js+il8f3ot3S86JttUqIcRyeJ5HtwC9RSgBoATgth2pKbPK9+u7Uxcjysd2i9aUdjQhb/+bKGqtt2opVUKIFV4ExgRIABwpAaAE4DYNTo6jqLVB8O2qFAo8sXQ9Niak2WxszRyH98vy8fMDu9E82EcnGyEyIUR3UXd7JyoJTAnA7TtWcwnzRuGXszEMg1WxKcgOi7Hp+E7r5/DXs4fw5zOHMD47QyccITZuQIA6IQqWhbOdPQWbEoDbM6Ofx4m6Cqtt/560JUgKCLH5OLcO9eFXB9/B/spiGKmUKiE2a3h6UpBl1p60EoASgIVwvrEGveOjVtk2A2Bn9ipZNLLhAZxvrMZP972BkrYGmh9Abu2aoaFfUTOYTJiam7X4dhwkXGKdEgAR4XgOH5UXwFqPI4Zh8PiydYj0kkc3O6PZjL2lF/Cfh/eix0qtVm+FkqXLjGJGbsTIjOWXA2upGiAlAAulbXgApW2N1juADIsnl6/HoqAw2cR8dGYKfzixD6+cP4pp/Zzo99dBq8ODWSvhrLOjC+ZrOOnscG/aEjhodRSMWyTl8bFJAUYA7FRqOkkoAVg4+yuLrTpRjWEYPJSVi5XRibKKe31/N36+/20crS6DmRN3WeHUoHD8cOM2rItPhUqhoIvmCxQsi2WR8Xh+w302P8GVfEUCMG/5hF6rpgSAEoAFNG80YG/peatn3puTMnHXohzZve2cqKvAT/a9gYquVlG//agUSqyNW4QfbtyGtOAI0BfpK+L8gvD8hvuwJSUbGqWKAiJjU/OWHwHQqegTACUAC6xxoAel7Y1W348lEXF4bOlam+odcCMMJhPeKjqN3x37AH0To6LeV2edPR7IXIF/XL0FQW7ybVHq5+KOf1i5GY8uWQs3e0e6iSxYVizdjwBCdArV0QgAJQCWsL+iCCMiqGkf6xuEf9m0HW4O8rup9k+M4XfHPsRbxacFqS1+O4LcPPGdVXfi3rQlsJfRzGQ7tQZbU7LxvTVbEebpQzcO8n+JvNkkwAgAJQCUAFjAvNGIN4tOi+J7tLPOHs+vvw8pgWGyPBYVna3I2/82TtZVinp+AMswyA6Lwb9s2o518alQsrY7P+Dqd/4fbdqOpZHxVJGNfDkBMFm+F4iaPjNRAmAp3WPDOFxdKpob7o7sXDyUtVKWN1uO53CkuhS/OPA2Gvq7Rb2vGqUKa+MW4dl1dyPGN9DmjkWktx+eWXsXtqRk0xsYuS4hin1Zo4+LWCkpBAvvXEMVwjx8EOcXJIr9WRQUjjBPH7xy/pjov49bwoxBj5fPH0WAqwcezlkl6u/Nno7OeHzpOtT3d+NARTEGp8YlHXsvRxfcmZKFGJ8AujGQryVEkS8qJEYjAJY9wQDsLjmLoakJ0eyTs84ez667Gw9krrDpYeav0j02jP84tAd7S89DbxJ32+EYnwA8u+5u3JmcJck3Zp1KjU2JGXhm3V308CeiwnGUAFACYGHzRgN25R8XXX/7tOAI/GTLQ4iW8U25pK0RP933JvKba0X9NqBgWSyPSsCPNm3HMol8M2cYBmnBEXh+433IjUmSbbJJRJwAgBIASgAEMDQ1gXdKzoruIaNTqfHEsvV4esVGWc0+/ywzx+Gj8kL8+8F30DbUL+p9tVNrsCUlG99bcxfCPX1Fu5/hnr745zV34YHMFXDQUCU/cvOEKJLFcTQHgBIAgdT0duBAZbEo9y3Cyw8/ufMhbE3JBsvI81SYnJvFn84cxJ/PHBR922E/Fzd8a+UmPLZ0LdxFNI/hal2Dp1dugp+LG1305JYJUQiK5gD8H5oEKIDzTTVwd3DCkog48WWADIOlkfHICI3CR5cKUdrRJMtj1DrUj18efAfZYTG4MzkLaqV4L41Y3yBEeQegsKUOR6rLrDafQaVQIjcmCbnRSVBSeWOyEAmAyvIJAEcJAI0ACO1ARREMJpN4LzylCvdnLsfzG+6Dt7OrbI9TUWs98va/hUsdzaKfH7A0Mh4/2HAfUgUuK8wASAoIxQ823Iu1cYvo4U8WjFaACa+zIi8QRiMANsjH2U3Ub5VXeTo647l196BxoAdvFp7EnNEou2NlNJuwu+QsjlRfws7slQhy9xLtvjrr7PBg5gosi4zHvvIitI8MWHR7Aa4e2JqSjRAPb7qoyYJz1Fq+Y+bU/BwFmkYAhCWWmgA3KsrbHz/dshObEjNkW7FtbHYKfzx1AH87d1j0N40AVw98e9UdeDhnFVzsHBb873fSXmnT+0+rt9DDn1iMkwAJgBRaiNMIgI2JlWB1NwXLIjcmCVlh0dhz8RxqejtleeyaBnrxi493Y2V0EtbFLxLt0rarQ/OxvoE401CFU/WVMN1mZTUFy2JxeCzWxadBq5J2CVUqPCyFEQDLrx6ZphEASgCEPqkDXD0ku/92ag2+uWQt+ifGsCv/OEZnpmR3DHmex+n6SuQ312Bb+jIkB4aJ9oFyte1wRkgUjlSXoqyj+Zb+nkT/EGxOzhTVigNyA+eqhPfdXYAGZvQJ4P/QJwABRHr7g7GBYXQfZ1f8aNM2fHPxGtn2bb/advi3R99H7/iIqPfVxe7K8rxv3eTyPC9HFzyxbD0eWbyaHv5EMGqlEk46e8snAPQJgBIAIYXa0DdTBgzi/YORt3UHVsUky3ZYdWByHL8//hHeLDwl+lnFN1qg52qb3u+vv1vWlSKJdXg6OAtyP6ERgP9DnwAEYIs9z5WsAhsT07EsKgHvlJwVfbc9S6nsbkNVTwfWxS/CyugkKFhx5tRXS/TG+QXhdH0lzjVWf9ommWVYZIZGYUNCmmwrQwqH1qBfj5eTi8W3YeLMtAyQEgDh2Gu08HR0sdnf56DR4oll69E1OoxXC45jcm5Wdsf4StvhMpxrrMb9mcsR5yveFR9Xm/RkhEThQGUxTGYztqRkw0cWtR8Y2gcR83d1t/g2RqYnqRIgJQDCvv3L4ZIPdPPAv21+ACVtjfiwvODTt0s5mTXosevCcfi5uGNndi48HZ1Fu6+ejs54bOk6ukCJaAgxUXpoapIC/Rk0B8DCgtw8ZfNbGYZBVlg0fr71YSwWYdljofSOj+A3R97DuxfPib7tMBEavX1e894BwM/F8iMAw9MTFGxKAITj6yy/5ihqpRJ3L8rBjzffjwAZJUBfVNrehJ/uexNn6i+Lri20mFksaRLFUBx9ArgWH2c36AQoA9w/MUbBpgRAOEJktWLlaueA763egn/I3QwHrTzbw5o5DgerLuKFI++hqLWevj9+zbvx5e42vHj0A8u8J1PoRSvcS5g2173joxTsz6A5ABbkpLMTpLKV2IV5+OD/3fEgCpprcaCyBBwvv/kBk/OzeL8sH8WtDVRL/xq6x4Yt38uAXr7FmwB4Wj4BMHFmDE6NU7ApAaC3f6F9tu3wh5cKbrk6nS086P50+mMkBoTijuRMuFqgbr+kEqO5WRyvLUdxW4NMRkdoGOLL9wYW4QIslR6YHJfl5GRKAKzES8SzwK1Fo1ThgcwVWBOXglcvnMCADDPyq0PddX1dyI1JwsroJKhk1lLXzHEobKnDkeoymU2UpGGILwr19IZOrbH4djpGBinYlAAIx43KqF6Xh4MznttwLxoHevBG4UlZTpIzmk04VnMJxa0N2JiYjtTgCFk8Hur6OvFReZEse0qQLxOqbkb78AAFmxIASgDE5Erb4R04WVeBk7UVshwgnZibwTslZ1HS1oCtKTk3VbdfSnrHR7G/oggtQ3038E/zNvq2TJ8AvpQACNQq3aLzSygBIF8kRCOV6p4OqJVKRHn7S/ckZBVYH5+GZZEJePfiOdTKtO1w61A//nDiI6QGhWNzUqbNTCCdNehxorYc+c214GgVBPmMAFcPeDg4WXw747MzGJuZpoBTAiAMBoCrAAnA4NQ4DleVIszTFzuyVsJJZyfZmNmpNXh0yVr0jI3g9cITGJXhBcvzPMo6mlHb24ncmGQsi4qHkpXm/AAzxyG/uRYnassxZzTQTYF8SWpwhCDbaRrsoWBfA9UBsBCdWiPIxK6rWW3rUB9+8fFufHipAEazWdKx83d1x482bseDmStkNznuqjmjAYeqLuJ3xz5EXZ/0RkTq+7vxu2Mf4kBl8a09/C0wUEDT70T28GFYpASGCZMADPRSwGkEQDhf1XZ1IX1xIlVBSx0utjfh3rTFSA2KAMNI87bHMAxSgyOQFBCKozVlONtQJcuvp0NTEzhUVYZgd2/YCTBT+nbNG414v+wCKrpaRfe0po8P4hLrGyjIZy6eEgBKAIQmVFvVa82kNppNeKfkHI7WXMIj2asR4OYh3RNUocDmpEwsjUzAW0Wn0TbcL5tz6OqSyXj/YNG/vXI8j+LWeuyvKIaJE+cIFI0AiMviiFhBttM9OoRp/RwFnBIAIRMAy7+t8TyP8dmZ6/752Mw0/uvkPkR5++OBzOVw1Ep3foCzzg7fzt0sm7bDq2NTsDZuERSs+L/SdYwM4vXCkwt7TGx1EYAQJDDU4eHghEgvP0G2Vd3TQecEJQACJwBqy48AzBr0N/S21TjQg18c2I218alYFZMsiYfK9QS6eeBfNz+AopY67K8strnKXvF+wdiesUwSw/0Tc7N4s+gUra8mN21JRJxgnydreikBoARAYFoBOlsZzKabeik4VnMJZxsu44HMlUjwD5ZsbFmGweKIOKSHROGjikJcbGuU/PniaueARxavFqQn+u0ymk34+PJFFDTX0oVObv7lSKNFVli0INsamprAwOQ4BZ0SAGEpFJZ/yzaYTDf97+hNJrxWcAI+zq7Ymb0K3k4uko2xWqnE9vRlWBu7CG8Wn0LnyJD0LkCWxbaMZVgUFA5G5GPePHiUd7bivdLzkl9pYsvE/gVgWWQCVAphHj23PRmVEgByazd2yy9fM5pNt/zv9k+M4cWj7yM5MAz3pi0RpBe3xd6e7R3w3VVb0DLUhzcKT2FGPy+J/V4cEYc7kjIEuxnejt7xEbxecBIjVL6X3AatSi3Y5D8AKO9soaBTAmCFEQBWnCMAX1TZ1Yqq7nZsTsrA0sh4sIx0Z16Fe/riJ3c+hPzmWnxcWSzaqnOhHt7YkZ0LZ5296GM6o5/HuxfPoa6viy5qcttyY5IEe9noGh3C0NQEBZ0SANtMAG5nBOCzOJ7DgcpinKyvxI6slZIuK8wyDJZFxiMzJAoflBfgkojaDjtqddiRnStI7/PbZeLMOF1/Gcdry2XSppdYmpPODssi4wXbnlxbjlMCIAJCfM81LfAM+Fn9PF46dwSBbp54OHsVXO2l26teo1LhwcwVWB2TjNcKTmLQim2HGYbBXYuykRMWK/rCTDyA2p4O7C45a4NteuWyrlCcCdv6+DTBPncZzWZcouF/SgCsRYjlaZYqk9s1OoRfHXoXOeExuDM5SxLfqK/Hy8kFP7Bi2+Gs0GhsScmGWin+GA5PT2BX/gkM2uysaRrJsJaUwDBkhkYJtr3KrlbMGfQUeEoArEOIamgapcqif39hSz1K2hqxJSUbOWExki0rDPxf2+Ez9VU4VnvJ4sPaPs6ueDhnFbwcXUQfm3mjAe9fKkCFzb8xUWUha7BTa7AlJVvQbRa21FHgKQGgBGAhRjI+vFSA0/WXsTM7F8HuXtI92VkF1sSlYHFELN4pOWuRiW1alRo7s3MR7RMg+nhwPP/JhMkScDxHFy2xiDuShW1t3TU6hM7RIQo8JQDWYzZb/oYqRAJw1fjsNP7n1AGEe/riIRtoO/zY0nXomxjFawUnMTI9uSDvlusSUpEbLY1Ki1JbMkmkKdzTF+khUYJu82xjFQWeEgDrMpgt/63ZGt+VWz5pO7w8KgEbE9Ml26seAHyd3fDDDfehrLMZ75flw3SLxW0SA0KxLW0JdBIo3zs6M4U3i06ha3RYdtckfQAQlkqhwH3pSwWN+9jsNKq6qfQvJQBWNqO3/AQUjUpltd93rrEaRS312J6xDEmBYZK9uTIMg/TgSCQHhOFQ1UVcaKq54X/Xy8kFD2evgo+zq/gTUpMJ+yuLUNzaQBcnEcTmpEx4ODgJus3zjdX0OYsSADEkAJYfWlWyCjhqdZiat06rS4PZhDeLTsOzpgwP56yGr7ObpN9WtqZkY2V04idth6/f4EatVOLBzBWI9w+RTJvefRVFNtc4iYhXcmAolkTECbrNqfk5FFGCSwmAKBIAgzDfVt3sHa2WAFw1NDWJ3x37EHG+QdiesQz2Gq1kj5uzzh7fzr0DXaPD2JV/HFPzn29xuyY2BWsk0qZXLq2Tibh4ODjhvrRlgm/3bEPVghVHowSAiH4EAADcHZzQMTIoit9c29eJnx14GxsS0rAyOhEsI+22w/92xwMoaWvAvvIihHn64IHM5XDUin/y47R+Hu+UnEVDfzddiERQKoUCD+esglbgz5NT83MooKV/lACIJwHQg+M5iz8E3e0dRfW7eZ7H4apSnG2ows7sXERKvKxwdlgM0oMjoVSIf7Kj0WzG4epSXGisppI3xCruTVsKPxd3wbd7sq6C3v4pARAPjucwPjsDNws/oN0FnmRzo2YNevzt3BEEuLrjwaxceDk6S/ciEfnD37bL9xKpWB6VgLTgCMG3Ozw9iaLWejoAlACIy8jMlAAJgKOoY9A9NoIXjryHjNAobE3JFrR2gRz0T47h1fzjGJmmNr3EehYFheOOpEyrbPtwVSlNcKUEQHxGp6cACxfO83V2A8uwol/6crGtEWXtzbgjOQNLIqTddlgMZg167Ll4HjW9tOaZWFeMTwDuz1hulVLh7SMDqOpuo4NACYAIE4AZy7+VaZQq+Di7oHd8VPTx4HgO+yuKPykrvAphnj50ktx0DHnkN9d8Ur6XvvSTLxPyrAh088TOnFVWWRXD8Tw+ulRI810oARCn4QUoMXsjgt29JJEAXDU1P4c/nzmIUA9v7MjOhbPOnk6WG1Df1423i09hzkjf+W8JDTotKG8nFzyxbL3VPuvlN9eiZ3yEDsRtYCkEltMr0MkZ7O4tyfi0DQ/g3z9+B/sri265DK8cjM1M479O7MMrF47Sw5+IQoCrB761chPsrFT+emp+DsdqLtGBoBEA8RqZnsS80WjxNbFS7tAHAOcba1DQXIe7UxcjMyRK0m2HF5LBZMKHFYUobWukYBDRCPfyxaNL1lp1Qu/+iiLMGw10MCgBEC8eQP/kKEIs/Ibu4eBk1ZLAC8HMcXiv9AJO1VXi4ZxVCHD1kO15w/E8Stoa8FF5Ic1uJqIS5xeEndmroLLi0tja3k5UdLXSwaAEQPx6xy2fAABApJcfLnW2SD5eozNT+K8T+xDn90lZYbVWVudL23A/Xi84iWkZt+l11tkDNAokOmnBEdiescyqFT5n9PN4r+wCHQxKAKShe0yYtqsJ/iE2kQB8Nsv/2b63sDYuFatikyVRe/92jM/N4M3CU6Ip62wNCpbFluQs5ITH2ux8PSku3GAZFhsT07AiOsnqx+WDSwWSHumkBEBm2r+iq9xCivENgEqhtKlymDyAY7WXcKaxCg9mrkCCf7DNnR8msxnHa8txqr5S1teJXApFSW1gw16jxY6sXER6+1l9X8o7W3CZ1vxTAiAlQ1MTmJybhZPOsk1kVAolorz9bbIwjMFkxGsFJ+Dj5Iod2bnwcXa1gTdBHpXdbXj34jlZr4Dwd/HAwzm5oi1pLecRgFAPH+zMyYWTCBpgjc1M48PyQnqgUAIgwVGAkQEkBYRafDsJ/sE2XRmuf3IMvz32AdKCI3DXosWCdxxbKH0To3it4ISsy/faqzV4IHMFYnwD6QYhtlEKAMujErEpKV0UHT1NnBlvFJ3CnEFPB4cSAOlpHeoXJAGI8wuCgmVtfuZ4WUczLnW24M7kTEmVFaY2vVe+J29ISMOK6ATBHy5iOEsEOVVvY5jB3d4R96YvRaSXn2jOmf0VxegaHaIHCSUA0tQ82CvIduzUGsT5BqGqp93mY8rzPPZXFONUXSV25qxCuKevaPfVxJlxoubKd345ly1NDgzDvWlLoFOp6aYgwsRsSUQsNiSkQ60Uz2OhsqsVhS11dIAoAZCugclxDE9PwkOA75w5EbGySAA++1b9lzOHrtQkz861ePfFm0pSANT3deHtotOYl3GbXm8nFzyUtdIqfeLFl7iKb5/8Xd2xLX0Z/EV2fHrHR7G3lJb8UQJgA+r7urA0Mt7i24n08oO3kysGJsdkFd+u0SH8x6E9yAmPwR3JWVArrHtqj0xP4tX8E+iX2XH4LLVSiW3py5AcGEZl+EXIUavDmtgUZIfHiOJb/2dNzs9iV/4x6E1U+poSABtQJ1ACAADZYdHYV1EkyzgXttSjpK3RamWF540GvFd2AZVd8l2uxABYGZOEdfGpULIKuvg/GxsRZEIapQqLI2KxKiZFlBNpjWYzXss/gfHZGTphKAGwDa1D/dCbjIKsc04PicTh6lIYTCZZxvpqWeETteV4JGc1At08Lb5NjudwrrEah6pKwcu4TW+cbyC2ZyyHvUZ8FRxNIpgca81TQ61UYmlEPFZGJ0JnpSY+Xx8fHruLz6CTJv1RAmBLTJwZdX1dSAkMs/i2tCo1UoMiUNRaL+uYj8/O4L9P7keMTwAeyFxhsYdSy1AfXi84iVkZL1Nys3fEI4tXi+478meJoYIcK0BFyy/mGE46O2SHxSA7LAaOWp2oz6N9FUWymsNECYCMXOpoESQBAIBVMcm42N5IzWQA1Pd3I2//W1gVk4x18akLVlZ4dGYKbxSeEqzcsxipFArcnboY6cGRou/i2Dlq/TLLKkE+iVxJAQJcPbA0Mh4pgWGSKKV9uLoU+c219KCgBMA2NQ50Y0Y/L8jwqKu9A7LCYlBAF9SnTtVXIr+5Bg9krkS8f/AtT0wzmE3YX1GMYhmPsDAAlkYlYGNCulU7w92Mhr4uq++DQmH5B7G9Rotn1t4NPxc3yZxPp+sv41SdvMthUwJg48wch8ruNiwOjxVke6tjk3GxrdGm+gPcLr3JhNcKTsDbyQUP56yGt5PLDf+7HM+huLUB+yqKZD2yEubpg4eycuGss5PMPo/PzWDOaP0Z5QrG8smSg0YHB41OMsemoLkWh6ou0s2JEgDbV97RIlgC4KS1w5KIOJxpuEyB/4KByXG8ePR9BLt7YXNSBgLdPK87Y31qfg6VXa04XFUKg4yTKQeNFjuycxEhoipxN+pCU404brgKli6+zz78W+rwkUxXLFECIEMdIwMYmBy/qTfP25Ebk4Si1nrMGw0U/Gsej0H86fRBAICLnQPCPX3gpLODwWTC4OQE2ob7YeLMso6RgmWxNSUbWWExkim7/FnzRgPONVSJJpbkitP1l+nNnxIAeeE/yXrvXpQjyPbs1BqkBUfQ5JobMD47jbKOZgrEZ2SERmNrSpak2/S+WXRaFCWYGQAKhhIAADhUVYrT9fTN39robLSCsvYmzAv4PXJdfKoo12UT8fJ3dcePNm7D9vSlkn74n2+qEU3zJUednehXSlgax3N4vyyfHv6UAMiX3mREeadwb5p2ag02JKRR4MkNnStPLtuAf15zF9wF6F1hSSVtjdgvou/LHhKP50Lc917NPyn7+iRiQp8ArKSgpQ7Z4bGC1UjPCo1GWXsz2kcGKPjky28CDIMNielYEZkgSLEaS79lHqgowYXmGlHtV4Crh2zPr4m5Wey6cAw94yN0sVECQPonxlDf14lY3yBBtscwDO7PXI7fH/9QtiWCybUlBYTivrQloi0PezM6RwbxasEJUVT9+yJfZzdZnl+do0N4Nf+4KI8JJQDEak7UVgiWAABXhiA3J2bgw/JCCj6Bl6MzduassokH09T8HHYXn0HTYK9o99HT0Vl251hRaz0+Ki+kiqSUAJBrZcZNg72IFHBddU5EHGr7ukQzMYoIT6VQ4v6M5UgKDJV8m14TZ8bRmks4Uy/+Wheu9g6yOccMJhPeK7uA8s4WuuAoASDXc6quUtAEgAHwUNZK/OH4RxibnaYDICMMgKWR8diYmCGZ8r3XwwOo7+vCG4WnJFHpUsGycJRQdb7bMTg5jtcLT2FgcowuOkoAyFdpHuxF61A/wjx9BNumnVqDh7JX4i9nDtHQnExEefvjwawVkioRez294yN4reAkRmemJLPPfi7uNr8EkAdQ3FqPA5XFNM+IEgByow5eLsE/rt4i6HBsiLs37kjKxD4qw2nTXOzssSM7FyHu3pL/LbMGPd69eA61vZ2S2/d4v2CbPs/GZ6fx7sXzaBbxHAxCCYAodY4O4XJXG5IDQwXd7tLIeAxNTaCgpY4Ogo1RsCy2pGQjJyxG8m+eZo7D2cYqHKkqFUVFv1sR6e1rs2/9pW2N2F9ZTOXGKQEgt+pQ1UXE+wddtyGNpWxdlI3h6Uk0DvTQQbAR2WExuDM5C2ql9C/v5sFevFZwUvIPF28nV5s7z4amJvBheQGaBuitnxIAcltGZ6ZQ1FKPpZHxgm6XZVg8nLMKfz5zCL1UpEPSgt29sDN7FVzs7CX/WwanxvF6gW1MJHPW2Um6nPIXGUwmnKgrx7nGappDRAkAWSjHasuREhQm+EQtrUqNp5ZvwJ/OHMTg5DgdCImx12jxUNZKRHn7S/636I1GfFheYFNNmTJDo23id/A8j/LOFhyuLsM4rSCiBIAsrDmDHocul2J7xjKrPESeXLYe/3v6IF3cEsEyLDYlpmNZVDxYRurle3kUNNdif2UxeJ63qeOUEhgm+d/QNNCLg1Ul6BmjUUJKAIjFlLY3Ij0kUtBlgVe52DngO7mb8ZezhzEyPUkHQ8RSgyJwd2oOtCq15H9Ly1AfXi84hVnDvM0dJ41SJekKgF2jQzhcXUrf+SkBIELgAXxUXoDvrbkLCis0ZXGxc8C3VmzC384dxtDUBB0QkfF1dsWO7FXwdnKR/G8Zm53Gm4Wn0Dk6ZLPHKykwRJKrMNqHB3C64TLqejvB02VHCQARTt/EGE7UVWB9fKpVtu9iZ49vrdyEv5+n7l1ioVWqsD1zORL9QyT/WwwmEw5UFsuiLWxWaIykXj7q+7pwqq6SuoZSAkCs6VRdJeL9gqzWQtRJa4dv596BN4tOoa6viw6IlTAMg3XxqciNTrLKiNCCPmB4Hpc6m7G39IJsZo9L4ZjNGvQobW9CYUsdhunTHyUAxPo4nsPe0gv47uo7Ba8NcJVaqcQ3l6zBh5cKZfG2JjYxPgG4P3MFHDRayf+WrrFhvHrhOCbnZ2Vz/By1Ovi5iLfTYufoEIpa6lHR1QKj2UwXHCUAREx6x0dwpKoMdyRnWm0fWIbFvWlLEOLhjffLLtCNQgCudo54OGcVAt08JP9bpubn8HbxaTQP9snuOGaGRotudcbY7DQqOltxsb2R5vgQSgDE7lxjFaJ8/K2+xjstOAIeDk54o/AkJuZm6cBYgEqhxL1pi5EaFCH58r0mzoxjNZdwWgJtei2BAZAREimKfRmamkBtXycqu9rQZcMTLgklADaHB/BOyVk8s/ZuOGqt28kt2N0Lz667B3tLz6O6p4MOzgI+LFZEJ2F9QqrVPvcs2PnK86joasXei+dh5OQ7WhTlEwB3ByerbNvMcWgd6kddXyfq+rrouz6hBEDKpubn8FbRaTy1YoPVhxTt1Bp8Y/EaFLXWY39FsSR6sYtZuJcvHspaCSetneR/S//EGF4rOEEPHAAroxMF25bRZELP+AjahgfQPjKA1qE+zBuNdHERSgBsRctQHw5VleKOpExR7E92WAyivP3xflk+NRK6BU46O+zMzkWoh4/kf8usQY89F8+jppdGhQDA38UdEV5+gmxrYm4Gvzq4BxxPNfkJJQA27VxDFYLcPJEUECqK/XGzd8QTyzegtK0RH18uwaxBTwfp6y44VoG7FuUgMzTKJtr0nqqvwPGacioW89m3/5gkwbZV3tlCD39CCYAcXJkPcA5u9o5Wqw/wRQyAjNAoxPsH41jNJRS21NMN6TpxWhwRj02J6TbRpremtwO7i89Ab6JPQJ/l7eSKZAET9PLOVgo6oQRALoxmE3ZdOI7vrt4iqravdmoN7lqUg5zwGBy8XIq6vk46WJ9YFBSOrSnZsLeB9fyDk+N4vfAkBqhr5DWti18k2MjOwOQ4tfAmlADIzeT8LHblH8c/rNwMrUpcfca9nVzx2NK16BgZxNHqMjQNyreJSJxfEO5etFhUidqtmjca8F5ZPiq76I3zevxd3ZEo4Nt/aXsTBZ1QAiBHveMjeLXgOJ5Yuh5KhfiWjgW7e+GpFRvRPjyAs41VqOnttLk2r9fCMAxSg8KxPiENrnYOkv89HM/hQlMtDl4uAcfTl/6vsiU5G0LN6jBzHMo6KAEglADIVstgH94uPoOdOavAinRCWYiHN0I8vDE0NYHzTTUo72y2ySVKOpUaa+JSkBUWA41SZRvn11AfXi84SZM7b0BSQKigLbxrezsxNT9HgSeUAMhZVU873iu7gG1pS0U9q9zT0Rn3pC7GHUmZKO9qQUlrg+TbwDIMgyhvf6yNW4Qgd08wYGzinBqdmcKbhafQNTZMF9gNUCmUgi/PLW5roMCT208AWICjgT1pu9jWCJZhcG/aUtE/gtRKJbJCo5EVGo3h6UlUdLWiorMVA5Njkog1yzAI9/TFssh4RHj7Q6VQ2Mx5JKc2vQtpXXwqXO2F+9wzNDWBxv5uCjy5/QSABwwUBukrbm0AAwb3pC2RzHuoh4MT1sSmYE1sCoanJ1HX14X6vi60DvXDJKIysq72Doj3DcKi4AgEuLiDlXhb3i/ieR7FbQ34qLxQNm16F4q/qzuWR8ULus1zjdVUd4EsTAIA8AbYyNCl3BW11sPMcbgvfalo5wR8VTKwLDIeyyLjYTKb0Tk6hNbhfrQPD6B7bBgz+nnB3vAD3TwR7xeECC8/+Di7QqWw3S9l7SMDeKPwFCapwdNNU7AstqcvE7Q894x+nib/kYVMABia4WNDLrY3Yt5owEPZKyXbWEapUCDM0+dzk6om5mbROz6MgclxDE9PYnh6EiPTU5ien7vl0QKtSgUnnT3c7R3h5egCD0cn+Dq7Idjdy+bPk4m5WbxdfBqtQ/100dyiDQlp8HNxF3Sb+c211JKb0AgAub6qnnb8/cIxfGPxGpuZke6ss4OzLgixvkFf+rNZgx5T83OYNxpgMJkwbzJ8acmhglVAo1RCq1JDq1LDWWdn02/212M0m3GkuhTnGqvpQrkNYZ4+WB6VKOg2541GXGiupeCThUsAeDAGevzbnqaBXvzvqQN4bOk6uNjAevSvYqfWwE6toYP+FXjwuNzVhncunoOJ3iBvi4NGh4eycgX/zJbfXIs5WpJJFnYEALSY1Eb1TYzhj6cO4NEla0XTO4BY4zwYxesFJ6lN7wJgGRY7s3PhrBO2fbPeZMT5Jhq1IQucADDAKIXBdk3OzeIvZw7h/szlSPQPoYDIyIx+Hu9ePIe6vi4KxgLZlJSOcC9fwbd7tqFKsImwREYJAM8zIwxDi0psmd5kxBsFJ7EyJgkbEtIlt0KA3Bwzx+FcYzUOV5fKovyyUFICwwT/7g8A0/o5mrNBLJMAgOGGaRKg7eMBnK6/jN7xUTyQuRwOGh0FxQbV9nbi7eIz0JuMFIwFFObpg/szl1vlTnmsppyOJ7FMAsDy7AhPIwCy0dDfjd8e/RDb0pcizi+IAmIjhqYm8FrBCWrTawHeTq745pK1VllWOzA5huJWKvtLLDYCwAyD6krJyrR+DrvyjyMtOAL3pC6BWkktIaTKYDLig/JClFFrWItwd3DCU8s3QKdSW2X7H5YXguOpOiOx1AgAaxo2cyxFQobKOprRNTqMB7NW0CoBieF4HgXNtThQWUIPCAtx1tnhqeUb4CTwjP+rKrta0TLYRweCWC4B4FWKTuhpBECuBqfG8T+nDmBdfCpWRifRBEEJaBzowVvFZzBLs8ItxsXOHk8t3wg3e0erbH/OaMCBymI6EMSiGAB4bs/LIwDcKBzy5ufijrsW5SDUw5uCIULjszN4s+gkOkaGKBgW5GbviKdWbIS7lR7+APDuxXMopc86xIJ4oOSTj798O8BQAiBzveMj+PPpj5EYEIo7k7PgYmdPQREBvcmIw1WlyKcysBbn6+yKJ5ZvgJPWzmr7UNvbSQ9/IohPEgCmDUAqhYPwAC53t6G+vwsro5OwKiYZCpbmiFjlWPA8yjqa8X5ZvqjaI9uqKG9/PJyzGlqV9fpnzBr0eL8snw4GES4BYHimnZYCks8ymEw4VnMJlV2t2JKSjShvfwqKgAYmx/DXs4cxNU+VuoWQFRqNu1MXWz3Z/ai8EJPz1JqZCEMBAEu23RkJhtlE4SBfNKOfx6WOZjQN9MJRq4WnozMFRQB2ai2MZjNah6ldryWxDIuNienYnJRh9QmwNb0dOFJdRgeFCKVHAQCLt29xBJhvUDzI9YzPzaC8sxWNAz1w1Org4ehM9SMtiGEYhHv6IsDVAw393dQD3gKcdXZ4Ytl6pASFWX1fpubn8PL5ozCaTXRgiLAJQM7dd0wxLPs8xYN8nYlPEoGa3k7YazTwcnKlRMCCPB2dsSgoHF2jQxifm6GALJBonwA8vmw9vJxcrL4vZo7DrvzjGKQqjkTgBODTe/dze17uBeBLMSE3w9fZFdlhMUgNjoDWStXS5MDMcThWcwlnG6tg5qjwz61SKZS4MzkLOeExotmnDy8VoKCljg4OERQPlHxa3Hrxtq1rAURQWMjNmNbPo76/G+ebatA3Pgo7tQbuDo4UmAXGMgwivf0Q7x+C3vERTNBowE0L9fDBY8vWIsYnQDT7VNbRjMPVpXRwiFVGAP4vAdi+JRnAYooJuRUcz2NgchxlHc2o6e0AcGX4WqlQUHAWkKNWh4yQKNhrtGgfGYCJRgO+lp1ag7sXLcbWRTlw0GhFs19do0N4rfAkOGrZTKydAORs2+LDAHdTTMjtmpqfQ11fF842VKFpoAd6kxHOdg5WXV9tSxiGQZCbJ9KCIzE2O40h+nZ8TSzDIic8Bt9YsgYhHt6imqsyNT+Hv549jDmDng4UsVoC8Ok18fyeV6I58PUUE2Ip3k6uSA4MRXJAqCgmX9mKrtEhHK25hIb+bgrGJ6J9AnBHUiZ8nF1Ft28msxl/O3cEbbTEk1gRD5T8X1LM88xze18ZAOBJoSGW5unojFAPb4R6+CDY3YvqCyyAjpFBHK0uQ9Ngr2xjEOrhjfXxaQj3Eud8Zo7n8VbRaVzubqMTlogoAQDw3J6X9wO4k0JDhOag0SHEwwshHt4IcfeGj7MrNEpxfDKYNxrQOz6K3vFRhHh4ib51cvNgL07VV6J5oBdy+LrMAIjxDcLK6ESEefqI+YaLd0vOoqyjmS54IooEQPmF/yUfDCUARHjT+jlU93Sguqfj0//NSWcHT0dneDo4w9PRGV6OzvBwdIabvQNYZmFLthrNZkzMzWB8dhpDU5MYnp7A0NQEBifHMTIz9ek/p1Io8eTy9Qj1EO+DJsLLDxFefhiamkBRaz1K25swa4PfmtVKJVICw7A8KhHeEviktL+iiB7+RHTJ86e+v+eVpQz48xQWIvaT1kGrg71GC0eNDjq1Bjq1GhqlCmqlCmqF8kv/Dsdz0JuM4HkeswY95gwGzBr1mNXPY2Ju9qYekFqVGk+v2Cj6kYDPJjeVXa0obKlD56j0WwkHuHogMzQai4LCJTOx9FjNJRyvLaeLl4hqBOBzCUDerl3aaXvzOAANhYeQ67PXaPEPKzdL4s3zs0ZmplDT04Ga3g60Dw9IZgmat5MLkgPDJDmB9HxTDfZXFNFFQ8SdAADAc3teOQnwqyg8hHw1R60OTy7fAF9nN0nu/4x+HrV9najt7UTLUL+olqQpFQqEefgg2icAMb4B8HJ0kWSMzzVW4+PKYtBKfyKVBOAHAP8bCg8hX89OrcETy9Yj0M1T6jcDDE2Oo3N0CB0jg+gYGcTA5JhgIwR2ag2C3DwR7OGNMA8fBLp5QiXhIlI8gCNVpThVX0kXCZFQAvDOywlgUUXhIeTGaJQqPLZ0nahnoN8KvcmIwclxjM5MY3Rm6nP/mZqfg95kvLm3elYBFzt7uNk7ws3eEe4OjvBxdoOvsyucdfY2EzeO5/HBpXwUtzbQxUGklQBcGQV4uQNAEIWIkBujUijxcE4uYn3lddnoTUaYzGbMm4wwmIyYmp/DvNEArUoNBgy0KhXsNVrYa7SiWdZpSSbOjLeLzqCqp50uCiL6BEB5zT9hcBQ8nqQQEXJjjGYTXs0/gQ0J6ciNSZLN79YoVdAorzzkAcBXxvWc9CYjXi84icaBHrogiCRcezE1zxym0BBycziex6Gqi/iovJAavMjMyMwU/nT6Y3r4E0m55giAwwx7eNrePAnAiUJEyM3Jb67F6MwUdmTnymLYW+7q+7rwdslZauxDJOe6DbJ+sPeVt3mef5BCRMit8XR0xsM5q+ErwoY05PbxAM7UX8bh6lLwNOJDpHf+lrDX/0PuXQoRIbduaGoCfzy5DyVtjRQMGzNvNOL1ghM4VHWRHv5Esq6bAOjt544AmKAQEXLrjGYz9paexweX8mHizBQQG9A7Por/OvHR5/pWECJFzFf94XN7Xn4dwMMUJkJun7eTKx7MXAF/V3cKhgRxPIezDdU4VnOJkjkieTxQ8pWltpZs2zIHYCeFipDbN6Of//RzQKiHDxiGoaBIxMDkGHbln0BZRxOt8CC2oucrE4B18amtBk+nbwJwoVgRshBZN4+WoT40DfQg1MPn0/XzRLxv/SfrK/F28RmMz85QQIh8EoAzZ87wi++70wUMs5JiRcjCmZibQVFrPQxmE0I9fMCyLAVFZPonxvD3C8dR3tlCE/2ITSYAXzsG+fz7LwVwZqYdgILiRcjCc7d3xF2pixHjE0DBEIFZgx5nGi7jfGMNfesnNuu6vQC+6Lk9Lx8CsJFCRojlJAWEYlNiOtwdqP6WNZg5Dheaa3CyrpKK+hBZJADKG/oHefyNYSgBIMSSLne3oaa3AxkhUVgXnwpHrY6CIpC6vk7sryjG8PQkBYPIxg2NAGzbs0cRgslGHgijkBFieRqlCiujE7EsKoHKCVtQ+/AADlVdRNvwAAWDyG4E4IbXIT2395V/Bs//nsJGiHC0KhVywmOxMjoJdmoNBWRhbnxoHujFheYa1PZ2UkAIJQBfmwC8/ro9tIZOAG4UOkKEHxHIDI3CiugkOOvsKCC3wMxxqOhqxen6yxiYHKOAEEoAbuZfeG7vy/8JHj+k0BFiHUpWgaSAEORExCLE3ZsCcgPmjUaUtDXgfFM1reUn5FYTgOd3v+LHKfg2AGoKHyHW5efihpzwWCwKCqd5Al+8ufE8mgZ7UdbehKqeDhjNJgoKIbeTAADAc+++8ncw/KMUPkLEQaVQINLbH2nBEYj3C4ZCxkWFhqYmUNHVitL2JozOTNHJQchCJgA/2r0rxKQwN9AoACHiY6/RIjkgFEkBoQj19AbL2H4yMDY7jdreTpR3tqBjZJBOAkIslQAAwA/2vPJXHvxTFEJCxEunUiPKxx+xvkGI8Qmwmb4DHM+hc2QIDf3dqO3rRO/4KB1sQoRKAJ7d/fdAVsE1AaB1SYRIAMsw8HVxQ5iHD0I9fRDq4Q0HjTQKDZk5Dj3jI+gYGUTTQC9ah/qgNxnpoBJijQQAAJ7b8/IfAfwjhZEQafJydEGgmwd8nd3g6+IGX2c3q1cfNHMcBibH0Dcxht7xEXSODqF7bBgmM9XkJ2ShEwDlrf7LJoX5V0qz4jEAtCiZEAkanBrH4NT45/43R60Ono7OcLN3hLu9I9w++Y+znT3s1JrbXm3A8Tym9XOYnJvF5NwsxmenMTIzheHpSQxPT2JkehJmjqODQ4gAmNv5l59796U8MMxPKYyEyINSoYC9WgM7tRZ2Gg1Y5sotRKtSg/nM7YTnecybDOB5YN5owJxBjzmjAfNGAzhqrUuItEcAAMDMOP9agclvAgimcBJi+0xmMybmZjExN0vBIETibmuN0O+3b58D8GMKIyGEECKjBAAAXtz2+G4AFyiUhBBCiIwSADAMzwLfB0AzdwghhBDZJAAAfrP9iRIAf6VwEkIIITJKAABAb9D+CEAXhZQQQgiRUQLwx507Jxme/xaFlBBCCJFRAgAAL9z/5CEw/B4KKyGEECKjBAAAjEb8EwDqzkEIIYTIKQH4r4eeHOAZ/kkKLSGEECKjBAAAfrvtyQ944FUKLyGEECKjBAAAmHn1PwJopBATQgghMkoAXnzkkRmWZXYAoMbdhBBCiFwSAAD4zX2Pl/IMfk5hJoQQQmSUAACAY033rwAcpFATQggh4sEIsZF//nCXi9JovggggkJOCCGEWBcPlLBCbOgPdz86bobiHgAzFHZCCCHE+lihNvT77Y9W8TzVByCEEEJklQAAwG/vf3I3GLxIYSeEEEJklAAAgENN9w8BfEChJ4QQQqyHscZGn9mzR6fA5EkAOXQICCGEEGEJNgnwi36/ffscbzJvAdBEh4EQQggRHmutDf/2oaeHeda8BcAIHQZCCCFEJgkAAPz2vqfrGXBrAIzToSCEEEJkkgAAwAvbn6rgGG4zgGk6HIQQQohMEgAA+N22pwrAs3cDmKdDQgghhMgkAQCAF+9/7AQH5n5Q90BCCCFEPgkAAPxu++P7GYa7h0YCCCGEEBklAADwwranPmZ5ZhNoTgAhhBAinwQAAH5z/+OnGYbfBGCSDhEhhBAikwTgykjAk+d58KtAdQIIIYQQ+SQAAPDb7U+WgcNKAJ10qAghhBCZJAAA8OIDT1QzUGQBKKXDRQghhMgkAQCAF7Y/2o959UoG2E+HjBBCCJFJAgAALz7yyEw7nO4B8D902AghhJDbw0hxp3+w95VHeJ77C8Do6BASQgghN8dq7YBv1wvbHn+d4RRLeaCdDiMhhBBy81ip7vgLDzx2CSZzBgMcp8NICCGEyCQBAIDfPvT0cDucNoLBrwFwdDgJIYSQG8PYyg95bs9LqwDmNQABdFgJIYSQ65PsHIBreXH7k6cUMCcwDLObDi0hhBAikxGAz7qySoD/XwAOdIgJIYQQGx4B+KwXtj3+OsAnAThGh5kQQgiRyQjA50cDXt7G8/gTAA863IQQQogNjwB8fjTgib1QGuMBvEGHnBBCCJHJCMDnRgP2vLyBB/N7gI+hQ08IIYRGAGTihe1PHHHw7ErkwT8NYJhOAUIIITQCIDPP7HnZTcEwPwXPfxuAkk4FQgghchoBYOQehB++97d4M8f+DMA9ck6ICCGEUAIgS8+983ICWPwEwH2UCBBCCKEEQGae3/NyJgf8DMAGigYhhBBKAGTm2XdeSWZZ/vsAHgCgoogQQnyro/kAAAE1SURBVAihBEBGfrBnlw/Pm74FhvknAK4UEUIIIZQAyMh333zTSa2efxTAkwwQTxEhhBBCCYDMfH/PS2ks2Kd48A+BGg4RQgihBEB+owIazfyD4LETwGIALEWFEEIIJQAy8sye1/xZGO9jgG2fJAMUW0IIIZQAyMn33385GBx/H8OzmwB+KQA1RYUQQgglADKSd+CvdtOzqsVg+Tt5nt/CACEUFUIIIZQAyMyz7/wtilUwS8Cxy8DwiwFEU1QIIYRQAiAz/7Ln755GxryY59lsBnwSgEQAgRQZQgghlADIzI/e+pOrUalOZMEn8gwTDyD0k/+EANBQhAghhFACIKsjxjPPv/N3X57lQzmWCQHPezAM4w6OdwfLe/A848kA7swntQl4wBFXWh0rADhRAAkhhFxNAP4/rnJ9WniV5SMAAAAldEVYdGRhdGU6Y3JlYXRlADIwMjMtMDktMDNUMjM6MjA6NDgrMDA6MDBxArOiAAAAJXRFWHRkYXRlOm1vZGlmeQAyMDIzLTA5LTAzVDIzOjIwOjQ4KzAwOjAwAF8LHgAAAABJRU5ErkJggg==;" parent="1" vertex="1">
          <mxGeometry x="-50" y="290" width="42" height="42" as="geometry" />
        </mxCell>
        <mxCell id="3lFjE9dBdx0LUiIUw8xG-14" value="" style="shape=image;verticalLabelPosition=bottom;labelBackgroundColor=default;verticalAlign=top;aspect=fixed;imageAspect=0;image=data:image/png,iVBORw0KGgoAAAANSUhEUgAAAgAAAAIACAYAAAD0eNT6AAAABGdBTUEAALGPC/xhBQAAACBjSFJNAAB6JgAAgIQAAPoAAACA6AAAdTAAAOpgAAA6mAAAF3CculE8AAAABmJLR0QA/wD/AP+gvaeTAACAAElEQVR42u3ddZgd53U/8O/M5WVmZt7V8opXDLZkkgySnZjTpGlqx3HStL9kkzRpEzvQpg3ZjsyyJZMkixkWtavd1TIzM++lmd8fslyDZAv2zp25cz7Pk6dNZGvmnqEz77zvOQyI5OTt2qWdteeCeZ73MDOMO8tw7uBZD4Dz5BnGneHhCAA8GB0DTvvJ/+/EAAqKHiHkq/CAmQE/eeW/MXMA5j/5k0meZ0ZYYIhn+RGOZ0cUPD9i5rkho9N8xx83/ZOeoictDIVAnJ7f94ojp0cCeCTwLBfC8EwIwIQAfCgAX4oQIURceQP6ALQxPN/OM0w7wLSBZapnubmaP23/zjSFiBIAcq2H/fsvBZjNyGYYNonh+UQASTwQSseHEGIjyUErwF9mwFRxDF+pMLFFv3nw8V4KDSUAsrJtzx5FGDseY+KYJQyYpQDSAMRRZAghMtMH4AIP5ANM2dSYqfhvTz9tpLBQAmBTnt3990BGYd7IABsAZjUAJ4oKIYR8zgSAEzyDIwqWP/Kbe5/sppBQAiDJt/xQfmo5x/KbeB4bGSCeokIIITfzcOKrOJ45zDLsIfvazvN5eXkcRYUSAFHKy8tjp+ICFzMMtoHnt4Em6hFCyEIZAXAIPPu6Q13nKUoGKAEQhe+/87cMRqHYCZ6/D4AfRYQQQiyqm2Gwl+P5t367/ckyCgclAIL67ptvOqnVcw8wYL4FYBFFhBBCrKIWPF43M3jp99ufGKVwUAJgMT949+UlPPinwGAbwOgoIoQQIgqzPLCHAfO3F7c/XkjhoARgQeTl5bHTsQGbGQY/5oFsigghhIhaOcMwf7D36Ho7LzfPROGgBOCmPb/vFUeznn+MAZ4BEEwRIYQQ6eCBdobHX0xqxV//cPej4xQRSgC+1jN7XnZjGf77DM98B4AzRYQQQiRtDAzzPyYl+ztKBCgBuKZv7/lfBzte8x0w+BEAF4oIIYTYlCkw+JOCN//Hr7c/PUHhoAQAz73+uj2vNTzBgPkxwHvRKUEIITZtBDz/P3qj7nd/3LlzkhIAGcrLy2On4wIfZcD/kge86ZoghBBZ6eV5/NixrvsNuRYWkmUC8Nx7f89iOO4PNKufEEJkr4xh+Gde2PbkeUoAbNjz778UwJmZXwHYCfr8QQgh5BM8mI9VZva7//ngo+2UANiQvNN5yqmhgO8wwC8B2NOpTggh5BppwBx45mcdjNOLe7dvN1MCIHHPvfdSEjj2ZYDPoJObEELIDajgwT9h670GbDYBeGbPHp2Cn/ghGOZfAKjpfCaEEHITTGCYP2FO9eMXH3lkhhIAiXh+z8uZHPAmgEg6hwkhhNzGY7KeB7fTFkcDbCoByMvLY6fiAr7LAL+ht35CCCELNhrA87/sYJx/YUtzA2wmAfjhnr8GmcG+DjAr6FwlhBBiAYUAv+PF7U+22cKPYW3hR/xgz0v3m6G4TA9/QgghFpQDMGU/ePeVe2kEwMryTucpp4cD/h08fkjnJSGEEOEenszfJsZM//i3p582UgIgsH/Z83dPE7jdPLCaTkVCCCFWcI6B4v4Xtj/aTwmAQJ5/75V0juPfBxBE5x8hhBDr4Xs4Dvf97oEni6S255KbA/Dc3pce5Tg+nx7+hBBCRPAe7c+yzJnv73n5YUoALJZk8cxz776UB575O2iJHyGEEPHQMMBrV55RvGRG1iWxo3l79qinmclXwGMnnWeEEEJE/LL6ugPj/GTe9u0GSgBu04/e+pOrSaX6kJb4EUIIkYh83mS+67cPPT1MCcAten73K36cgj8OII7OJ0IIIRJSzUCxVswrBEQ7B+CHe/4axCn4s/TwJ4QQIkEJPMwFz7z/9zAaAbgJz+15KRRgTgIIpXOIEEKIhHUyrGLNC/c92kQjAF/j+XdeigWYC/TwJ4QQYgOCwJnPP7NnVyKNAHzVm/87LyeAxWkAHnTOEEIIsSFDCpbL/fV9T9VQAvAFz+x5OUIBnAPgS+cJIYQQ28MMssDy32x/vEEMeyOKTwDP7v57IAscp4c/IYQQ28V7ceCP/2j3rhBKAAB87+2XvFkFd5wBQujkIIQQYuMCTQrz8X9+/69Wf+G16ieAZ/a87KYAzoOW+hFCCJERBnyVUaVc/oe7Hx2X3QhA3p49agWYvfTwJ4QQIjc8mESl0fTRdw/9t0ZeCQDPM9OYfBngV9FpQAghRKbjACu0M/a7rNVASGGNjf4gLvAXYPBdOviEEEJkLnFxXQVfsHf/WcHTD6E3+Nzelx79pKUvIYQQQgCeB77x2+1PvGGzCcCz77yUzbLMGQAaOt6EEELIp4wMj9wX7n8i3+YSgO+9/ZK3SokygPGn40wIIYR8SZcKbNp/bH9sSIiNCTIJMO90nlKlxLv08CeEEEKuK9AA7t2803lKm0kAZoYCXgSYFXRsCSGEkOtjgNypwYBfCrQty/rBnpfu58G8Q4eVEEIIuSE8z/D3/Xbbkx9INgF4/v2XAjgzcxmAKx1PQggh5IaNK2BO/vX2pzsttQGLfQLIy8tjOTPzBj38CSGEkJvmYobijW179lisXo/FEoCp+IAfA1hJx5AQQgi5JctDmMnvW+ovt8gngO/veSmNAVMIQEXHjxBCCLllRhZY+pvtT5SIfgTgmT17dAyYt+nhTwghhNw2FQfmtbxdu7SiTwBYfjIPQBQdM0IIIWQh8DEzduZ/Xei/dUE/ATz7zivJLMtfpLd/QgghZEGZOBaZv7vviXLRjQDknc5Tsiz/Cj38CSGEkAWnZDnmrwu5KmDBEoDpwYDvA0ijY0QIIYRYAp8RzEx9d6H+tgX5BPCj3btCTApTLcDo6AARQgghFjPDKviY39z7ZLcoRgBMCu4FevgTQgghFmfPmZlfi2IE4AfvvryEZ3AeArYWJoQQQmSM58Es/+32xy9YbQQgLy+P5Rn8gR7+hBBCiGAYBtx/5eXl3dYz/LZ6Dk/FBzzG8EinY0HI7VOwLLQqNXQq9ZX/q1aDAQOtSv2lf1ZvMoLjOYAHZgx6zBrmMaPXw2g2USAJkUcOkDoVG/AwgNdu+W+41X/x23v+18EemmYe8KYDQciNPeA9HZ3h4eAEdwcneDg4wUVnDyedPRy1Ojhodbc9lGY0mzFrmMf47AxGZ6YwOjONsdkpjM5MYXByAhNzM3QgCLEdvQ46c2TenU/PCjoCoOO1/8QzPD38CbkGtVKJAFcPBLl5wc/FDT7ObvBydIaCZS26XZVCAWedPZx19gh29/rSn88a9OgdH0Hv+Cj6JkbRNTqEwclx8HTICJEiv+k55XcAvCDYCMAP9/zV2QxFKwA3ij8hgEqhRLiXL2J8AhDi7g1fF1ewDCuJfZ/Rz6N9ZACtQ/1oGx5Az9gwOJ5SAkIkYoTVMKG/2fr4lCAjAGaefQYMPfyJvLnbOyLS2x+R3n6I9gmARinNIpj2Gi3i/YIR7xf86ShB82AvmgZ6UdPbgan5OTrYhIj4VsTpuX8C8EuLjwD884e7XJRGcxsAF4o7kZsQD2+kBIYhxicA7g5ONv97OZ5H+/AALne3obKrDdN6SgYIEaFxpdEQ9p87vj1m0REApcH8PBh6+BP5cNbZIzU4HJmh0fCQwUP/s1iGQZinD8I8fbAlJRudI4Mo62hGRVcL5o1GOjkIEQcXk1rzDICfWGwE4Pl9rzhyer4LgDPFm9gylUKBWN8gpIdEINonECxDpS4+y2Q2o7K7Decbq9EzPkIBIcT6xmahD/rT9u9MW2QEwGzgnmLA0MOf2Cw3e0csj0pAekikZL/pC0GpUCAtOAJpwRHoGBlEYUsdKrvbYDKbKTiEWIerDprHAfzXgo8A5J3OU04PBbQACKI4E1vj6+yGFdGJWBQUJpnZ+2Izo59HQUsdzjdWY85ooIAQIjAeaHf07I7My827oYpgNzwCMD0UsJ0e/sTWhHp4IzcmCTG+QVTP+jbZa7RYG7cIy6MScLGtEafqK2kFASECYoCQ6cHAewDsWdAEgAe+RzdIYivCvXyxOTEDgW6eFIwFplGqsDQyHpmh0TjfVI0zDZdpwiAhgmUB/A9uNAG4oWf69/e8spQBf54iS6TO09EZGxLSkBQQSsEQyKxBjzMNl3G+qYbmCBAiTBaw+MXtjxcuyAgAw3NPgmZBEwmzU2uwLj4V2WExFi/HS74c+02JGcgKi8GhyxdxubuNgkKIJfF4EsDXJgBf+1T/pOxvLwA7iiqRGgXLIiMkChsS0mCv0VJARKBlsA8flBdgcHKcgkGIZTKAOZNK6feHux/9yovsa1+FzFA8TA9/IkVBbp54du3duDdtCT38RSTcyxfPrr0bmxIzoFQoKCCELDhGpzBwD3zdP3UjnwAep2ASKVEqFFgXl4oV0YlUwEekFCyL3JgkJAaE4J2Ss+gYGaSgELKQKQDDPwHgL1/5z3zVH37/nb9lMCxbQqEkUhHo5okHMpbDy8mFgiERPM8jv7kWBy9fhImjSYKELFgSwLFpLzzw2KVbGwFgmIcphEQqb5TLoxKwPj6NJvlJ7k2FwdLIeER4+eGdkrNUWpiQhUquWW4HgOsmANe9U+bl5bEMw9xLISRi5+nojO+tuQubEjPo4S9hPs6u+MfVdyInPIaCQcjC2A6eZ246AZiJC1oGwI/iR8Qs1jcI3129Bb7OrhQMG6BkFbgndQkezFoJtVJJASHk9gQ8+95LOde93q47dADufoodESuWYbAmbhHWxKaAoYl+Nic1KBwBru54veAUBibHKCCE3Oq9Eor7ARRc68+ueefctmePIgSTPTzgTeEjYmOv0eKhrJWI8vanYNg4vcmIt4rOoK6vk4JByK3p74BTwN7t281fTg6uIZSfWk4PfyJGAa4e+N6arfTwlwmNUoVvLlmDpZHxFAxCbo1PCDOx+NqjA9fAA5spZkRsIrz88K2Vm+Bq50DBkBGWYbA1JRv3pi2hVs2E3AKOZzdd63+/5hwAnuE3UsiImKQEhuGBzBWymOU/Z9BjWj+PWYMeBpMJHM9BbzJCq1LDUauDWqmCRqmEklVAq1LL5hzIDouBs84ObxSehtFsoouCkBvEgN8A4F++/L9/wfPvvxTAmZkuChkRi8URcbgrJdumJvuNzUyjb2IUfRNjGJmexOjsFEZnpjAxOwuO527q71IplHDS2cHN3gFu9o6f/sfd3hGeji7QqlQ2dT60DvXj7xeOQW+iFsOE3CCeNTMBv3nw8d6vHAEwm7GJ5lQTsVgXn4q1cYsk/Rv0JiM6RgbRPjyA9pEBdI0OY95oWLC/32g2YWR6EiPTk1/O/BkG3k4uCHbzQrC7F4LcPeHl6CLpZCrM0wdPr9iIl88fxaxBTxcJITcwCMApufUAdn1lAsCC2chTsIi1z1aGwV2LcrA4PFaS+983MYr6vm409HejfWQAZo6zyn7wPI/+iTH0T4yhuK0BAKBVqRDm6Yt4v2DE+wVJslFSoJsnvrVyE146dwRT83N0wRDy9TZ8MQH43GvAtj17FMGYHAXgRLEi1nRP6mLkSOzh3zcxioquVlzuasPwNd7GxYhlGAS7eyPePwgJfsFwd5DWpT8wOY4/nzmIGf08XTSEfLVRh9puz7y8PO6aCcCz7728iOWuXzeYEEHS1IR0rI5NlsS+zhn0uNTZguLWevRNSL9gTaCbJ3LCY5ASGA6VRFr1do8N469nD9/UZxVHrQ6OWjs4aLTQqdXQqTTQqdVQsgqoFEowDAOtSgW90QiOvzImauY5GExGzBkM0JuMmDPoMTk/i+n5eUzr52967gYhguOQ+OIDT1Rf/a+f+wTAclhCESLWtCI6URIP/97xUZxvqkZlVyuMZtvpYNc1OoSu0SEcqCxBenAEssNj4OXoIup9DnD1wGNL1+Klc0c/XR3AAHB3cIK3kys8HZ3g4eAMT0dnuNo5wElnt+CrSTiex9jsNIanJjB09T/TExiamsTE7DTosyoRBQWWALh2AgAeS0AzAImVZIVGY3NSpqj3saG/G2cbq9A00GvTx2LOoMf5phpcaKpBuJcfcmOSRF18KdTDB9/O3YyOkUH4ubjBz8UdGqVwqx9YhoH7Jysvon0CPvdnRrMZ/ROjaL86EXR4AJPzs3TBE+HxWALgr9dOABgaASDWkeAfjHvSFos2/2wfHsDh6lK0DvXL7H4BNA/2onmwFyHu3lifkIoIL3H2CAtw9UCAq4fo9kulUCDQzROBbp5Y9klFw5GZqU+TgbbhfgxMjtNNgAhh6ecf+Z94Zs9r/goYuyk+RGgRXn54Ytl6URb56R4bxoHKYtk9+L9KlLc/NiSkIdDNk4KxQMZmplHT24Havk60DPbTfAJiMWaoAn6//Rs9nxsBUPKmbJ6G/4nAXO0csDM7V3QP/8n5WRypKkNpRxN4nr7gflbjQA8aB3qQ6B+CrYuy4ayzp6Dc7nVg74ClkfFYGhmPWYMedX1dqO3tRH1/FwwmqnpIFo4CpkwAH34uAeBZJNNMFSIklUKBbyxeI6p16DzPo6ClDoerSqnS3Neo6mlH40APNiSkYXFEHFhqy7wg7NQapAVHIC04AvNGIyq6WlDUUo+e8REKDlmAmxyX/KUEADyfRJEhQro7dTH8Xd1Fsz/D05N4r/QCWob66ODcIL3JiH0VRShtb8J96UtF+Q1eyrQqFbLDYpAdFoPusWEUtzagvLOFklNy6xgm8er/+9lJgJQAEMEsi4xHRkiUOBJiABeaanCo6iJMNrSkT0g94yP448kDWBGdgPXxabJo2iS0AFcPBKR5YHNSBi51XhkV6JsYpcCQm/VpAsAAwPP7XnHk9PwEQIsAieWFeHjjWys2ieIhMTU/hz2l51HfR/2vFvJBtTNnFdztHSkYFtY00IujNWXoGBmkYJAbxWFe7fTiI4/MKAHAZDAnsmDp4U8szlGrwzcWrxbFw79lsA9vFJ2iMrILrHtsGP99Yh8eyFyOWN8gCogFRXr7IdLbD+3DAzhSU4aWQfp8Rb4Wy6vn4wBcZK8MA7BxFBMihLtTF8NBo7P6fhS11uOl80fo4W8hswY9dl04jv0VRVZrhCQnV0fVvpN7ByJFWqeBiCgDYBXxAPDJaxgfSiEhlpYWHIFE/xCr7oOJM2N3yVm8X5ZPDyYL4wFUdLVieHqCgiFgIvDUio14avlGeDu5UkDI9a7OUOCTSYAs2FCe1gASC3LW2WHrohyrv5W+VnCCivoIQMGyuDM5CznhsbQ80Aoivf3w7Lq7UNBch6M1l26qURKRRXL+fwkAz/MhFBJiKQyAbenLoFOprbYP47PTeOncUQxOjdMBsbC04AjctWgxtCoVBcOKWIbF0sh4JAeG4VjNJRS3NVBRK3JVyKcJwNX/QoglZIXFfKlBipDGZqbx17OHMDIzRQfDgvxc3PBwzmp4ODhRMETEUavDvWlLkBkahQ/LC9E1OkRBIaEAwOTt2qWdtjfPgpYAEgtwtXPA99ffI2hnts8anBrHX88exuQcdV+zFDuNFjuyVoq6WyC5guN5nK6/jOO1l2gOjMxPBb3DrJ1yUmcMoiWAxFK2pGRb7eE/Mj1JD38LYhgGa+MWYVVMMhX+kQiWYbA6NhlxfkHYXXwafRNjFBSZngrKabtAJcMqvEATAIkFRHn7I8E/2Crbnpibwd/OHaGHv4UkBYTgvrSl0Kk1FAwJ8nV2xXdXb8Xhqou40FRDTwAZUoDxVILnPWjwnyz4ycWyuMtKs/5n9PP4y5lDGKVv/gvOw8EJD+eshp+LGwVD4lQKBbakZCPGNxDvXjxHybLc8LyHkmEYdxoBIAttSUQcPB2dBd+uyWzGq/knMDw9SQdhAWmUKmzPWIbEgFB6X7AxUd7+eGbtXdhdfBaNAz0UEJlgGMadRgDIgtOqVFgVk2yFhJbHOxfPon1kgA7CQt0kAKyMScK6+FQoWQUFxEY5aHR4fNl6HKkuxen6yxQQuYwAgOHdaQEAWUgro5Ngr9EKvt0TdRWo7GqjA7BAIr398UDmcjhp7SgYMsAyDDYlZsDdwQkfXiqgVQI2jmMYdyUA+phHFvRNYllkguDbre/rwvHacjoAC8DNzhE7cnIR5OZJwZChrNBoeDu64LWCk5jWz1FAbBTD8O5KhmHtqDoUWSgrohOhVioF3ebIzBTeLjlLVc5uk4JlcU/qEmSERIKh8r2yFuLhje+t2YpXC46jZ2yEAmKLCQDH2yl5nqd1PGRB2Kk1yAmPEXSbHM9hd/EZzBn0dABuw9KIeGxKSodKoZTdb583GjE5N4M5owEGkwlzxivnkpnjoDcZwTIstCoVNEoVVAoldGoNHDRaOGh1Nv3x1MXOHv+wcjNezT+B5sFeukhsDM8waiUPRs3QKgCyAJZHJQpe9OdkXSU6RgYp+LcozNMHD2Xlwlln+9/5W4f60T8xisGpCQxPT2JkehITc7Mwmk239PexDAsHrRbu9o7wcHCGu4MTvJ1c4O/iDld7B5uImUapwmNL1+G1ghNo6O+mC8aWRgAAjZIBr6ZQkIW4USwW+O2/c3QIJ2orKPi3wElnh4dzViHE3dtmf6PBZEL/5BiaBnpQ29uJ7rFhcAv4mYjjOUzOzWJybhZtw59feaJTaxDg6o5QDx+EefogyM0LKoU0V1GoFAp8c8kavFl4CjW9nXTx2MoIABiNEuA1tAqA3K60kEhBq8KZOQ57S8+D42mm8s24WqApKzTa5r7zmzkOXaNDuNTZgrq+LozPTlttX+YMejQN9KJpoPfTuId5+CDGNxCxvoFWqZFxO5SsAg/nrMbbxWdwuZtW2thGAsCrlQBDIwDktjAAlkbECbrNU/WV6Kc65jclMzTKqr0ZLMHEmdE+PIiCllrU9naKdumamePQNNiLpsFeHKgshpejC1KCwpASGCaZZEDBstiRnQvlRQUudTTTBSX5+zajUfKAgt7/ye2IEfiNZmhqAqfqKinwNyjQ1QM7c1bBzd7RNt5ceB7tI4M4XluO5sFeSa7+GJwax7GaSzhWcwkBrh7ICovGoqBw0SdnLMPggYzlUDAsLrY30sUl7REApZLCQG5XVpiw3/73VxbDxJkp8F9Dp9ZgR9ZKRPsE2MTv0RuNuNjeiBN1FZjRz9vMceoeG0Z32TA+rizBoqBwLI2Mh7eTi3jfHBkG96UvxZxRj+qeDrrQJIwSAHJbnHR2iPUV7gHT0N+N+r4uCvzXvKVtTsrE0sg4sIz02/SOzkzhcFUpKrvbbLrWg95kRFFrPYpb6xHrF4SV0YkI9fAR7Tm2IysXL184ipbBPrroKAEgcpQeEinYQ4bjeRyoLKGgf4XkwDDcl7YEWpX0p/aMzU7jg7IC1PfLK+HjAdT2dqK2txPhXr7YEJ+GEA/xrdZQKhT45uK1+POZj9E7PkoXHyUARHYJQHCkYNuq6GzBwCRN/LsWT0cXfGPxalEPHd+oWYMeBy+XoKSNvjG3DPbhfwc/RoxvIDYnZsDH2VVU+6dVqfDoknX448n9mJyndsKUABDZ8Hd1F2zyH8dzVOv/GjRKJR7MWol4v2DJ/xaDyYRDVRdR0FxLpcm+oL6vC439PcgOj8H6+FTYqcVTwNXFzh7fXLIGfz5z6JaLKhFKAIjELAoMF2xbZR3NGJ6epKB/ggGwNn4RVsWkQMFK+zs/z/MoaWvER+WFNLnza5LgguZaVHS24I6kTKSHRommgkugmyfuz1iOt4pOUfJGCQCxdSzDYlGQMAkAD+BsQxUF/RMxPoG4P3M5HKzQcnmhdY4O4fWCE5iYo+HjGzVr0GNP6XlcbG/CtvSloqkjkBwYiq7RRJxtpGuVEgBiU9RKJfxd3BHi4Y1QD2+EevgINtGsoa8LA5Pjsj8GbvYOeDhnNQJcPST/W6bn5/DOxbNo6O+hi+sWtQ334/fHP8KdyVmCN+G6nk1J6egaG0LrUD8dIEoAiJS52zsizi8Isb5BCPP0sdpQ87mmalkfBxWrwLaMZUgJDJN8+V4TZ8bR6ks423CZhooXgNFswgeX8tE40I1t6cusPjeAZVjszF6F3x//EFPzc3SAKAEgUsEACHb3RlJgKOJ8A+Hu4GT1fRqamkDzgHxbkS6PSsCGhHTJNpK5igdQ3d2Ody+eg95kpIttgVX3dKBrdAgP56xGsLuXVffFUavD/RnL8cr5o5TkUQJAxM7byQXJgWFYFBQODxE89D+ruK1BljeRIDdP7MxeZRNtZYenJ7DrwgkMTo3TxWZBE3Oz+NPpg9iQkIbcmCSr7ku0TwCWRSXgXGM1HRhKAIjYaJQqLAoKR054DPxc3EW5j2aOQ1m7vJqOOGp1eCRntSgLv9ysWYMee0vPU7lYAXE8h0NVFzE6M4W7U3OsWglyY2I6mgd7qUgQJQBELLwcXbA4IhZpwRGirxbXPTaMab08viOyDIuti7KRHRYDVuLf+c08h3MNVThcXWbTpXvFrKi1HiMzk3gkZw20Kus0GFKyCtyfsQL/fXKfaLs0UgJAZCHM0werYpIR5RMAqTxe5PLwyAiNwlYbadPb0N+Nt4pOY85ooIvOypoGevGXMwfx2LJ1cNLaWWUf/FzckBudhBN1FXRAKAEgQov09sO6+FSEuEtvSLmotd6mj02AqwcetpE2vaMzU3ij8BS6x4bpohORnvER/Pn0QTy9YhNc7Oytsg9r4hahurcD/RNUxpsSACKIWN8gbEhIg5+LmyT3n+d5m/12rFWpsSM7FzE20KZXbzLio/JClLY30UUnUsPTk/jT6Y/x9IqNVlnZo2BZ3Ju6BH86/TGtCqAEgFhSoJsnNidmINzLV9K/o39yzOaWizEMgzsSM7A0Kl7ybXo5nkdJWwM+Ki+k77sSMDY7jb+cPYRv594BVzvhV5aEeHgjLSSSEkVKAIgluDs4YVNiOhIDQsHYwO8p72yxqeOT6B+C+9KXiqqJy63qGh3GrvzjmKLub5IyPjuDv509jG/n3gFHrU7w7d+ZnIXa3k7MGvR0MCgBIAtyAFkFVsYkYVVMsuSLxXyWrbwpeDu54pHFq+Dl6GITD5A3i06hY2SQLjyJGp6exMvnj+IfVm4SfBWQnVqDtXGLsK+iiA4EJQDkdoV5+uCe1CU20QP+s+aMBsmXEVUrldievgxJgWGSH5Exmc04VnsJp+sv00VnA3rHR7Ar/zieWr5R8PLeOeGxyG+upc6elACQW6VTa3DXohykBoXb5O8bkPhs4VUxyVgXnyr9Nr3gUdHZij2l52EyU5teW9I61I8PLuVjW/oyQberYFlsTEzHG4Wn6CBQAkBuVpS3P7ZnLIOzzt5mf2PDgDQ7xNlSm97e8RG8VnASozNTdNHZqJK2Rvg6u2FpZLyg200MCEWwuxd9SqIEgNwolUKBtXGpWBmdKPmOcF+nrq9TUvvrZu+IbyxeLdqSyjdjWj+H3cVn0ThAbXrl4OPLJQhw8xC0TggDYHNSBv50+iAdAEoAyNfxdXbDwzmr4OnobPO/led5yRQMUbIs7klbivTgCJto03umvgrHai9R+V4ZMXMc3iw8jWfW3gV7AUeuQj18EO7li5bBPjoIlACQ60kPicQ9qYuhUsjjUE3Oz0piXbmttOkFgLq+LrxdfBrzRmrTK0cTczPYXXIWjy9bL+iE1dWxKZQAUAJArnlgFApsTswQ/PuctY1Mi/ubc5inDx7KyoWzzk7ysR6cGsfr+ScxQG16Za+hvxuFLXVYHB4r2DYjvfwQ4u6N9pEBOgCUAJCrnHX2eHTpWvjbwDflmzU0PSHK/XLU6vDNxWsQ5O4l+RjPGfR4rywfl7vb6GIjnzp4uQRR3v7wELBc8KrYJPz9wnEKPiUABLjyvf+xpeus1rjD2vrGR0S3T8ujErA5KVPybXo5jsPZpmocqSoFR9/5yRcYTCa8e/Ecvr1ys2BzWmJ8g+Dt5IqBSWoURAmAzEX7BGBn9iqr9e8Wg57xUVHtzwOZK5AWHCH5uDb29+Ct4tNUhpV8pfbhARS3NSA7LEaQ7TEAlkTE4oNLBRR8SgDka2lkPO5MzpL8W+btGhFRhbB7UhdL/uE/Mj2JN4pOo4fa9JIbdLiqFAn+wXDQCNMvIDU4AoeqLtIkVCtgKQTWtzZuEbamZMv+4c/zPKZFUgI43i8YOQJOiFpoepMRe0ov4D8P76WHP7kpswY9TtRWCLY9jVKF1OBICjyNAMjLlYIYmVgRnUjBwJU1ybxIjsuDmSskGUOO51HcWo99FUWyb9OrUigQ4eUPD0cnaBQqTM7PoGWoT/QrTcSgrKMZ6+JTBeteuTg8FoXNtaCZKZQAyObhv3VRDpZExFEwPmHixFFvflVsCjQSnIfRMTKI1wtPYnJOvm16NUolNiVlIikg9Lolmc0ch67RIRyquoi2YVqCdi3zRgNO11/G5qQMQbbn7eSCYFoSSAmAXB7+96UvQ2ZoFAXjCzdmMVgssaH/iblZvF18Gq1D/bI9dxQsi60p2cgKiwbLsF/7z4Z4eOPbuXdgYHIcbxSexMDkOF2AX5DfXItlUfFw0gpT82JRcDglAAKjOQBWcGdKtqQe/r3jI4J8mzeJIAGwU6nhJJEiP0azGfsri/HLj3fL+uGfERqFn23diZzw2K99+F/rzfO59ffiiWXroVWp6eb0ufPLhJN1lYJtLzkgVPIdNGkEgHyldfGpWCaB6n5mjkNNbweKWuvRNNCL59bfAwetzsLbtP4ngDj/YNEfGx5AVVcb9pSeh94k35nTfi7ueDhn1YIUron2CUDelh0421iFI1Wl9C36E8Wt9VgZlQhXeweLb8teo0WUd4DkmoFRAkBuyPKoBKyNWyTqfZycn0Vhcx2K2xow9bm3fsuvUBDDCECAq4eoj0/P+Ahel3mbXp1KjR3ZuYj2CVjQv1fBslgVk4zssBjsuXgeNb0dsr9nmTkOpxsqcU/qEkG2tygojBIASgBsT3JgKO5IzhLt/s0a9DhVX4mC5loYzV9+ExdihSInggRAyI5oN2NGP489F8+htq9LttcQwzBYn5CKlVFJFh0qtlNr8M0la9A3MYpX80/IOtkCgEsdLdiUmCHIJ5I4vyAoWFb2K1goAbAhAa4euD9jOcS4yt9gMiG/uRan6ysxZzTQBcGKq7sfx3M411iNwzIv3xvnG4jtGcsFTdB8nd3wo03bUdPTgbeLTsMoklUqQtObjCjraBZkxZJGqUK4py8aB3rowUEJgPS52Tvi8WXrRNfO18xxKGipw8m6Cszo5+lAiVDjQA/eLDwl68TM3cEJD2evgr+rdRpjMQAS/IPx87sexom6Cpysq5DlcShorsPiiDhBXmJifAMpAaAEQPq0KhUeW7pOsJKaN6prdAjvlV1Ar8jq7pMrRmem8HrhSfSMjcg2BiqFEvekLUZaUIRgjWm+8kapUGBDQhqWRMThraLTaBmSVx/7walxtAz2IsLLz+LbivMLwv6KIroRUAIgXQyA7enL4e3kIpp9MprNOF57CWcbqqgb3HVZLy7zRiM+LC/ApY5mWV83q2KSsSZ+keg+xwBX2kJ/a+UmdI4O4rUCeRVdKmipEyQBcLd3hJejCwanxul2RAmANC2LSkBiQIho9qd1qB/vlV3A0NQEHRyR4XgeRa312C/z8r2R3v54IHO5YIVnbkeQmxf+bfMDKGlvxAdlBeB42z9utb2dmDPooROgPHCEly8lAJQASFOwuxc2JWaIYl/MHIcDlcUooDrbotQxcuVNcmpevuV7Xewc8GDWCoR5+EhrtIJhkBUajUVB4ThQWYyilnqbPk5mjkNtX5cgHTJDPX1Q0FJHNwhKAKTFTq3BzuxVoqhoNTE3gzcKT6FjZJAOjMjQsfm/8r3ZYTGi+M5/q9QKJe5NXYJVMcl4veAkum24+2J1T7sgCUCYpw/dJCgBkJ5705bAxc7e6vvROtSPN4tOfaGYz22979DBXQBGsxlHq0txtrFa1nHIDo/BnUmZUCtVNvObXO0c8L01W9E61I/XCo5j1mB7qzca+ntgMJmgVlr20eGktYOHgxOGpyfppkEJgDQsCgpHUkCoVfeBB3C6vhJHq8toot8txs8ify/P41JnC94ruwCT2Szb+Aa6eWJndi7c7B1t9jeGefrgJ3fuQH5zLT6+XALehq5Do9mExoEeJAhQMjvUw4cSAEoApMFJZ4e7FuVYdR84nsf7ZRdQ0tZIB0RkScUvD76LibkZ2cbAXqPFjqyViPT2l8XvVbAslkclICMkEnvLLqCqu91mflt1T7sgCUCAqzsutoNQAiB+29KWwk6A2bHXY+LMeLvoDKp66IoRXwbAy/bhzzIsNiSkYkVUIlgZdnrTqTV4JGc1hqcn8Wr+cZtoOyxUkR5fF3cQSgBELy04AjG+gVbb/rzRgF35xyXfEpahaQY2JTkwDPemLYGO2uzCw8EJ319/75WywsWnr9lvQyqm5ucwMjMFdwt/xvFzcQMD0OolSgDES6tSYVNShlUvxlfOH0XPuPSrxtGUBdvg4+yKh7JWwtfZjYLx2QQXV8oK/+KuR3C6vhLHai5J9uHWMTxg8QRAo1TBzcEJIzQPgBIAsdqQkG61wiUz+nn8+cxBmynuQyMA0k+Gt2esQKIA34elTMGyWBO3CFlh0Xi7+CyaB3ullwCMDCJVgOWAvs6ulABQAiBOvs6uyAmPscq2jWYTduUfF+zhL8SzmUYApPtmuzo2BWviFomi/oVUOGrt8PSKjeibGMXfLxzD+Kx05om0C1S/wsPBmU4USgDEedO7N20pWEb4G56Z4/Bq/gmbKyJDIwDSE+ntjwczV8BRq6Ng3PKLhBt+vOl+lHe1Yu/F8zBJoO1w/8Qo5o1GaFWWrePg7uBIJwglAOKTFBiGYHcvwbfL8zx2l5y1yXaZohgBoFGIG+Jm74hHFq+GP83UXqDkl0FqUDgS/IPxcWUJCkVeBpfjeQxMjln8Huhu70QnByUA4qJgWWxMTLfKtvdVFKGyq9VGb4Ji2Ak6v7+KSqHAXYtykBESJenyvWKlVihxT+pirI5NxltFp9E2PCDafR2ZmbJ4AuBm70AnBSUA4rIkIs7iM2CvpaStEfnNtXQAaATAKnnR0qgEbExIh0qhEP3+msxmKCWwn9fjrLPHt3PvQNNAD94sOo1Zg158CYAAk/Nc7R3AMgxVNaUEQCQZulKJ3JgkwbfbNzGKj8oLbfvZS9e4KIV5+uChrJVw1tmLfl9nDXrsKT2Put4urE9IxUqJFyCK9PbHT7fsQElbAz68VCCqB+HozJTFt8EyLOzUWkzr5+hCpARADG//8XDQCDvhSW8y4o3CUzCaTbb9lkkjyqJir9HioayViJJA+V4zx+FcYxUOVZV++r8drirFuYYqPJSdK4nfcP2HIIPssBikBIbh/bJ8VIjkE+DI9JRg5yElAJQAiOLtf3lUvLBvxQDevXjOZtb6E/FTsCzuSslGZlgMWAlkZQ393Xij6BT0RuOX/mzGoMdL544g2N0TO7JXwdVOut+UtSo1dmTnYn1CmijKCo/MCLM+316joYuSEgDrWxweK/jb//nGaptqJELELSMkClsXZUMjgTa9g1PjeDX/JIamvv5B2DEyhF8dfBeLI2KxOTHT4u1sLelqWeG63k7sLj6DeZPRKvsxNTcLjucsvhTaXqOlC5MSAOu/FS2JEPbtf3h6EoerS8URABqet2kBru7Ykb0KHg7iX3Y1bzTg/UsFqOhsuel/t6C5DiVtjbhb4isZGABxfkHI27oTZxqqcLSmTPC2wzwAvclk8V4P9mpKACgBsLKUwDC42NkLenF9UJYv697xxPJ0ag22pS1FYkCI6PeV43mUtDXgg0sFt/WwM5nN2Ft6AcdryvFg9kqEefhI+sVkdWwyssNjsOfiWdT2dgm6fYPJaPEEQCXh1RyUANiI5VGJgm7vYlsjmiRYI5xI5A2SYbA6NhlrYqVRvrdzdAh/P38MM4b5Bfs7x+dm8OfTBxHu5YuHMlfCSWcn2eNpr9bg0SXrMDA5jl35xwWrn68X4PODkhIASgCsKczTB34uwnU2m5qfw8eXSyjwxCLi/YOxLX2pJIZWJ+Zm8FrBSXSNDllsGy2Dffj3j3djSWQ8NiVmSPqN09vJBT/ccB+qetqxu+SsxUcQrzXxcsEfUiwlAJQAWFFWmLANf/ZVFGFOhIU/5MCWSxG42TtiZ/YqBLp5iH5fjWYzDlddxPmmGsGO+4WmGhS3NuDetCVIDY6Q7LQXhmGQFBCKON8gnKgrx8m6Sotty2Cy/NJkBSUAlABYi51agyT/EMG2V9zWYLOlfol1aJQq3Je+FMmBYaJ/qPE8j7KOZuwtPW+VojdGswnvlJzFidoKPJKzCr4Cjvwt+M1docCGhHTkhMfizaIzaB/uX/gEwCzEJwDqMEkJgJWkh0QK9g3KYDLhWPUlCjpZmDdBXClctSlJGsPaveOjeDX/OMZmp62+L8PTE/jd8Q8R5xeE7enLJL0UzVlnj+/kbkb36DB25R/H5PyspN7OeSoRSgmAtaQGRwi2rbONVQt6cS70w4RIR4SXHx7IXC6J8r0z+nm8XXIGjf3i63BZ29uJnx14W1ITJq8nwM0D/3bHAyhtb8L7l/Jh5rjb/jvVCss/QmglFCUAVuHt5CpYu9NZgx5nG6pEGwthcnBKM277bc/OHg9mrkC4p6/o99XEmXGyrgInaitEvZ88z+NEbQXym2qxLX0ZEgJCJD0/ICM0CsmBodhXXoSS9sbb+vtUAhRUWohEhVACcNPSgsMF21Z+c60gS2rE/WgWw1CfNIcbFSyLLclZyAmPlURxm4b+brxecBIGCfW3mDMa8HrhSfi5uGFHdi68HF0ke29TK1XYlrEMa+NT8XrBCXSNDYt3BICjEQBKAKwgOTBMkO3oTUZcEGi2s8jfTygEtyAnLBZ3JEujvG3/xBhezT+OkZkpyca7d3wULxx5H2khkbgrJQdalUqyv8XFzh7/tGYrGgd68GbhKcwZDTc3AqCgEQBKAGyQn4sb3OwdBdlWcWuDKPt9E3ELcvfCzuxcSTS4mTPo8V5ZPi53t9lM/Mvam1DR2YLNSZlYEhEnicZJ1xPl7Y+8rTtwoakWBy+X3PAKDCGSzptNSgglALctQaClfzzPI7+5lt7Or0SDTrwbYK/W4IHMFYjxDRT9vnI8h/NNtThYWWyTR9fMcdhfUYSTdRWSaZ18PSzDYnlUAjJCo7C39PzXNiFTKhTQqS3fqW9GTy9HlAAILN4vSJDt1Pd3Y1TCw6HSSzKkS8Gy2JSYjqWRCZJ422we7MVrBacwb7T9G/iMfh4vnTuCAFcP7MzOhbsEmipdj06lxiM5qzE0NYFd+cev24rc1c5BkCt2dgHLPxNKAL6Wg0YHX4Fm/xdI4u2fWFu0jz92ZOdCpxJ/b/Q5gx5/OXsYveMjsjtO3WPD+M/De5EdHoM7k7MEmSRnKZ6OzvjBhntxuasd7148B+MXJmwK9Yl0Rk8JACUAAgr38hEks52cm0XjQA8F/FP0CeCLvBxdcGdKFmJ8AqTzBqnW4I6kTOyvLEL/xJgsj1tRSz3K2ptwT+pipAVHSrjtMIPkwFDE+wfheE05TtdXfnqVCjX3ZIbmR1kM1Vi8hjCB1lBf6myxSrlTInAKcgv3fp1KjTuTs/Dsursl9fC/KtLbD8+svQv3pi2RdBW922E0m/HuxfP4j0PvonNkUNpviqwCGxPT8ZM7H/p0noOrveUTAIPJhHlKAGgEQNARAIESgPLOZgq26N54rJtVMAyD1KBwbE7KhKNWJ+23C4ZFdlgMkgJCcaK2HPnNtbJMeMdmZ/DHUwcQ4eWHB7NWwEkr3bbDDlodnly+Ad2jw5jUW75q6cjMFI0LUgIg4Amu0cHLycXi2xmcHEfv+CgF3PKPX8mMAIR7+mJLSragraeFYKfWYEtKNrLDYrC/shgN/d2yPLubB3vx7wd2IzcmGWvjFkm6z32AQB0lR2cm6bZICYCAb/8Cff+v7u2gYBMAV5q1bExMl3QL2hvh5eSCJ5atR11fJ/aVF0m6GNDtJJin6itxvqkG2zOWSaJDozWNTNMKKUoABCTU9//a3k4KtsypFErkxiRhZXSSJLr1LZRY3yBEeQegsKUOR2vKMG80yu7YG80mvFV0GkeqS7EjaxUCBXqjlhpaIk0JgKBC3L0svo2p+Tl0jg5RsGWKAZAYEIo7kjMlUcXPEhQsi6WR8UgKCMXx2nIUtzXIsu3ryPQU/vvkPiT6h+C+9KWwU2voAvmMwclxCgIlAMJgGQaeAjT4aB7spR7XMhXg6oGtKdkI8fCmYABw0tnh3rQlyAqLxr6KIrQPD8gyDlU97aju7cCa2BSsjk2RdNvhhdQ7QfOkKAEQiLuDkyBDsa1D/RRsuT3otHZYG78IWaHRkl0TbunE6Nu5d6Cquw0HKkswPjstuxjwPI/jteXIb6rB9ozliPcPlvU5MTE3S0WAKAEQjo+TqyDbaRnqo2DLCAMGz2+8DxqlioLxlXECkgJCEesbiNKOZuyvKILJLL9WsLNGA14tOAF/V3c8nL1K0mWFb0efDCtJCo3GmT7D29nyCcCMfv66tbWJ7aKH/41TKZTICYvBz7c+jOVRCbKNQ8/YCP7z8F68VXwa8zLsiNdDy6QpAbC1EYDusWEKtJjR1AwRJQIK3JmchX/dfD9CPLxkG4eKzlbk7X8LhS11spo71D1GE6UpARAyAXB2oQRA7mTyeX5oagJ/v3AMfzt7WPT1+l3sHPCd3Dvxndw74KDRyfK0NHMcPrhUgJ8deFsW/UN4AG0ynRAqJJoDcDUTYlh4ODhbfDs99F2LRgCsaM5owOn6SpxrrIaZ4wAAvz/+ETJDo7AhIU3UdftDPLzx/+58EMWt9dhXUfTp/svJ1bbDYR4+eDBrJVzs7G3ydw5MjNEEQEoAhOOo1Qqy9Eaq61pp3rrE8xqex6XOFnxcWYJp/dzn/ozjORS11uNydxvWxi3C4ohYsIw4BwdZhkFOeCxSgyOwr7wIF9sbZXk8W4f78cuD7yA7PAZbkrOgUiht7vcRSgAE4yBA4xWe52VZ/pRYV8tgH/ZXFn1t74lZgx77KopQ2FKPLSlZiBZxF0KNUoXtGcuwJi4FrxecQs+4PD+tXW07fNeiHGSERNnMEtM2WipNCYCgIwACfFscn52R5bImYh3jszM4Ul2Kso6b6zo5ODWOl88fRZxfELakZMPd3lG0v9HN3hH/vHYrGgd68EbhKVnOljeazdhbegHHayuwI3slQtylXWSK53laKk0JgO2NAFBdayIEg8mEs41VOFVfeVsJZ21vJxr6u7E4PBbr4tOgVYl3KWOUtz/ytuzA+aZqHK4qlWXb4fHZafzvqY8R6e2PBzKXS7btcOfoEKbm5+hCpgRAwBEAAS6WiflZCrT43z8kvecLXUnPzHE431SDyq420VcyVLAsVkYnITM0GntKz6GmR54Nt5oGevDvB3ZjRXQi1iekQclKq9FUXV8X3YYoARA6AbD8CMDkHCUAxDK6x4axr7wI7SOWWTo1OT+L98vyUdzaIPpeBnZqDb65eC0Gp8bxav4JWRbe4gGcaahCQUsdtqVLq+0wdUoVDtUB+IQQy5+maViLWCCpfL8sH/99cr/FHv5fTDT+dPpj7C45iwmRJ7Reji74wYb7sCM71+Zmyd8og+lK2+HfHNn7tZNAxUBvMmFwcowubBoBEP6twdLmjHoKNFkQZo5DYUsdjlSXQW8yCv52eamjGVXd7ciNScLK6CRBmmjdCgZASmAYEvyDcbymHKfrK2VZ7HF4ahK/P/4hkgJCcW/aEtG2HdYolbgrdTHeL8uni5wSAOGwAnzXFPpGveB3UhmQwsOhrq8T+8qLrL6k1Gg24VjNJRS3NmBjYjpSgyNEe5ooWQU2JqZjWVQC3ik5i4b+blne5y53t6Gqp13UbYezw2IwODmO80019GCiBMCGEgCjkQJNblnv+Cj2VxSJbonUxNwM3ik5i4ttjdiSkg0/FzfRxtBBo8UTy9ajc3QIrxWckOW8nKtthwta6rAzOxcRXn6i28c7k7MwOjONmt4OuvAt+dyjEFxNACwfCpMMS5eS2zdr0GN/RRH+68RHol4f3TLUhz+c+AjvlJwV/TKuIDdP/NvmB/Bg1kooFQpZnlcz+nn89exh/PnMQUyLrOwuwzB4MGsFfJxd6QZACYBtjADwkv76SMWAhWbmrpTo/c2R93C+qUYSa9t5nkdZRzNeOPLe5/oNiPKMZhikBoXjZ1t2IjssRrbnWetQP35xYDfON1aLqtugRqnCIzmroVWp6WZACYDlbwaEiEV9fzd+d+xDvF+WL8mmKHNGAw5UFuN3xz5Evci/t6uVStybtgT/uvkBBLl7yvJ843gO+z85XuOzM6LZL09HZzyYuYJePygBkP4IAEOnMfkaw9OTeKPwFF45fxSDU+OS/z2DU+N45fxRvHLhmOjX47vY2eO7q7bgWys2iboroiX1T47hVwffQWFrnWj2Kc4vCMujE+nmYAE0CVDAEQC5rkUmX09vMuJcYzVO1VXCxNlev4j6vi40DfQgI0T8bYfDvXzxkzsfQnFbPfaVy6/tMA/gg7ICNPT1YGdOrigqCW5MSEf78AA6RgbpZkEjAAvPYDJZfBtqJSUA5As320++mf/68F4cq7lkkw//q67OaXjh6Psoaq0X9ZwGlmGQExaLvC07kBocIctzs6a3A/95aA/GZqatvi8KlsWDmStE3Y+CEgAJE6JIj4YSAPIZrUP9+MOJfZKYNb+QZvTzeL8sH7899oHo1+NrVWo8mLkCP950PwJcPWR3jk7MzeLXR/aipsf6y/HcHZywJTmbbhyUAFggATBYvo2oTqTVt4jQN9Ur6+b/cuYgesdHZBuHwckrbYd35R8XfadMV3sHfG/NVjy5fAN0MpuVbuY4vFpwAmfqL1t9XzJCoxDjG0g3EUoAFnoEwPIJgFTbc5KFYTSbcLy2HL8+vBdlHc2yLEl7LbW9nfjNkfewv6JI9NUyo7z9kbd1J7akZAkycVhMDlZdxIflhVY/b7elL6WXKUoAFnoEwPKfAIToOEjE6XJ3G1448j6O1VyC0WymgFzjLfN8Uw1eOPIeLnW2iPumyTBYFpmAn27ZgTi/IFkdp4LmWrxReMKq9QKctHa4IymTLhpKABbOrAAJgJOORgDkaHp+Dm8UnsLY7DQF42tMzM1id/EZSXTOtFNr8OiStfj+unvg7uAom2NU1d2Bl84dteokzozQKISKuCU1JQASMy/AJwB3e+neJKiCwa2jEtC2HTMfZ1f8cON2fHPxGmiU8pil3jTYg7+dPWS1JIABcG/aElE2M6IEQIpvaQJUW3PW2Yu2berXoe/VhHz1AynePxh5W3ZgRXSiLBLmlqF+vF54wmolzr2dXLE0Ip5OPkoAbt/I9KTlbxIMAzd7JxoBIMRGKRUK3JGUiZ9s2YEYnwCb/701PZ14t+Sc1ba/Nn4Rza2iBOD2jc5MC1Lxi7pbEWL7HDRaPL5sPf55zV1wsbO36d9a1tGMo9VlVpkYqFGqsDo2hU44SgBuD8dzgkzS8ndxp2CLGM/Txw6ygNe7qzt+vOl+bEtfZtPfq0/UVeCVC8esssIlOywGXo4udLJRAnB7hgX4DODvSgmAmFFXSGKJcyozNAq/uOthLItMsNnf2dDfjfdKzwu+XQXLYnUcjQJQAnC7CYAA3coCXD3oezqNABAZUimU2JKShX+94wGEuHvZ5G+81NmCC001gm83JTAMno7OdJJRAnDrRgQoR2qn1sDLieYBECJXLjp7fGfVnfiHlZttsu3wx5dL0D48IOyDjGGQG5NEJxclALdOqH7l4Z4+FGxCZC7M0wc/ufMh3LUoByxjO7diM8fhreLTglRX/azUoAi42TvSiUUJwK3pHhsWZEVrGCUAhJBP3lyXRMTh53ftREZIpM38rvHZGbxXli/oNhUsi5XRNApACcAtmtHPC1IPINLb36YyfkLI7dEoVdiesRzPb9gGXxtZKny5uw3lAvd1yAiNhDOVXKcE4FZ1jAxafBt2ag2C3T0p2F9gr9FApVBadR+oXr/tGp6eFP0kT09HJzy77h48umQttDZQVnhfRRFmBKiyepWSVWAFjQJQAiDmBAAA9bS+BgeNDr+462FsTEy32j6YqW6/zSrvbMG/f7wbLUN9ot/XOL8g5G3dic1JGZJemjqjn8e+iiJhRwFCIq3+IkEJACUAXynBP5iCfQ0KlsWqmGT8dMsOxPgGUEDIgpqcn8NfzhzCX84cxOT8rOivhZXRScjbskPS94vyzhY0DvQItj2tSo2kgBA62SkBuHn9E6PQm4wW346Xowv8JFQVUOiRUweNFo8vXY9/WrMVzjp7OjHJgmoZ6scvDuzGh+WFMJpNot5XO7UG31i8Bs+tvxeeDtJc676vokjQ0bXM0Gg6ySkBuHkcz6N7dFiQbaUEhkkmLgYr3SQDXT3wr5vvx/0Zy6GgKn1kgRU01+InH72BS53NVutqd6O8nVzwg4334RuL10iuq+jg5DgKW+oE216Ypw+VB6YE4NY0D/YKsp1FQWFgJfJQm5ibsdq2GYZBekgkfnH3I1gaEUcnKFlQJo7D7uKz+M3hveibGBX1vjK48vnw51sflty1cLy2HPNGg2DbywiNopObEoCbV9PbKch2XOwcECWRlqFCJUVfRaVQYuuiHPx48/0IdqNVFGRhDU9P4XfHPsSr+ScwK3ARm5ulVCiwdVEO/nntXVBLZDRg1qDH2cZqwbaXFhxh0w2YKAGwkL6JUYwKUBYYALIk8q2qsLleNAOkrnYO+MfVW/Dd1VvgoNXSCUsW+AWgA3n73sTJukrRrwrxd3HHjzc/AHuNRhKxPd9YLdiyQEetDrG02ooSgFtR19clyHbi/AIlMcnNYDaiX2TDo0Funvh/dzyErYuyqYsfWVA8gCPVpfjpvjdR09sp6tkB9hotnl17jySKi+lNRkFHARIDQulkpgTg1t4CBDkADItlkfGSiMl7pRfEdwIzDJZGxOMXWx9GalAEnbhkwR9Yr+Yfx2+PfSBYr5Bb4aSzwzcWr5ZETAtbagWbCxDrG0ifASgBuHmtQ/2YE+gkzQ6PgU6lFn1MOkeHUNfXKcp906hUeDBrBf5l03b4OrvRCUwW1MDEGH5z5D3sLjmLeaNRlPsY5xeEADcP0cdy3mhESVujINvSqdQI8fCmE5gSgJtj5jg09HcL8/BSqpAdHiOJuLxecBKTc+ItoOJm74hn192Np5ZvlERSRaTlUkczfrLvDeQ314ITYVnhbWlLJRHHC001gsUv3o+KrlECcAuqutsF29aKqERoJFD728Rx+O3xDwSt730rIr398NMtO7AhIR00O4AsJJ7n8VF5IfL2vynYS8KN8nVxl8R9ZGx2WrDYJVACQAnArajt6xTsM4C9RiuZuQCzej1+dfAd9IyPiHo/FSyL1bHJyNu6E/H+QXRCkwU1ZzDg5fNH8T8nD4imiRQD6awsKmqtF2Q7rvYO8LGRDouUAAj5tms2o7KrVbDtLY9OhE4tjeU8BrMZfzj+EfaVF8JkNot6X+3UGnxz8Vo8u+5ueDg40YlNFlTH6CB+dfBdvF+WD4PJ+mWFI7x9JRG3+r4uwQqMxfnRCwAlALegrL1ZsG3pVGqsjVskqfhcaK7FT/a9gUudLaIvperr7IbnN27Do0vWQqWkbmFk4d9o/99Hr6Owpc6qbYdddA6SiBfH86joFOYFK8LTj05QSgBuXvvIAPomxgTb3pKIWMkNVxnNZuwuPoP/OLhHsG6Kt4r55G3g51t3Yo3Eki0ijYfaB5cK8MuD76B7bNgq+6BWqSQTrwqBRlgD3TwlU3adEgCREbKJBcuwuDM5S5JxGpudxv+cOoBdF45jWuSTBJWsAuvjU/HTOx9ClLc/neRkQU3MzeK/TuzD384dwdT8nOBJrlR0jw0LUl9Bq1LB28mFTkxKAG7epY5mQdf+Rnn7Y1FQuGTjVdvXiZ/vfwuHqi7CxIl7foCDVocnl2/A99ffA1d7BzrZyYJqGujBzw+8jY8vl4h+roy1VPcIU3Qt2J3qAVACcAv0JiPKOpoE3ebWlGzYa6Rb554HcLr+MvL2vYXa3k7R76+Pkyv+ZeN2SSde5KtZsyLc2YYq/GTfm6IfGbMGocquB7t7UbApAbjFC7ixChwvXGMQe40WW1KybSJ52pV/HC8e/QD9k2Oi3leGYWiVgA1ztbPuCI/RbBJ9/Qxr6BgZEKT7YpA7dRClBOAWjc1Mo7KrTdBtpgaF28wb6cDkGH579AO8WXgKcwYDnVCEEABXJk42DVi+3binowvsJLLMmhIAETrTUCX4Qre7Uxdb/c1lIVV2tyFv/5s43XBZ0BEVQoh4tQ73W3wbDAB/V3cKNiUAt6Z3fETw79k6lRoPZa20qY5WHM/j0OWL+Nn+t9E40EMnFiEy1zbUL8h2PBycKdiUANy6o9Wlghf5CPHwxh1JmTYXy1mDHi+dO4LfH/8Qw9OTdHIRIlP9k2OYE2AeAM3xoQTgtvRNjAm2bOWzlkbGIyMkyiZj2js+il8f3ot3S86JttUqIcRyeJ5HtwC9RSgBoATgth2pKbPK9+u7Uxcjysd2i9aUdjQhb/+bKGqtt2opVUKIFV4ExgRIABwpAaAE4DYNTo6jqLVB8O2qFAo8sXQ9Niak2WxszRyH98vy8fMDu9E82EcnGyEyIUR3UXd7JyoJTAnA7TtWcwnzRuGXszEMg1WxKcgOi7Hp+E7r5/DXs4fw5zOHMD47QyccITZuQIA6IQqWhbOdPQWbEoDbM6Ofx4m6Cqtt/560JUgKCLH5OLcO9eFXB9/B/spiGKmUKiE2a3h6UpBl1p60EoASgIVwvrEGveOjVtk2A2Bn9ipZNLLhAZxvrMZP972BkrYGmh9Abu2aoaFfUTOYTJiam7X4dhwkXGKdEgAR4XgOH5UXwFqPI4Zh8PiydYj0kkc3O6PZjL2lF/Cfh/eix0qtVm+FkqXLjGJGbsTIjOWXA2upGiAlAAulbXgApW2N1juADIsnl6/HoqAw2cR8dGYKfzixD6+cP4pp/Zzo99dBq8ODWSvhrLOjC+ZrOOnscG/aEjhodRSMWyTl8bFJAUYA7FRqOkkoAVg4+yuLrTpRjWEYPJSVi5XRibKKe31/N36+/20crS6DmRN3WeHUoHD8cOM2rItPhUqhoIvmCxQsi2WR8Xh+w302P8GVfEUCMG/5hF6rpgSAEoAFNG80YG/peatn3puTMnHXohzZve2cqKvAT/a9gYquVlG//agUSqyNW4QfbtyGtOAI0BfpK+L8gvD8hvuwJSUbGqWKAiJjU/OWHwHQqegTACUAC6xxoAel7Y1W348lEXF4bOlam+odcCMMJhPeKjqN3x37AH0To6LeV2edPR7IXIF/XL0FQW7ybVHq5+KOf1i5GY8uWQs3e0e6iSxYVizdjwBCdArV0QgAJQCWsL+iCCMiqGkf6xuEf9m0HW4O8rup9k+M4XfHPsRbxacFqS1+O4LcPPGdVXfi3rQlsJfRzGQ7tQZbU7LxvTVbEebpQzcO8n+JvNkkwAgAJQCUAFjAvNGIN4tOi+J7tLPOHs+vvw8pgWGyPBYVna3I2/82TtZVinp+AMswyA6Lwb9s2o518alQsrY7P+Dqd/4fbdqOpZHxVJGNfDkBMFm+F4iaPjNRAmAp3WPDOFxdKpob7o7sXDyUtVKWN1uO53CkuhS/OPA2Gvq7Rb2vGqUKa+MW4dl1dyPGN9DmjkWktx+eWXsXtqRk0xsYuS4hin1Zo4+LWCkpBAvvXEMVwjx8EOcXJIr9WRQUjjBPH7xy/pjov49bwoxBj5fPH0WAqwcezlkl6u/Nno7OeHzpOtT3d+NARTEGp8YlHXsvRxfcmZKFGJ8AujGQryVEkS8qJEYjAJY9wQDsLjmLoakJ0eyTs84ez667Gw9krrDpYeav0j02jP84tAd7S89DbxJ32+EYnwA8u+5u3JmcJck3Zp1KjU2JGXhm3V308CeiwnGUAFACYGHzRgN25R8XXX/7tOAI/GTLQ4iW8U25pK0RP933JvKba0X9NqBgWSyPSsCPNm3HMol8M2cYBmnBEXh+433IjUmSbbJJRJwAgBIASgAEMDQ1gXdKzoruIaNTqfHEsvV4esVGWc0+/ywzx+Gj8kL8+8F30DbUL+p9tVNrsCUlG99bcxfCPX1Fu5/hnr745zV34YHMFXDQUCU/cvOEKJLFcTQHgBIAgdT0duBAZbEo9y3Cyw8/ufMhbE3JBsvI81SYnJvFn84cxJ/PHBR922E/Fzd8a+UmPLZ0LdxFNI/hal2Dp1dugp+LG1305JYJUQiK5gD8H5oEKIDzTTVwd3DCkog48WWADIOlkfHICI3CR5cKUdrRJMtj1DrUj18efAfZYTG4MzkLaqV4L41Y3yBEeQegsKUOR6rLrDafQaVQIjcmCbnRSVBSeWOyEAmAyvIJAEcJAI0ACO1ARREMJpN4LzylCvdnLsfzG+6Dt7OrbI9TUWs98va/hUsdzaKfH7A0Mh4/2HAfUgUuK8wASAoIxQ823Iu1cYvo4U8WjFaACa+zIi8QRiMANsjH2U3Ub5VXeTo647l196BxoAdvFp7EnNEou2NlNJuwu+QsjlRfws7slQhy9xLtvjrr7PBg5gosi4zHvvIitI8MWHR7Aa4e2JqSjRAPb7qoyYJz1Fq+Y+bU/BwFmkYAhCWWmgA3KsrbHz/dshObEjNkW7FtbHYKfzx1AH87d1j0N40AVw98e9UdeDhnFVzsHBb873fSXmnT+0+rt9DDn1iMkwAJgBRaiNMIgI2JlWB1NwXLIjcmCVlh0dhz8RxqejtleeyaBnrxi493Y2V0EtbFLxLt0rarQ/OxvoE401CFU/WVMN1mZTUFy2JxeCzWxadBq5J2CVUqPCyFEQDLrx6ZphEASgCEPqkDXD0ku/92ag2+uWQt+ifGsCv/OEZnpmR3DHmex+n6SuQ312Bb+jIkB4aJ9oFyte1wRkgUjlSXoqyj+Zb+nkT/EGxOzhTVigNyA+eqhPfdXYAGZvQJ4P/QJwABRHr7g7GBYXQfZ1f8aNM2fHPxGtn2bb/advi3R99H7/iIqPfVxe7K8rxv3eTyPC9HFzyxbD0eWbyaHv5EMGqlEk46e8snAPQJgBIAIYXa0DdTBgzi/YORt3UHVsUky3ZYdWByHL8//hHeLDwl+lnFN1qg52qb3u+vv1vWlSKJdXg6OAtyP6ERgP9DnwAEYIs9z5WsAhsT07EsKgHvlJwVfbc9S6nsbkNVTwfWxS/CyugkKFhx5tRXS/TG+QXhdH0lzjVWf9ommWVYZIZGYUNCmmwrQwqH1qBfj5eTi8W3YeLMtAyQEgDh2Gu08HR0sdnf56DR4oll69E1OoxXC45jcm5Wdsf4StvhMpxrrMb9mcsR5yveFR9Xm/RkhEThQGUxTGYztqRkw0cWtR8Y2gcR83d1t/g2RqYnqRIgJQDCvv3L4ZIPdPPAv21+ACVtjfiwvODTt0s5mTXosevCcfi5uGNndi48HZ1Fu6+ejs54bOk6ukCJaAgxUXpoapIC/Rk0B8DCgtw8ZfNbGYZBVlg0fr71YSwWYdljofSOj+A3R97DuxfPib7tMBEavX1e894BwM/F8iMAw9MTFGxKAITj6yy/5ihqpRJ3L8rBjzffjwAZJUBfVNrehJ/uexNn6i+Lri20mFksaRLFUBx9ArgWH2c36AQoA9w/MUbBpgRAOEJktWLlaueA763egn/I3QwHrTzbw5o5DgerLuKFI++hqLWevj9+zbvx5e42vHj0A8u8J1PoRSvcS5g2173joxTsz6A5ABbkpLMTpLKV2IV5+OD/3fEgCpprcaCyBBwvv/kBk/OzeL8sH8WtDVRL/xq6x4Yt38uAXr7FmwB4Wj4BMHFmDE6NU7ApAaC3f6F9tu3wh5cKbrk6nS086P50+mMkBoTijuRMuFqgbr+kEqO5WRyvLUdxW4NMRkdoGOLL9wYW4QIslR6YHJfl5GRKAKzES8SzwK1Fo1ThgcwVWBOXglcvnMCADDPyq0PddX1dyI1JwsroJKhk1lLXzHEobKnDkeoymU2UpGGILwr19IZOrbH4djpGBinYlAAIx43KqF6Xh4MznttwLxoHevBG4UlZTpIzmk04VnMJxa0N2JiYjtTgCFk8Hur6OvFReZEse0qQLxOqbkb78AAFmxIASgDE5Erb4R04WVeBk7UVshwgnZibwTslZ1HS1oCtKTk3VbdfSnrHR7G/oggtQ3038E/zNvq2TJ8AvpQACNQq3aLzSygBIF8kRCOV6p4OqJVKRHn7S/ckZBVYH5+GZZEJePfiOdTKtO1w61A//nDiI6QGhWNzUqbNTCCdNehxorYc+c214GgVBPmMAFcPeDg4WXw747MzGJuZpoBTAiAMBoCrAAnA4NQ4DleVIszTFzuyVsJJZyfZmNmpNXh0yVr0jI3g9cITGJXhBcvzPMo6mlHb24ncmGQsi4qHkpXm/AAzxyG/uRYnassxZzTQTYF8SWpwhCDbaRrsoWBfA9UBsBCdWiPIxK6rWW3rUB9+8fFufHipAEazWdKx83d1x482bseDmStkNznuqjmjAYeqLuJ3xz5EXZ/0RkTq+7vxu2Mf4kBl8a09/C0wUEDT70T28GFYpASGCZMADPRSwGkEQDhf1XZ1IX1xIlVBSx0utjfh3rTFSA2KAMNI87bHMAxSgyOQFBCKozVlONtQJcuvp0NTEzhUVYZgd2/YCTBT+nbNG414v+wCKrpaRfe0po8P4hLrGyjIZy6eEgBKAIQmVFvVa82kNppNeKfkHI7WXMIj2asR4OYh3RNUocDmpEwsjUzAW0Wn0TbcL5tz6OqSyXj/YNG/vXI8j+LWeuyvKIaJE+cIFI0AiMviiFhBttM9OoRp/RwFnBIAIRMAy7+t8TyP8dmZ6/752Mw0/uvkPkR5++OBzOVw1Ep3foCzzg7fzt0sm7bDq2NTsDZuERSs+L/SdYwM4vXCkwt7TGx1EYAQJDDU4eHghEgvP0G2Vd3TQecEJQACJwBqy48AzBr0N/S21TjQg18c2I218alYFZMsiYfK9QS6eeBfNz+AopY67K8strnKXvF+wdiesUwSw/0Tc7N4s+gUra8mN21JRJxgnydreikBoARAYFoBOlsZzKabeik4VnMJZxsu44HMlUjwD5ZsbFmGweKIOKSHROGjikJcbGuU/PniaueARxavFqQn+u0ymk34+PJFFDTX0oVObv7lSKNFVli0INsamprAwOQ4BZ0SAGEpFJZ/yzaYTDf97+hNJrxWcAI+zq7Ymb0K3k4uko2xWqnE9vRlWBu7CG8Wn0LnyJD0LkCWxbaMZVgUFA5G5GPePHiUd7bivdLzkl9pYsvE/gVgWWQCVAphHj23PRmVEgByazd2yy9fM5pNt/zv9k+M4cWj7yM5MAz3pi0RpBe3xd6e7R3w3VVb0DLUhzcKT2FGPy+J/V4cEYc7kjIEuxnejt7xEbxecBIjVL6X3AatSi3Y5D8AKO9soaBTAmCFEQBWnCMAX1TZ1Yqq7nZsTsrA0sh4sIx0Z16Fe/riJ3c+hPzmWnxcWSzaqnOhHt7YkZ0LZ5296GM6o5/HuxfPoa6viy5qcttyY5IEe9noGh3C0NQEBZ0SANtMAG5nBOCzOJ7DgcpinKyvxI6slZIuK8wyDJZFxiMzJAoflBfgkojaDjtqddiRnStI7/PbZeLMOF1/Gcdry2XSppdYmpPODssi4wXbnlxbjlMCIAJCfM81LfAM+Fn9PF46dwSBbp54OHsVXO2l26teo1LhwcwVWB2TjNcKTmLQim2HGYbBXYuykRMWK/rCTDyA2p4O7C45a4NteuWyrlCcCdv6+DTBPncZzWZcouF/SgCsRYjlaZYqk9s1OoRfHXoXOeExuDM5SxLfqK/Hy8kFP7Bi2+Gs0GhsScmGWin+GA5PT2BX/gkM2uysaRrJsJaUwDBkhkYJtr3KrlbMGfQUeEoArEOIamgapcqif39hSz1K2hqxJSUbOWExki0rDPxf2+Ez9VU4VnvJ4sPaPs6ueDhnFbwcXUQfm3mjAe9fKkCFzb8xUWUha7BTa7AlJVvQbRa21FHgKQGgBGAhRjI+vFSA0/WXsTM7F8HuXtI92VkF1sSlYHFELN4pOWuRiW1alRo7s3MR7RMg+nhwPP/JhMkScDxHFy2xiDuShW1t3TU6hM7RIQo8JQDWYzZb/oYqRAJw1fjsNP7n1AGEe/riIRtoO/zY0nXomxjFawUnMTI9uSDvlusSUpEbLY1Ki1JbMkmkKdzTF+khUYJu82xjFQWeEgDrMpgt/63ZGt+VWz5pO7w8KgEbE9Ml26seAHyd3fDDDfehrLMZ75flw3SLxW0SA0KxLW0JdBIo3zs6M4U3i06ha3RYdtckfQAQlkqhwH3pSwWN+9jsNKq6qfQvJQBWNqO3/AQUjUpltd93rrEaRS312J6xDEmBYZK9uTIMg/TgSCQHhOFQ1UVcaKq54X/Xy8kFD2evgo+zq/gTUpMJ+yuLUNzaQBcnEcTmpEx4ODgJus3zjdX0OYsSADEkAJYfWlWyCjhqdZiat06rS4PZhDeLTsOzpgwP56yGr7ObpN9WtqZkY2V04idth6/f4EatVOLBzBWI9w+RTJvefRVFNtc4iYhXcmAolkTECbrNqfk5FFGCSwmAKBIAgzDfVt3sHa2WAFw1NDWJ3x37EHG+QdiesQz2Gq1kj5uzzh7fzr0DXaPD2JV/HFPzn29xuyY2BWsk0qZXLq2Tibh4ODjhvrRlgm/3bEPVghVHowSAiH4EAADcHZzQMTIoit9c29eJnx14GxsS0rAyOhEsI+22w/92xwMoaWvAvvIihHn64IHM5XDUin/y47R+Hu+UnEVDfzddiERQKoUCD+esglbgz5NT83MooKV/lACIJwHQg+M5iz8E3e0dRfW7eZ7H4apSnG2ows7sXERKvKxwdlgM0oMjoVSIf7Kj0WzG4epSXGisppI3xCruTVsKPxd3wbd7sq6C3v4pARAPjucwPjsDNws/oN0FnmRzo2YNevzt3BEEuLrjwaxceDk6S/ciEfnD37bL9xKpWB6VgLTgCMG3Ozw9iaLWejoAlACIy8jMlAAJgKOoY9A9NoIXjryHjNAobE3JFrR2gRz0T47h1fzjGJmmNr3EehYFheOOpEyrbPtwVSlNcKUEQHxGp6cACxfO83V2A8uwol/6crGtEWXtzbgjOQNLIqTddlgMZg167Ll4HjW9tOaZWFeMTwDuz1hulVLh7SMDqOpuo4NACYAIE4AZy7+VaZQq+Di7oHd8VPTx4HgO+yuKPykrvAphnj50ktx0DHnkN9d8Ur6XvvSTLxPyrAh088TOnFVWWRXD8Tw+ulRI810oARCn4QUoMXsjgt29JJEAXDU1P4c/nzmIUA9v7MjOhbPOnk6WG1Df1423i09hzkjf+W8JDTotKG8nFzyxbL3VPuvlN9eiZ3yEDsRtYCkEltMr0MkZ7O4tyfi0DQ/g3z9+B/sri265DK8cjM1M479O7MMrF47Sw5+IQoCrB761chPsrFT+emp+DsdqLtGBoBEA8RqZnsS80WjxNbFS7tAHAOcba1DQXIe7UxcjMyRK0m2HF5LBZMKHFYUobWukYBDRCPfyxaNL1lp1Qu/+iiLMGw10MCgBEC8eQP/kKEIs/Ibu4eBk1ZLAC8HMcXiv9AJO1VXi4ZxVCHD1kO15w/E8Stoa8FF5Ic1uJqIS5xeEndmroLLi0tja3k5UdLXSwaAEQPx6xy2fAABApJcfLnW2SD5eozNT+K8T+xDn90lZYbVWVudL23A/Xi84iWkZt+l11tkDNAokOmnBEdiescyqFT5n9PN4r+wCHQxKAKShe0yYtqsJ/iE2kQB8Nsv/2b63sDYuFatikyVRe/92jM/N4M3CU6Ip62wNCpbFluQs5ITH2ux8PSku3GAZFhsT07AiOsnqx+WDSwWSHumkBEBm2r+iq9xCivENgEqhtKlymDyAY7WXcKaxCg9mrkCCf7DNnR8msxnHa8txqr5S1teJXApFSW1gw16jxY6sXER6+1l9X8o7W3CZ1vxTAiAlQ1MTmJybhZPOsk1kVAolorz9bbIwjMFkxGsFJ+Dj5Iod2bnwcXa1gTdBHpXdbXj34jlZr4Dwd/HAwzm5oi1pLecRgFAPH+zMyYWTCBpgjc1M48PyQnqgUAIgwVGAkQEkBYRafDsJ/sE2XRmuf3IMvz32AdKCI3DXosWCdxxbKH0To3it4ISsy/faqzV4IHMFYnwD6QYhtlEKAMujErEpKV0UHT1NnBlvFJ3CnEFPB4cSAOlpHeoXJAGI8wuCgmVtfuZ4WUczLnW24M7kTEmVFaY2vVe+J29ISMOK6ATBHy5iOEsEOVVvY5jB3d4R96YvRaSXn2jOmf0VxegaHaIHCSUA0tQ82CvIduzUGsT5BqGqp93mY8rzPPZXFONUXSV25qxCuKevaPfVxJlxoubKd345ly1NDgzDvWlLoFOp6aYgwsRsSUQsNiSkQ60Uz2OhsqsVhS11dIAoAZCugclxDE9PwkOA75w5EbGySAA++1b9lzOHrtQkz861ePfFm0pSANT3deHtotOYl3GbXm8nFzyUtdIqfeLFl7iKb5/8Xd2xLX0Z/EV2fHrHR7G3lJb8UQJgA+r7urA0Mt7i24n08oO3kysGJsdkFd+u0SH8x6E9yAmPwR3JWVArrHtqj0xP4tX8E+iX2XH4LLVSiW3py5AcGEZl+EXIUavDmtgUZIfHiOJb/2dNzs9iV/4x6E1U+poSABtQJ1ACAADZYdHYV1EkyzgXttSjpK3RamWF540GvFd2AZVd8l2uxABYGZOEdfGpULIKuvg/GxsRZEIapQqLI2KxKiZFlBNpjWYzXss/gfHZGTphKAGwDa1D/dCbjIKsc04PicTh6lIYTCZZxvpqWeETteV4JGc1At08Lb5NjudwrrEah6pKwcu4TW+cbyC2ZyyHvUZ8FRxNIpgca81TQ61UYmlEPFZGJ0JnpSY+Xx8fHruLz6CTJv1RAmBLTJwZdX1dSAkMs/i2tCo1UoMiUNRaL+uYj8/O4L9P7keMTwAeyFxhsYdSy1AfXi84iVkZL1Nys3fEI4tXi+478meJoYIcK0BFyy/mGE46O2SHxSA7LAaOWp2oz6N9FUWymsNECYCMXOpoESQBAIBVMcm42N5IzWQA1Pd3I2//W1gVk4x18akLVlZ4dGYKbxSeEqzcsxipFArcnboY6cGRou/i2Dlq/TLLKkE+iVxJAQJcPbA0Mh4pgWGSKKV9uLoU+c219KCgBMA2NQ50Y0Y/L8jwqKu9A7LCYlBAF9SnTtVXIr+5Bg9krkS8f/AtT0wzmE3YX1GMYhmPsDAAlkYlYGNCulU7w92Mhr4uq++DQmH5B7G9Rotn1t4NPxc3yZxPp+sv41SdvMthUwJg48wch8ruNiwOjxVke6tjk3GxrdGm+gPcLr3JhNcKTsDbyQUP56yGt5PLDf+7HM+huLUB+yqKZD2yEubpg4eycuGss5PMPo/PzWDOaP0Z5QrG8smSg0YHB41OMsemoLkWh6ou0s2JEgDbV97RIlgC4KS1w5KIOJxpuEyB/4KByXG8ePR9BLt7YXNSBgLdPK87Y31qfg6VXa04XFUKg4yTKQeNFjuycxEhoipxN+pCU404brgKli6+zz78W+rwkUxXLFECIEMdIwMYmBy/qTfP25Ebk4Si1nrMGw0U/Gsej0H86fRBAICLnQPCPX3gpLODwWTC4OQE2ob7YeLMso6RgmWxNSUbWWExkim7/FnzRgPONVSJJpbkitP1l+nNnxIAeeE/yXrvXpQjyPbs1BqkBUfQ5JobMD47jbKOZgrEZ2SERmNrSpak2/S+WXRaFCWYGQAKhhIAADhUVYrT9fTN39robLSCsvYmzAv4PXJdfKoo12UT8fJ3dcePNm7D9vSlkn74n2+qEU3zJUednehXSlgax3N4vyyfHv6UAMiX3mREeadwb5p2ag02JKRR4MkNnStPLtuAf15zF9wF6F1hSSVtjdgvou/LHhKP50Lc917NPyn7+iRiQp8ArKSgpQ7Z4bGC1UjPCo1GWXsz2kcGKPjky28CDIMNielYEZkgSLEaS79lHqgowYXmGlHtV4Crh2zPr4m5Wey6cAw94yN0sVECQPonxlDf14lY3yBBtscwDO7PXI7fH/9QtiWCybUlBYTivrQloi0PezM6RwbxasEJUVT9+yJfZzdZnl+do0N4Nf+4KI8JJQDEak7UVgiWAABXhiA3J2bgw/JCCj6Bl6MzduassokH09T8HHYXn0HTYK9o99HT0Vl251hRaz0+Ki+kiqSUAJBrZcZNg72IFHBddU5EHGr7ukQzMYoIT6VQ4v6M5UgKDJV8m14TZ8bRmks4Uy/+Wheu9g6yOccMJhPeK7uA8s4WuuAoASDXc6quUtAEgAHwUNZK/OH4RxibnaYDICMMgKWR8diYmCGZ8r3XwwOo7+vCG4WnJFHpUsGycJRQdb7bMTg5jtcLT2FgcowuOkoAyFdpHuxF61A/wjx9BNumnVqDh7JX4i9nDtHQnExEefvjwawVkioRez294yN4reAkRmemJLPPfi7uNr8EkAdQ3FqPA5XFNM+IEgByow5eLsE/rt4i6HBsiLs37kjKxD4qw2nTXOzssSM7FyHu3pL/LbMGPd69eA61vZ2S2/d4v2CbPs/GZ6fx7sXzaBbxHAxCCYAodY4O4XJXG5IDQwXd7tLIeAxNTaCgpY4Ogo1RsCy2pGQjJyxG8m+eZo7D2cYqHKkqFUVFv1sR6e1rs2/9pW2N2F9ZTOXGKQEgt+pQ1UXE+wddtyGNpWxdlI3h6Uk0DvTQQbAR2WExuDM5C2ql9C/v5sFevFZwUvIPF28nV5s7z4amJvBheQGaBuitnxIAcltGZ6ZQ1FKPpZHxgm6XZVg8nLMKfz5zCL1UpEPSgt29sDN7FVzs7CX/WwanxvF6gW1MJHPW2Um6nPIXGUwmnKgrx7nGappDRAkAWSjHasuREhQm+EQtrUqNp5ZvwJ/OHMTg5DgdCImx12jxUNZKRHn7S/636I1GfFheYFNNmTJDo23id/A8j/LOFhyuLsM4rSCiBIAsrDmDHocul2J7xjKrPESeXLYe/3v6IF3cEsEyLDYlpmNZVDxYRurle3kUNNdif2UxeJ63qeOUEhgm+d/QNNCLg1Ul6BmjUUJKAIjFlLY3Ij0kUtBlgVe52DngO7mb8ZezhzEyPUkHQ8RSgyJwd2oOtCq15H9Ly1AfXi84hVnDvM0dJ41SJekKgF2jQzhcXUrf+SkBIELgAXxUXoDvrbkLCis0ZXGxc8C3VmzC384dxtDUBB0QkfF1dsWO7FXwdnKR/G8Zm53Gm4Wn0Dk6ZLPHKykwRJKrMNqHB3C64TLqejvB02VHCQARTt/EGE7UVWB9fKpVtu9iZ49vrdyEv5+n7l1ioVWqsD1zORL9QyT/WwwmEw5UFsuiLWxWaIykXj7q+7pwqq6SuoZSAkCs6VRdJeL9gqzWQtRJa4dv596BN4tOoa6viw6IlTAMg3XxqciNTrLKiNCCPmB4Hpc6m7G39IJsZo9L4ZjNGvQobW9CYUsdhunTHyUAxPo4nsPe0gv47uo7Ba8NcJVaqcQ3l6zBh5cKZfG2JjYxPgG4P3MFHDRayf+WrrFhvHrhOCbnZ2Vz/By1Ovi5iLfTYufoEIpa6lHR1QKj2UwXHCUAREx6x0dwpKoMdyRnWm0fWIbFvWlLEOLhjffLLtCNQgCudo54OGcVAt08JP9bpubn8HbxaTQP9snuOGaGRotudcbY7DQqOltxsb2R5vgQSgDE7lxjFaJ8/K2+xjstOAIeDk54o/AkJuZm6cBYgEqhxL1pi5EaFCH58r0mzoxjNZdwWgJtei2BAZAREimKfRmamkBtXycqu9rQZcMTLgklADaHB/BOyVk8s/ZuOGqt28kt2N0Lz667B3tLz6O6p4MOzgI+LFZEJ2F9QqrVPvcs2PnK86joasXei+dh5OQ7WhTlEwB3ByerbNvMcWgd6kddXyfq+rrouz6hBEDKpubn8FbRaTy1YoPVhxTt1Bp8Y/EaFLXWY39FsSR6sYtZuJcvHspaCSetneR/S//EGF4rOEEPHAAroxMF25bRZELP+AjahgfQPjKA1qE+zBuNdHERSgBsRctQHw5VleKOpExR7E92WAyivP3xflk+NRK6BU46O+zMzkWoh4/kf8usQY89F8+jppdGhQDA38UdEV5+gmxrYm4Gvzq4BxxPNfkJJQA27VxDFYLcPJEUECqK/XGzd8QTyzegtK0RH18uwaxBTwfp6y44VoG7FuUgMzTKJtr0nqqvwPGacioW89m3/5gkwbZV3tlCD39CCYAcXJkPcA5u9o5Wqw/wRQyAjNAoxPsH41jNJRS21NMN6TpxWhwRj02J6TbRpremtwO7i89Ab6JPQJ/l7eSKZAET9PLOVgo6oQRALoxmE3ZdOI7vrt4iqravdmoN7lqUg5zwGBy8XIq6vk46WJ9YFBSOrSnZsLeB9fyDk+N4vfAkBqhr5DWti18k2MjOwOQ4tfAmlADIzeT8LHblH8c/rNwMrUpcfca9nVzx2NK16BgZxNHqMjQNyreJSJxfEO5etFhUidqtmjca8F5ZPiq76I3zevxd3ZEo4Nt/aXsTBZ1QAiBHveMjeLXgOJ5Yuh5KhfiWjgW7e+GpFRvRPjyAs41VqOnttLk2r9fCMAxSg8KxPiENrnYOkv89HM/hQlMtDl4uAcfTl/6vsiU5G0LN6jBzHMo6KAEglADIVstgH94uPoOdOavAinRCWYiHN0I8vDE0NYHzTTUo72y2ySVKOpUaa+JSkBUWA41SZRvn11AfXi84SZM7b0BSQKigLbxrezsxNT9HgSeUAMhZVU873iu7gG1pS0U9q9zT0Rn3pC7GHUmZKO9qQUlrg+TbwDIMgyhvf6yNW4Qgd08wYGzinBqdmcKbhafQNTZMF9gNUCmUgi/PLW5roMCT208AWICjgT1pu9jWCJZhcG/aUtE/gtRKJbJCo5EVGo3h6UlUdLWiorMVA5Njkog1yzAI9/TFssh4RHj7Q6VQ2Mx5JKc2vQtpXXwqXO2F+9wzNDWBxv5uCjy5/QSABwwUBukrbm0AAwb3pC2RzHuoh4MT1sSmYE1sCoanJ1HX14X6vi60DvXDJKIysq72Doj3DcKi4AgEuLiDlXhb3i/ieR7FbQ34qLxQNm16F4q/qzuWR8ULus1zjdVUd4EsTAIA8AbYyNCl3BW11sPMcbgvfalo5wR8VTKwLDIeyyLjYTKb0Tk6hNbhfrQPD6B7bBgz+nnB3vAD3TwR7xeECC8/+Di7QqWw3S9l7SMDeKPwFCapwdNNU7AstqcvE7Q894x+nib/kYVMABia4WNDLrY3Yt5owEPZKyXbWEapUCDM0+dzk6om5mbROz6MgclxDE9PYnh6EiPTU5ien7vl0QKtSgUnnT3c7R3h5egCD0cn+Dq7Idjdy+bPk4m5WbxdfBqtQ/100dyiDQlp8HNxF3Sb+c211JKb0AgAub6qnnb8/cIxfGPxGpuZke6ss4OzLgixvkFf+rNZgx5T83OYNxpgMJkwbzJ8acmhglVAo1RCq1JDq1LDWWdn02/212M0m3GkuhTnGqvpQrkNYZ4+WB6VKOg2541GXGiupeCThUsAeDAGevzbnqaBXvzvqQN4bOk6uNjAevSvYqfWwE6toYP+FXjwuNzVhncunoOJ3iBvi4NGh4eycgX/zJbfXIs5WpJJFnYEALSY1Eb1TYzhj6cO4NEla0XTO4BY4zwYxesFJ6lN7wJgGRY7s3PhrBO2fbPeZMT5Jhq1IQucADDAKIXBdk3OzeIvZw7h/szlSPQPoYDIyIx+Hu9ePIe6vi4KxgLZlJSOcC9fwbd7tqFKsImwREYJAM8zIwxDi0psmd5kxBsFJ7EyJgkbEtIlt0KA3Bwzx+FcYzUOV5fKovyyUFICwwT/7g8A0/o5mrNBLJMAgOGGaRKg7eMBnK6/jN7xUTyQuRwOGh0FxQbV9nbi7eIz0JuMFIwFFObpg/szl1vlTnmsppyOJ7FMAsDy7AhPIwCy0dDfjd8e/RDb0pcizi+IAmIjhqYm8FrBCWrTawHeTq745pK1VllWOzA5huJWKvtLLDYCwAyD6krJyrR+DrvyjyMtOAL3pC6BWkktIaTKYDLig/JClFFrWItwd3DCU8s3QKdSW2X7H5YXguOpOiOx1AgAaxo2cyxFQobKOprRNTqMB7NW0CoBieF4HgXNtThQWUIPCAtx1tnhqeUb4CTwjP+rKrta0TLYRweCWC4B4FWKTuhpBECuBqfG8T+nDmBdfCpWRifRBEEJaBzowVvFZzBLs8ItxsXOHk8t3wg3e0erbH/OaMCBymI6EMSiGAB4bs/LIwDcKBzy5ufijrsW5SDUw5uCIULjszN4s+gkOkaGKBgW5GbviKdWbIS7lR7+APDuxXMopc86xIJ4oOSTj798O8BQAiBzveMj+PPpj5EYEIo7k7PgYmdPQREBvcmIw1WlyKcysBbn6+yKJ5ZvgJPWzmr7UNvbSQ9/IohPEgCmDUAqhYPwAC53t6G+vwsro5OwKiYZCpbmiFjlWPA8yjqa8X5ZvqjaI9uqKG9/PJyzGlqV9fpnzBr0eL8snw4GES4BYHimnZYCks8ymEw4VnMJlV2t2JKSjShvfwqKgAYmx/DXs4cxNU+VuoWQFRqNu1MXWz3Z/ai8EJPz1JqZCEMBAEu23RkJhtlE4SBfNKOfx6WOZjQN9MJRq4WnozMFRQB2ai2MZjNah6ldryWxDIuNienYnJRh9QmwNb0dOFJdRgeFCKVHAQCLt29xBJhvUDzI9YzPzaC8sxWNAz1w1Org4ehM9SMtiGEYhHv6IsDVAw393dQD3gKcdXZ4Ytl6pASFWX1fpubn8PL5ozCaTXRgiLAJQM7dd0wxLPs8xYN8nYlPEoGa3k7YazTwcnKlRMCCPB2dsSgoHF2jQxifm6GALJBonwA8vmw9vJxcrL4vZo7DrvzjGKQqjkTgBODTe/dze17uBeBLMSE3w9fZFdlhMUgNjoDWStXS5MDMcThWcwlnG6tg5qjwz61SKZS4MzkLOeExotmnDy8VoKCljg4OERQPlHxa3Hrxtq1rAURQWMjNmNbPo76/G+ebatA3Pgo7tQbuDo4UmAXGMgwivf0Q7x+C3vERTNBowE0L9fDBY8vWIsYnQDT7VNbRjMPVpXRwiFVGAP4vAdi+JRnAYooJuRUcz2NgchxlHc2o6e0AcGX4WqlQUHAWkKNWh4yQKNhrtGgfGYCJRgO+lp1ag7sXLcbWRTlw0GhFs19do0N4rfAkOGrZTKydAORs2+LDAHdTTMjtmpqfQ11fF842VKFpoAd6kxHOdg5WXV9tSxiGQZCbJ9KCIzE2O40h+nZ8TSzDIic8Bt9YsgYhHt6imqsyNT+Hv549jDmDng4UsVoC8Ok18fyeV6I58PUUE2Ip3k6uSA4MRXJAqCgmX9mKrtEhHK25hIb+bgrGJ6J9AnBHUiZ8nF1Ft28msxl/O3cEbbTEk1gRD5T8X1LM88xze18ZAOBJoSGW5unojFAPb4R6+CDY3YvqCyyAjpFBHK0uQ9Ngr2xjEOrhjfXxaQj3Eud8Zo7n8VbRaVzubqMTlogoAQDw3J6X9wO4k0JDhOag0SHEwwshHt4IcfeGj7MrNEpxfDKYNxrQOz6K3vFRhHh4ib51cvNgL07VV6J5oBdy+LrMAIjxDcLK6ESEefqI+YaLd0vOoqyjmS54IooEQPmF/yUfDCUARHjT+jlU93Sguqfj0//NSWcHT0dneDo4w9PRGV6OzvBwdIabvQNYZmFLthrNZkzMzWB8dhpDU5MYnp7A0NQEBifHMTIz9ek/p1Io8eTy9Qj1EO+DJsLLDxFefhiamkBRaz1K25swa4PfmtVKJVICw7A8KhHeEviktL+iiB7+RHTJ86e+v+eVpQz48xQWIvaT1kGrg71GC0eNDjq1Bjq1GhqlCmqlCmqF8kv/Dsdz0JuM4HkeswY95gwGzBr1mNXPY2Ju9qYekFqVGk+v2Cj6kYDPJjeVXa0obKlD56j0WwkHuHogMzQai4LCJTOx9FjNJRyvLaeLl4hqBOBzCUDerl3aaXvzOAANhYeQ67PXaPEPKzdL4s3zs0ZmplDT04Ga3g60Dw9IZgmat5MLkgPDJDmB9HxTDfZXFNFFQ8SdAADAc3teOQnwqyg8hHw1R60OTy7fAF9nN0nu/4x+HrV9najt7UTLUL+olqQpFQqEefgg2icAMb4B8HJ0kWSMzzVW4+PKYtBKfyKVBOAHAP8bCg8hX89OrcETy9Yj0M1T6jcDDE2Oo3N0CB0jg+gYGcTA5JhgIwR2ag2C3DwR7OGNMA8fBLp5QiXhIlI8gCNVpThVX0kXCZFQAvDOywlgUUXhIeTGaJQqPLZ0nahnoN8KvcmIwclxjM5MY3Rm6nP/mZqfg95kvLm3elYBFzt7uNk7ws3eEe4OjvBxdoOvsyucdfY2EzeO5/HBpXwUtzbQxUGklQBcGQV4uQNAEIWIkBujUijxcE4uYn3lddnoTUaYzGbMm4wwmIyYmp/DvNEArUoNBgy0KhXsNVrYa7SiWdZpSSbOjLeLzqCqp50uCiL6BEB5zT9hcBQ8nqQQEXJjjGYTXs0/gQ0J6ciNSZLN79YoVdAorzzkAcBXxvWc9CYjXi84icaBHrogiCRcezE1zxym0BBycziex6Gqi/iovJAavMjMyMwU/nT6Y3r4E0m55giAwwx7eNrePAnAiUJEyM3Jb67F6MwUdmTnymLYW+7q+7rwdslZauxDJOe6DbJ+sPeVt3mef5BCRMit8XR0xsM5q+ErwoY05PbxAM7UX8bh6lLwNOJDpHf+lrDX/0PuXQoRIbduaGoCfzy5DyVtjRQMGzNvNOL1ghM4VHWRHv5Esq6bAOjt544AmKAQEXLrjGYz9paexweX8mHizBQQG9A7Por/OvHR5/pWECJFzFf94XN7Xn4dwMMUJkJun7eTKx7MXAF/V3cKhgRxPIezDdU4VnOJkjkieTxQ8pWltpZs2zIHYCeFipDbN6Of//RzQKiHDxiGoaBIxMDkGHbln0BZRxOt8CC2oucrE4B18amtBk+nbwJwoVgRshBZN4+WoT40DfQg1MPn0/XzRLxv/SfrK/F28RmMz85QQIh8EoAzZ87wi++70wUMs5JiRcjCmZibQVFrPQxmE0I9fMCyLAVFZPonxvD3C8dR3tlCE/2ITSYAXzsG+fz7LwVwZqYdgILiRcjCc7d3xF2pixHjE0DBEIFZgx5nGi7jfGMNfesnNuu6vQC+6Lk9Lx8CsJFCRojlJAWEYlNiOtwdqP6WNZg5Dheaa3CyrpKK+hBZJADKG/oHefyNYSgBIMSSLne3oaa3AxkhUVgXnwpHrY6CIpC6vk7sryjG8PQkBYPIxg2NAGzbs0cRgslGHgijkBFieRqlCiujE7EsKoHKCVtQ+/AADlVdRNvwAAWDyG4E4IbXIT2395V/Bs//nsJGiHC0KhVywmOxMjoJdmoNBWRhbnxoHujFheYa1PZ2UkAIJQBfmwC8/ro9tIZOAG4UOkKEHxHIDI3CiugkOOvsKCC3wMxxqOhqxen6yxiYHKOAEEoAbuZfeG7vy/8JHj+k0BFiHUpWgaSAEORExCLE3ZsCcgPmjUaUtDXgfFM1reUn5FYTgOd3v+LHKfg2AGoKHyHW5efihpzwWCwKCqd5Al+8ufE8mgZ7UdbehKqeDhjNJgoKIbeTAADAc+++8ncw/KMUPkLEQaVQINLbH2nBEYj3C4ZCxkWFhqYmUNHVitL2JozOTNHJQchCJgA/2r0rxKQwN9AoACHiY6/RIjkgFEkBoQj19AbL2H4yMDY7jdreTpR3tqBjZJBOAkIslQAAwA/2vPJXHvxTFEJCxEunUiPKxx+xvkGI8Qmwmb4DHM+hc2QIDf3dqO3rRO/4KB1sQoRKAJ7d/fdAVsE1AaB1SYRIAMsw8HVxQ5iHD0I9fRDq4Q0HjTQKDZk5Dj3jI+gYGUTTQC9ah/qgNxnpoBJijQQAAJ7b8/IfAfwjhZEQafJydEGgmwd8nd3g6+IGX2c3q1cfNHMcBibH0Dcxht7xEXSODqF7bBgmM9XkJ2ShEwDlrf7LJoX5V0qz4jEAtCiZEAkanBrH4NT45/43R60Ono7OcLN3hLu9I9w++Y+znT3s1JrbXm3A8Tym9XOYnJvF5NwsxmenMTIzheHpSQxPT2JkehJmjqODQ4gAmNv5l59796U8MMxPKYyEyINSoYC9WgM7tRZ2Gg1Y5sotRKtSg/nM7YTnecybDOB5YN5owJxBjzmjAfNGAzhqrUuItEcAAMDMOP9agclvAgimcBJi+0xmMybmZjExN0vBIETibmuN0O+3b58D8GMKIyGEECKjBAAAXtz2+G4AFyiUhBBCiIwSADAMzwLfB0AzdwghhBDZJAAAfrP9iRIAf6VwEkIIITJKAABAb9D+CEAXhZQQQgiRUQLwx507Jxme/xaFlBBCCJFRAgAAL9z/5CEw/B4KKyGEECKjBAAAjEb8EwDqzkEIIYTIKQH4r4eeHOAZ/kkKLSGEECKjBAAAfrvtyQ944FUKLyGEECKjBAAAmHn1PwJopBATQgghMkoAXnzkkRmWZXYAoMbdhBBCiFwSAAD4zX2Pl/IMfk5hJoQQQmSUAACAY033rwAcpFATQggh4sEIsZF//nCXi9JovggggkJOCCGEWBcPlLBCbOgPdz86bobiHgAzFHZCCCHE+lihNvT77Y9W8TzVByCEEEJklQAAwG/vf3I3GLxIYSeEEEJklAAAgENN9w8BfEChJ4QQQqyHscZGn9mzR6fA5EkAOXQICCGEEGEJNgnwi36/ffscbzJvAdBEh4EQQggRHmutDf/2oaeHeda8BcAIHQZCCCFEJgkAAPz2vqfrGXBrAIzToSCEEEJkkgAAwAvbn6rgGG4zgGk6HIQQQohMEgAA+N22pwrAs3cDmKdDQgghhMgkAQCAF+9/7AQH5n5Q90BCCCFEPgkAAPxu++P7GYa7h0YCCCGEEBklAADwwranPmZ5ZhNoTgAhhBAinwQAAH5z/+OnGYbfBGCSDhEhhBAikwTgykjAk+d58KtAdQIIIYQQ+SQAAPDb7U+WgcNKAJ10qAghhBCZJAAA8OIDT1QzUGQBKKXDRQghhMgkAQCAF7Y/2o959UoG2E+HjBBCCJFJAgAALz7yyEw7nO4B8D902AghhJDbw0hxp3+w95VHeJ77C8Do6BASQgghN8dq7YBv1wvbHn+d4RRLeaCdDiMhhBBy81ip7vgLDzx2CSZzBgMcp8NICCGEyCQBAIDfPvT0cDucNoLBrwFwdDgJIYSQG8PYyg95bs9LqwDmNQABdFgJIYSQ65PsHIBreXH7k6cUMCcwDLObDi0hhBAikxGAz7qySoD/XwAOdIgJIYQQGx4B+KwXtj3+OsAnAThGh5kQQgiRyQjA50cDXt7G8/gTAA863IQQQogNjwB8fjTgib1QGuMBvEGHnBBCCJHJCMDnRgP2vLyBB/N7gI+hQ08IIYRGAGTihe1PHHHw7ErkwT8NYJhOAUIIITQCIDPP7HnZTcEwPwXPfxuAkk4FQgghchoBYOQehB++97d4M8f+DMA9ck6ICCGEUAIgS8+983ICWPwEwH2UCBBCCKEEQGae3/NyJgf8DMAGigYhhBBKAGTm2XdeSWZZ/vsAHgCgoogQQnyro/kAAAE1SURBVAihBEBGfrBnlw/Pm74FhvknAK4UEUIIIZQAyMh333zTSa2efxTAkwwQTxEhhBBCCYDMfH/PS2ks2Kd48A+BGg4RQgihBEB+owIazfyD4LETwGIALEWFEEIIJQAy8sye1/xZGO9jgG2fJAMUW0IIIZQAyMn33385GBx/H8OzmwB+KQA1RYUQQgglADKSd+CvdtOzqsVg+Tt5nt/CACEUFUIIIZQAyMyz7/wtilUwS8Cxy8DwiwFEU1QIIYRQAiAz/7Ln755GxryY59lsBnwSgEQAgRQZQgghlADIzI/e+pOrUalOZMEn8gwTDyD0k/+EANBQhAghhFACIKsjxjPPv/N3X57lQzmWCQHPezAM4w6OdwfLe/A848kA7swntQl4wBFXWh0rADhRAAkhhFxNAP4/rnJ9WniV5SMAAAAldEVYdGRhdGU6Y3JlYXRlADIwMjMtMDktMDNUMjM6MjA6NDgrMDA6MDBxArOiAAAAJXRFWHRkYXRlOm1vZGlmeQAyMDIzLTA5LTAzVDIzOjIwOjQ4KzAwOjAwAF8LHgAAAABJRU5ErkJggg==;" parent="1" vertex="1">
          <mxGeometry x="-40" y="300" width="42" height="42" as="geometry" />
        </mxCell>
        <mxCell id="3lFjE9dBdx0LUiIUw8xG-15" value="" style="shape=image;verticalLabelPosition=bottom;labelBackgroundColor=default;verticalAlign=top;aspect=fixed;imageAspect=0;image=data:image/png,iVBORw0KGgoAAAANSUhEUgAAAgAAAAIACAYAAAD0eNT6AAAABGdBTUEAALGPC/xhBQAAACBjSFJNAAB6JgAAgIQAAPoAAACA6AAAdTAAAOpgAAA6mAAAF3CculE8AAAABmJLR0QA/wD/AP+gvaeTAACAAElEQVR42u3ddZgd53U/8O/M5WVmZt7V8opXDLZkkgySnZjTpGlqx3HStL9kkzRpEzvQpg3ZjsyyJZMkixkWtavd1TIzM++lmd8fslyDZAv2zp25cz7Pk6dNZGvmnqEz77zvOQyI5OTt2qWdteeCeZ73MDOMO8tw7uBZD4Dz5BnGneHhCAA8GB0DTvvJ/+/EAAqKHiHkq/CAmQE/eeW/MXMA5j/5k0meZ0ZYYIhn+RGOZ0cUPD9i5rkho9N8xx83/ZOeoictDIVAnJ7f94ojp0cCeCTwLBfC8EwIwIQAfCgAX4oQIURceQP6ALQxPN/OM0w7wLSBZapnubmaP23/zjSFiBIAcq2H/fsvBZjNyGYYNonh+UQASTwQSseHEGIjyUErwF9mwFRxDF+pMLFFv3nw8V4KDSUAsrJtzx5FGDseY+KYJQyYpQDSAMRRZAghMtMH4AIP5ANM2dSYqfhvTz9tpLBQAmBTnt3990BGYd7IABsAZjUAJ4oKIYR8zgSAEzyDIwqWP/Kbe5/sppBQAiDJt/xQfmo5x/KbeB4bGSCeokIIITfzcOKrOJ45zDLsIfvazvN5eXkcRYUSAFHKy8tjp+ICFzMMtoHnt4Em6hFCyEIZAXAIPPu6Q13nKUoGKAEQhe+/87cMRqHYCZ6/D4AfRYQQQiyqm2Gwl+P5t367/ckyCgclAIL67ptvOqnVcw8wYL4FYBFFhBBCrKIWPF43M3jp99ufGKVwUAJgMT949+UlPPinwGAbwOgoIoQQIgqzPLCHAfO3F7c/XkjhoARgQeTl5bHTsQGbGQY/5oFsigghhIhaOcMwf7D36Ho7LzfPROGgBOCmPb/vFUeznn+MAZ4BEEwRIYQQ6eCBdobHX0xqxV//cPej4xQRSgC+1jN7XnZjGf77DM98B4AzRYQQQiRtDAzzPyYl+ztKBCgBuKZv7/lfBzte8x0w+BEAF4oIIYTYlCkw+JOCN//Hr7c/PUHhoAQAz73+uj2vNTzBgPkxwHvRKUEIITZtBDz/P3qj7nd/3LlzkhIAGcrLy2On4wIfZcD/kge86ZoghBBZ6eV5/NixrvsNuRYWkmUC8Nx7f89iOO4PNKufEEJkr4xh+Gde2PbkeUoAbNjz778UwJmZXwHYCfr8QQgh5BM8mI9VZva7//ngo+2UANiQvNN5yqmhgO8wwC8B2NOpTggh5BppwBx45mcdjNOLe7dvN1MCIHHPvfdSEjj2ZYDPoJObEELIDajgwT9h670GbDYBeGbPHp2Cn/ghGOZfAKjpfCaEEHITTGCYP2FO9eMXH3lkhhIAiXh+z8uZHPAmgEg6hwkhhNzGY7KeB7fTFkcDbCoByMvLY6fiAr7LAL+ht35CCCELNhrA87/sYJx/YUtzA2wmAfjhnr8GmcG+DjAr6FwlhBBiAYUAv+PF7U+22cKPYW3hR/xgz0v3m6G4TA9/QgghFpQDMGU/ePeVe2kEwMryTucpp4cD/h08fkjnJSGEEOEenszfJsZM//i3p582UgIgsH/Z83dPE7jdPLCaTkVCCCFWcI6B4v4Xtj/aTwmAQJ5/75V0juPfBxBE5x8hhBDr4Xs4Dvf97oEni6S255KbA/Dc3pce5Tg+nx7+hBBCRPAe7c+yzJnv73n5YUoALJZk8cxz776UB575O2iJHyGEEPHQMMBrV55RvGRG1iWxo3l79qinmclXwGMnnWeEEEJE/LL6ugPj/GTe9u0GSgBu04/e+pOrSaX6kJb4EUIIkYh83mS+67cPPT1MCcAten73K36cgj8OII7OJ0IIIRJSzUCxVswrBEQ7B+CHe/4axCn4s/TwJ4QQIkEJPMwFz7z/9zAaAbgJz+15KRRgTgIIpXOIEEKIhHUyrGLNC/c92kQjAF/j+XdeigWYC/TwJ4QQYgOCwJnPP7NnVyKNAHzVm/87LyeAxWkAHnTOEEIIsSFDCpbL/fV9T9VQAvAFz+x5OUIBnAPgS+cJIYQQ28MMssDy32x/vEEMeyOKTwDP7v57IAscp4c/IYQQ28V7ceCP/2j3rhBKAAB87+2XvFkFd5wBQujkIIQQYuMCTQrz8X9+/69Wf+G16ieAZ/a87KYAzoOW+hFCCJERBnyVUaVc/oe7Hx2X3QhA3p49agWYvfTwJ4QQIjc8mESl0fTRdw/9t0ZeCQDPM9OYfBngV9FpQAghRKbjACu0M/a7rNVASGGNjf4gLvAXYPBdOviEEEJkLnFxXQVfsHf/WcHTD6E3+Nzelx79pKUvIYQQQgCeB77x2+1PvGGzCcCz77yUzbLMGQAaOt6EEELIp4wMj9wX7n8i3+YSgO+9/ZK3SokygPGn40wIIYR8SZcKbNp/bH9sSIiNCTIJMO90nlKlxLv08CeEEEKuK9AA7t2803lKm0kAZoYCXgSYFXRsCSGEkOtjgNypwYBfCrQty/rBnpfu58G8Q4eVEEIIuSE8z/D3/Xbbkx9INgF4/v2XAjgzcxmAKx1PQggh5IaNK2BO/vX2pzsttQGLfQLIy8tjOTPzBj38CSGEkJvmYobijW179lisXo/FEoCp+IAfA1hJx5AQQgi5JctDmMnvW+ovt8gngO/veSmNAVMIQEXHjxBCCLllRhZY+pvtT5SIfgTgmT17dAyYt+nhTwghhNw2FQfmtbxdu7SiTwBYfjIPQBQdM0IIIWQh8DEzduZ/Xei/dUE/ATz7zivJLMtfpLd/QgghZEGZOBaZv7vviXLRjQDknc5Tsiz/Cj38CSGEkAWnZDnmrwu5KmDBEoDpwYDvA0ijY0QIIYRYAp8RzEx9d6H+tgX5BPCj3btCTApTLcDo6AARQgghFjPDKviY39z7ZLcoRgBMCu4FevgTQgghFmfPmZlfi2IE4AfvvryEZ3AeArYWJoQQQmSM58Es/+32xy9YbQQgLy+P5Rn8gR7+hBBCiGAYBtx/5eXl3dYz/LZ6Dk/FBzzG8EinY0HI7VOwLLQqNXQq9ZX/q1aDAQOtSv2lf1ZvMoLjOYAHZgx6zBrmMaPXw2g2USAJkUcOkDoVG/AwgNdu+W+41X/x23v+18EemmYe8KYDQciNPeA9HZ3h4eAEdwcneDg4wUVnDyedPRy1Ojhodbc9lGY0mzFrmMf47AxGZ6YwOjONsdkpjM5MYXByAhNzM3QgCLEdvQ46c2TenU/PCjoCoOO1/8QzPD38CbkGtVKJAFcPBLl5wc/FDT7ObvBydIaCZS26XZVCAWedPZx19gh29/rSn88a9OgdH0Hv+Cj6JkbRNTqEwclx8HTICJEiv+k55XcAvCDYCMAP9/zV2QxFKwA3ij8hgEqhRLiXL2J8AhDi7g1fF1ewDCuJfZ/Rz6N9ZACtQ/1oGx5Az9gwOJ5SAkIkYoTVMKG/2fr4lCAjAGaefQYMPfyJvLnbOyLS2x+R3n6I9gmARinNIpj2Gi3i/YIR7xf86ShB82AvmgZ6UdPbgan5OTrYhIj4VsTpuX8C8EuLjwD884e7XJRGcxsAF4o7kZsQD2+kBIYhxicA7g5ONv97OZ5H+/AALne3obKrDdN6SgYIEaFxpdEQ9p87vj1m0REApcH8PBh6+BP5cNbZIzU4HJmh0fCQwUP/s1iGQZinD8I8fbAlJRudI4Mo62hGRVcL5o1GOjkIEQcXk1rzDICfWGwE4Pl9rzhyer4LgDPFm9gylUKBWN8gpIdEINonECxDpS4+y2Q2o7K7Decbq9EzPkIBIcT6xmahD/rT9u9MW2QEwGzgnmLA0MOf2Cw3e0csj0pAekikZL/pC0GpUCAtOAJpwRHoGBlEYUsdKrvbYDKbKTiEWIerDprHAfzXgo8A5J3OU04PBbQACKI4E1vj6+yGFdGJWBQUJpnZ+2Izo59HQUsdzjdWY85ooIAQIjAeaHf07I7My827oYpgNzwCMD0UsJ0e/sTWhHp4IzcmCTG+QVTP+jbZa7RYG7cIy6MScLGtEafqK2kFASECYoCQ6cHAewDsWdAEgAe+RzdIYivCvXyxOTEDgW6eFIwFplGqsDQyHpmh0TjfVI0zDZdpwiAhgmUB/A9uNAG4oWf69/e8spQBf54iS6TO09EZGxLSkBQQSsEQyKxBjzMNl3G+qYbmCBAiTBaw+MXtjxcuyAgAw3NPgmZBEwmzU2uwLj4V2WExFi/HS74c+02JGcgKi8GhyxdxubuNgkKIJfF4EsDXJgBf+1T/pOxvLwA7iiqRGgXLIiMkChsS0mCv0VJARKBlsA8flBdgcHKcgkGIZTKAOZNK6feHux/9yovsa1+FzFA8TA9/IkVBbp54du3duDdtCT38RSTcyxfPrr0bmxIzoFQoKCCELDhGpzBwD3zdP3UjnwAep2ASKVEqFFgXl4oV0YlUwEekFCyL3JgkJAaE4J2Ss+gYGaSgELKQKQDDPwHgL1/5z3zVH37/nb9lMCxbQqEkUhHo5okHMpbDy8mFgiERPM8jv7kWBy9fhImjSYKELFgSwLFpLzzw2KVbGwFgmIcphEQqb5TLoxKwPj6NJvlJ7k2FwdLIeER4+eGdkrNUWpiQhUquWW4HgOsmANe9U+bl5bEMw9xLISRi5+nojO+tuQubEjPo4S9hPs6u+MfVdyInPIaCQcjC2A6eZ246AZiJC1oGwI/iR8Qs1jcI3129Bb7OrhQMG6BkFbgndQkezFoJtVJJASHk9gQ8+95LOde93q47dADufoodESuWYbAmbhHWxKaAoYl+Nic1KBwBru54veAUBibHKCCE3Oq9Eor7ARRc68+ueefctmePIgSTPTzgTeEjYmOv0eKhrJWI8vanYNg4vcmIt4rOoK6vk4JByK3p74BTwN7t281fTg6uIZSfWk4PfyJGAa4e+N6arfTwlwmNUoVvLlmDpZHxFAxCbo1PCDOx+NqjA9fAA5spZkRsIrz88K2Vm+Bq50DBkBGWYbA1JRv3pi2hVs2E3AKOZzdd63+/5hwAnuE3UsiImKQEhuGBzBWymOU/Z9BjWj+PWYMeBpMJHM9BbzJCq1LDUauDWqmCRqmEklVAq1LL5hzIDouBs84ObxSehtFsoouCkBvEgN8A4F++/L9/wfPvvxTAmZkuChkRi8URcbgrJdumJvuNzUyjb2IUfRNjGJmexOjsFEZnpjAxOwuO527q71IplHDS2cHN3gFu9o6f/sfd3hGeji7QqlQ2dT60DvXj7xeOQW+iFsOE3CCeNTMBv3nw8d6vHAEwm7GJ5lQTsVgXn4q1cYsk/Rv0JiM6RgbRPjyA9pEBdI0OY95oWLC/32g2YWR6EiPTk1/O/BkG3k4uCHbzQrC7F4LcPeHl6CLpZCrM0wdPr9iIl88fxaxBTxcJITcwCMApufUAdn1lAsCC2chTsIi1z1aGwV2LcrA4PFaS+983MYr6vm409HejfWQAZo6zyn7wPI/+iTH0T4yhuK0BAKBVqRDm6Yt4v2DE+wVJslFSoJsnvrVyE146dwRT83N0wRDy9TZ8MQH43GvAtj17FMGYHAXgRLEi1nRP6mLkSOzh3zcxioquVlzuasPwNd7GxYhlGAS7eyPePwgJfsFwd5DWpT8wOY4/nzmIGf08XTSEfLVRh9puz7y8PO6aCcCz7728iOWuXzeYEEHS1IR0rI5NlsS+zhn0uNTZguLWevRNSL9gTaCbJ3LCY5ASGA6VRFr1do8N469nD9/UZxVHrQ6OWjs4aLTQqdXQqTTQqdVQsgqoFEowDAOtSgW90QiOvzImauY5GExGzBkM0JuMmDPoMTk/i+n5eUzr52967gYhguOQ+OIDT1Rf/a+f+wTAclhCESLWtCI6URIP/97xUZxvqkZlVyuMZtvpYNc1OoSu0SEcqCxBenAEssNj4OXoIup9DnD1wGNL1+Klc0c/XR3AAHB3cIK3kys8HZ3g4eAMT0dnuNo5wElnt+CrSTiex9jsNIanJjB09T/TExiamsTE7DTosyoRBQWWALh2AgAeS0AzAImVZIVGY3NSpqj3saG/G2cbq9A00GvTx2LOoMf5phpcaKpBuJcfcmOSRF18KdTDB9/O3YyOkUH4ubjBz8UdGqVwqx9YhoH7Jysvon0CPvdnRrMZ/ROjaL86EXR4AJPzs3TBE+HxWALgr9dOABgaASDWkeAfjHvSFos2/2wfHsDh6lK0DvXL7H4BNA/2onmwFyHu3lifkIoIL3H2CAtw9UCAq4fo9kulUCDQzROBbp5Y9klFw5GZqU+TgbbhfgxMjtNNgAhh6ecf+Z94Zs9r/goYuyk+RGgRXn54Ytl6URb56R4bxoHKYtk9+L9KlLc/NiSkIdDNk4KxQMZmplHT24Havk60DPbTfAJiMWaoAn6//Rs9nxsBUPKmbJ6G/4nAXO0csDM7V3QP/8n5WRypKkNpRxN4nr7gflbjQA8aB3qQ6B+CrYuy4ayzp6Dc7nVg74ClkfFYGhmPWYMedX1dqO3tRH1/FwwmqnpIFo4CpkwAH34uAeBZJNNMFSIklUKBbyxeI6p16DzPo6ClDoerSqnS3Neo6mlH40APNiSkYXFEHFhqy7wg7NQapAVHIC04AvNGIyq6WlDUUo+e8REKDlmAmxyX/KUEADyfRJEhQro7dTH8Xd1Fsz/D05N4r/QCWob66ODcIL3JiH0VRShtb8J96UtF+Q1eyrQqFbLDYpAdFoPusWEUtzagvLOFklNy6xgm8er/+9lJgJQAEMEsi4xHRkiUOBJiABeaanCo6iJMNrSkT0g94yP448kDWBGdgPXxabJo2iS0AFcPBKR5YHNSBi51XhkV6JsYpcCQm/VpAsAAwPP7XnHk9PwEQIsAieWFeHjjWys2ieIhMTU/hz2l51HfR/2vFvJBtTNnFdztHSkYFtY00IujNWXoGBmkYJAbxWFe7fTiI4/MKAHAZDAnsmDp4U8szlGrwzcWrxbFw79lsA9vFJ2iMrILrHtsGP99Yh8eyFyOWN8gCogFRXr7IdLbD+3DAzhSU4aWQfp8Rb4Wy6vn4wBcZK8MA7BxFBMihLtTF8NBo7P6fhS11uOl80fo4W8hswY9dl04jv0VRVZrhCQnV0fVvpN7ByJFWqeBiCgDYBXxAPDJaxgfSiEhlpYWHIFE/xCr7oOJM2N3yVm8X5ZPDyYL4wFUdLVieHqCgiFgIvDUio14avlGeDu5UkDI9a7OUOCTSYAs2FCe1gASC3LW2WHrohyrv5W+VnCCivoIQMGyuDM5CznhsbQ80Aoivf3w7Lq7UNBch6M1l26qURKRRXL+fwkAz/MhFBJiKQyAbenLoFOprbYP47PTeOncUQxOjdMBsbC04AjctWgxtCoVBcOKWIbF0sh4JAeG4VjNJRS3NVBRK3JVyKcJwNX/QoglZIXFfKlBipDGZqbx17OHMDIzRQfDgvxc3PBwzmp4ODhRMETEUavDvWlLkBkahQ/LC9E1OkRBIaEAwOTt2qWdtjfPgpYAEgtwtXPA99ffI2hnts8anBrHX88exuQcdV+zFDuNFjuyVoq6WyC5guN5nK6/jOO1l2gOjMxPBb3DrJ1yUmcMoiWAxFK2pGRb7eE/Mj1JD38LYhgGa+MWYVVMMhX+kQiWYbA6NhlxfkHYXXwafRNjFBSZngrKabtAJcMqvEATAIkFRHn7I8E/2Crbnpibwd/OHaGHv4UkBYTgvrSl0Kk1FAwJ8nV2xXdXb8Xhqou40FRDTwAZUoDxVILnPWjwnyz4ycWyuMtKs/5n9PP4y5lDGKVv/gvOw8EJD+eshp+LGwVD4lQKBbakZCPGNxDvXjxHybLc8LyHkmEYdxoBIAttSUQcPB2dBd+uyWzGq/knMDw9SQdhAWmUKmzPWIbEgFB6X7AxUd7+eGbtXdhdfBaNAz0UEJlgGMadRgDIgtOqVFgVk2yFhJbHOxfPon1kgA7CQt0kAKyMScK6+FQoWQUFxEY5aHR4fNl6HKkuxen6yxQQuYwAgOHdaQEAWUgro5Ngr9EKvt0TdRWo7GqjA7BAIr398UDmcjhp7SgYMsAyDDYlZsDdwQkfXiqgVQI2jmMYdyUA+phHFvRNYllkguDbre/rwvHacjoAC8DNzhE7cnIR5OZJwZChrNBoeDu64LWCk5jWz1FAbBTD8O5KhmHtqDoUWSgrohOhVioF3ebIzBTeLjlLVc5uk4JlcU/qEmSERIKh8r2yFuLhje+t2YpXC46jZ2yEAmKLCQDH2yl5nqd1PGRB2Kk1yAmPEXSbHM9hd/EZzBn0dABuw9KIeGxKSodKoZTdb583GjE5N4M5owEGkwlzxivnkpnjoDcZwTIstCoVNEoVVAoldGoNHDRaOGh1Nv3x1MXOHv+wcjNezT+B5sFeukhsDM8waiUPRs3QKgCyAJZHJQpe9OdkXSU6RgYp+LcozNMHD2Xlwlln+9/5W4f60T8xisGpCQxPT2JkehITc7Mwmk239PexDAsHrRbu9o7wcHCGu4MTvJ1c4O/iDld7B5uImUapwmNL1+G1ghNo6O+mC8aWRgAAjZIBr6ZQkIW4USwW+O2/c3QIJ2orKPi3wElnh4dzViHE3dtmf6PBZEL/5BiaBnpQ29uJ7rFhcAv4mYjjOUzOzWJybhZtw59feaJTaxDg6o5QDx+EefogyM0LKoU0V1GoFAp8c8kavFl4CjW9nXTx2MoIABiNEuA1tAqA3K60kEhBq8KZOQ57S8+D42mm8s24WqApKzTa5r7zmzkOXaNDuNTZgrq+LozPTlttX+YMejQN9KJpoPfTuId5+CDGNxCxvoFWqZFxO5SsAg/nrMbbxWdwuZtW2thGAsCrlQBDIwDktjAAlkbECbrNU/WV6Kc65jclMzTKqr0ZLMHEmdE+PIiCllrU9naKdumamePQNNiLpsFeHKgshpejC1KCwpASGCaZZEDBstiRnQvlRQUudTTTBSX5+zajUfKAgt7/ye2IEfiNZmhqAqfqKinwNyjQ1QM7c1bBzd7RNt5ceB7tI4M4XluO5sFeSa7+GJwax7GaSzhWcwkBrh7ICovGoqBw0SdnLMPggYzlUDAsLrY30sUl7REApZLCQG5XVpiw3/73VxbDxJkp8F9Dp9ZgR9ZKRPsE2MTv0RuNuNjeiBN1FZjRz9vMceoeG0Z32TA+rizBoqBwLI2Mh7eTi3jfHBkG96UvxZxRj+qeDrrQJIwSAHJbnHR2iPUV7gHT0N+N+r4uCvzXvKVtTsrE0sg4sIz02/SOzkzhcFUpKrvbbLrWg95kRFFrPYpb6xHrF4SV0YkI9fAR7Tm2IysXL184ipbBPrroKAEgcpQeEinYQ4bjeRyoLKGgf4XkwDDcl7YEWpX0p/aMzU7jg7IC1PfLK+HjAdT2dqK2txPhXr7YEJ+GEA/xrdZQKhT45uK1+POZj9E7PkoXHyUARHYJQHCkYNuq6GzBwCRN/LsWT0cXfGPxalEPHd+oWYMeBy+XoKSNvjG3DPbhfwc/RoxvIDYnZsDH2VVU+6dVqfDoknX448n9mJyndsKUABDZ8Hd1F2zyH8dzVOv/GjRKJR7MWol4v2DJ/xaDyYRDVRdR0FxLpcm+oL6vC439PcgOj8H6+FTYqcVTwNXFzh7fXLIGfz5z6JaLKhFKAIjELAoMF2xbZR3NGJ6epKB/ggGwNn4RVsWkQMFK+zs/z/MoaWvER+WFNLnza5LgguZaVHS24I6kTKSHRommgkugmyfuz1iOt4pOUfJGCQCxdSzDYlGQMAkAD+BsQxUF/RMxPoG4P3M5HKzQcnmhdY4O4fWCE5iYo+HjGzVr0GNP6XlcbG/CtvSloqkjkBwYiq7RRJxtpGuVEgBiU9RKJfxd3BHi4Y1QD2+EevgINtGsoa8LA5Pjsj8GbvYOeDhnNQJcPST/W6bn5/DOxbNo6O+hi+sWtQ334/fHP8KdyVmCN+G6nk1J6egaG0LrUD8dIEoAiJS52zsizi8Isb5BCPP0sdpQ87mmalkfBxWrwLaMZUgJDJN8+V4TZ8bR6ks423CZhooXgNFswgeX8tE40I1t6cusPjeAZVjszF6F3x//EFPzc3SAKAEgUsEACHb3RlJgKOJ8A+Hu4GT1fRqamkDzgHxbkS6PSsCGhHTJNpK5igdQ3d2Ody+eg95kpIttgVX3dKBrdAgP56xGsLuXVffFUavD/RnL8cr5o5TkUQJAxM7byQXJgWFYFBQODxE89D+ruK1BljeRIDdP7MxeZRNtZYenJ7DrwgkMTo3TxWZBE3Oz+NPpg9iQkIbcmCSr7ku0TwCWRSXgXGM1HRhKAIjYaJQqLAoKR054DPxc3EW5j2aOQ1m7vJqOOGp1eCRntSgLv9ysWYMee0vPU7lYAXE8h0NVFzE6M4W7U3OsWglyY2I6mgd7qUgQJQBELLwcXbA4IhZpwRGirxbXPTaMab08viOyDIuti7KRHRYDVuLf+c08h3MNVThcXWbTpXvFrKi1HiMzk3gkZw20Kus0GFKyCtyfsQL/fXKfaLs0UgJAZCHM0werYpIR5RMAqTxe5PLwyAiNwlYbadPb0N+Nt4pOY85ooIvOypoGevGXMwfx2LJ1cNLaWWUf/FzckBudhBN1FXRAKAEgQov09sO6+FSEuEtvSLmotd6mj02AqwcetpE2vaMzU3ij8BS6x4bpohORnvER/Pn0QTy9YhNc7Oytsg9r4hahurcD/RNUxpsSACKIWN8gbEhIg5+LmyT3n+d5m/12rFWpsSM7FzE20KZXbzLio/JClLY30UUnUsPTk/jT6Y/x9IqNVlnZo2BZ3Ju6BH86/TGtCqAEgFhSoJsnNidmINzLV9K/o39yzOaWizEMgzsSM7A0Kl7ybXo5nkdJWwM+Ki+k77sSMDY7jb+cPYRv594BVzvhV5aEeHgjLSSSEkVKAIgluDs4YVNiOhIDQsHYwO8p72yxqeOT6B+C+9KXiqqJy63qGh3GrvzjmKLub5IyPjuDv509jG/n3gFHrU7w7d+ZnIXa3k7MGvR0MCgBIAtyAFkFVsYkYVVMsuSLxXyWrbwpeDu54pHFq+Dl6GITD5A3i06hY2SQLjyJGp6exMvnj+IfVm4SfBWQnVqDtXGLsK+iiA4EJQDkdoV5+uCe1CU20QP+s+aMBsmXEVUrldievgxJgWGSH5Exmc04VnsJp+sv00VnA3rHR7Ar/zieWr5R8PLeOeGxyG+upc6elACQW6VTa3DXohykBoXb5O8bkPhs4VUxyVgXnyr9Nr3gUdHZij2l52EyU5teW9I61I8PLuVjW/oyQberYFlsTEzHG4Wn6CBQAkBuVpS3P7ZnLIOzzt5mf2PDgDQ7xNlSm97e8RG8VnASozNTdNHZqJK2Rvg6u2FpZLyg200MCEWwuxd9SqIEgNwolUKBtXGpWBmdKPmOcF+nrq9TUvvrZu+IbyxeLdqSyjdjWj+H3cVn0ThAbXrl4OPLJQhw8xC0TggDYHNSBv50+iAdAEoAyNfxdXbDwzmr4OnobPO/led5yRQMUbIs7klbivTgCJto03umvgrHai9R+V4ZMXMc3iw8jWfW3gV7AUeuQj18EO7li5bBPjoIlACQ60kPicQ9qYuhUsjjUE3Oz0piXbmttOkFgLq+LrxdfBrzRmrTK0cTczPYXXIWjy9bL+iE1dWxKZQAUAJArnlgFApsTswQ/PuctY1Mi/ubc5inDx7KyoWzzk7ysR6cGsfr+ScxQG16Za+hvxuFLXVYHB4r2DYjvfwQ4u6N9pEBOgCUAJCrnHX2eHTpWvjbwDflmzU0PSHK/XLU6vDNxWsQ5O4l+RjPGfR4rywfl7vb6GIjnzp4uQRR3v7wELBc8KrYJPz9wnEKPiUABLjyvf+xpeus1rjD2vrGR0S3T8ujErA5KVPybXo5jsPZpmocqSoFR9/5yRcYTCa8e/Ecvr1ys2BzWmJ8g+Dt5IqBSWoURAmAzEX7BGBn9iqr9e8Wg57xUVHtzwOZK5AWHCH5uDb29+Ct4tNUhpV8pfbhARS3NSA7LEaQ7TEAlkTE4oNLBRR8SgDka2lkPO5MzpL8W+btGhFRhbB7UhdL/uE/Mj2JN4pOo4fa9JIbdLiqFAn+wXDQCNMvIDU4AoeqLtIkVCtgKQTWtzZuEbamZMv+4c/zPKZFUgI43i8YOQJOiFpoepMRe0ov4D8P76WHP7kpswY9TtRWCLY9jVKF1OBICjyNAMjLlYIYmVgRnUjBwJU1ybxIjsuDmSskGUOO51HcWo99FUWyb9OrUigQ4eUPD0cnaBQqTM7PoGWoT/QrTcSgrKMZ6+JTBeteuTg8FoXNtaCZKZQAyObhv3VRDpZExFEwPmHixFFvflVsCjQSnIfRMTKI1wtPYnJOvm16NUolNiVlIikg9Lolmc0ch67RIRyquoi2YVqCdi3zRgNO11/G5qQMQbbn7eSCYFoSSAmAXB7+96UvQ2ZoFAXjCzdmMVgssaH/iblZvF18Gq1D/bI9dxQsi60p2cgKiwbLsF/7z4Z4eOPbuXdgYHIcbxSexMDkOF2AX5DfXItlUfFw0gpT82JRcDglAAKjOQBWcGdKtqQe/r3jI4J8mzeJIAGwU6nhJJEiP0azGfsri/HLj3fL+uGfERqFn23diZzw2K99+F/rzfO59ffiiWXroVWp6eb0ufPLhJN1lYJtLzkgVPIdNGkEgHyldfGpWCaB6n5mjkNNbweKWuvRNNCL59bfAwetzsLbtP4ngDj/YNEfGx5AVVcb9pSeh94k35nTfi7ueDhn1YIUron2CUDelh0421iFI1Wl9C36E8Wt9VgZlQhXeweLb8teo0WUd4DkmoFRAkBuyPKoBKyNWyTqfZycn0Vhcx2K2xow9bm3fsuvUBDDCECAq4eoj0/P+Ahel3mbXp1KjR3ZuYj2CVjQv1fBslgVk4zssBjsuXgeNb0dsr9nmTkOpxsqcU/qEkG2tygojBIASgBsT3JgKO5IzhLt/s0a9DhVX4mC5loYzV9+ExdihSInggRAyI5oN2NGP489F8+htq9LttcQwzBYn5CKlVFJFh0qtlNr8M0la9A3MYpX80/IOtkCgEsdLdiUmCHIJ5I4vyAoWFb2K1goAbAhAa4euD9jOcS4yt9gMiG/uRan6ysxZzTQBcGKq7sfx3M411iNwzIv3xvnG4jtGcsFTdB8nd3wo03bUdPTgbeLTsMoklUqQtObjCjraBZkxZJGqUK4py8aB3rowUEJgPS52Tvi8WXrRNfO18xxKGipw8m6Cszo5+lAiVDjQA/eLDwl68TM3cEJD2evgr+rdRpjMQAS/IPx87sexom6Cpysq5DlcShorsPiiDhBXmJifAMpAaAEQPq0KhUeW7pOsJKaN6prdAjvlV1Ar8jq7pMrRmem8HrhSfSMjcg2BiqFEvekLUZaUIRgjWm+8kapUGBDQhqWRMThraLTaBmSVx/7walxtAz2IsLLz+LbivMLwv6KIroRUAIgXQyA7enL4e3kIpp9MprNOF57CWcbqqgb3HVZLy7zRiM+LC/ApY5mWV83q2KSsSZ+keg+xwBX2kJ/a+UmdI4O4rUCeRVdKmipEyQBcLd3hJejCwanxul2RAmANC2LSkBiQIho9qd1qB/vlV3A0NQEHRyR4XgeRa312C/z8r2R3v54IHO5YIVnbkeQmxf+bfMDKGlvxAdlBeB42z9utb2dmDPooROgPHCEly8lAJQASFOwuxc2JWaIYl/MHIcDlcUooDrbotQxcuVNcmpevuV7Xewc8GDWCoR5+EhrtIJhkBUajUVB4ThQWYyilnqbPk5mjkNtX5cgHTJDPX1Q0FJHNwhKAKTFTq3BzuxVoqhoNTE3gzcKT6FjZJAOjMjQsfm/8r3ZYTGi+M5/q9QKJe5NXYJVMcl4veAkum24+2J1T7sgCUCYpw/dJCgBkJ5705bAxc7e6vvROtSPN4tOfaGYz22979DBXQBGsxlHq0txtrFa1nHIDo/BnUmZUCtVNvObXO0c8L01W9E61I/XCo5j1mB7qzca+ntgMJmgVlr20eGktYOHgxOGpyfppkEJgDQsCgpHUkCoVfeBB3C6vhJHq8toot8txs8ify/P41JnC94ruwCT2Szb+Aa6eWJndi7c7B1t9jeGefrgJ3fuQH5zLT6+XALehq5Do9mExoEeJAhQMjvUw4cSAEoApMFJZ4e7FuVYdR84nsf7ZRdQ0tZIB0RkScUvD76LibkZ2cbAXqPFjqyViPT2l8XvVbAslkclICMkEnvLLqCqu91mflt1T7sgCUCAqzsutoNQAiB+29KWwk6A2bHXY+LMeLvoDKp66IoRXwbAy/bhzzIsNiSkYkVUIlgZdnrTqTV4JGc1hqcn8Wr+cZtoOyxUkR5fF3cQSgBELy04AjG+gVbb/rzRgF35xyXfEpahaQY2JTkwDPemLYGO2uzCw8EJ319/75WywsWnr9lvQyqm5ucwMjMFdwt/xvFzcQMD0OolSgDES6tSYVNShlUvxlfOH0XPuPSrxtGUBdvg4+yKh7JWwtfZjYLx2QQXV8oK/+KuR3C6vhLHai5J9uHWMTxg8QRAo1TBzcEJIzQPgBIAsdqQkG61wiUz+nn8+cxBmynuQyMA0k+Gt2esQKIA34elTMGyWBO3CFlh0Xi7+CyaB3ullwCMDCJVgOWAvs6ulABQAiBOvs6uyAmPscq2jWYTduUfF+zhL8SzmUYApPtmuzo2BWviFomi/oVUOGrt8PSKjeibGMXfLxzD+Kx05om0C1S/wsPBmU4USgDEedO7N20pWEb4G56Z4/Bq/gmbKyJDIwDSE+ntjwczV8BRq6Ng3PKLhBt+vOl+lHe1Yu/F8zBJoO1w/8Qo5o1GaFWWrePg7uBIJwglAOKTFBiGYHcvwbfL8zx2l5y1yXaZohgBoFGIG+Jm74hHFq+GP83UXqDkl0FqUDgS/IPxcWUJCkVeBpfjeQxMjln8Huhu70QnByUA4qJgWWxMTLfKtvdVFKGyq9VGb4Ji2Ak6v7+KSqHAXYtykBESJenyvWKlVihxT+pirI5NxltFp9E2PCDafR2ZmbJ4AuBm70AnBSUA4rIkIs7iM2CvpaStEfnNtXQAaATAKnnR0qgEbExIh0qhEP3+msxmKCWwn9fjrLPHt3PvQNNAD94sOo1Zg158CYAAk/Nc7R3AMgxVNaUEQCQZulKJ3JgkwbfbNzGKj8oLbfvZS9e4KIV5+uChrJVw1tmLfl9nDXrsKT2Put4urE9IxUqJFyCK9PbHT7fsQElbAz68VCCqB+HozJTFt8EyLOzUWkzr5+hCpARADG//8XDQCDvhSW8y4o3CUzCaTbb9lkkjyqJir9HioayViJJA+V4zx+FcYxUOVZV++r8drirFuYYqPJSdK4nfcP2HIIPssBikBIbh/bJ8VIjkE+DI9JRg5yElAJQAiOLtf3lUvLBvxQDevXjOZtb6E/FTsCzuSslGZlgMWAlkZQ393Xij6BT0RuOX/mzGoMdL544g2N0TO7JXwdVOut+UtSo1dmTnYn1CmijKCo/MCLM+316joYuSEgDrWxweK/jb//nGaptqJELELSMkClsXZUMjgTa9g1PjeDX/JIamvv5B2DEyhF8dfBeLI2KxOTHT4u1sLelqWeG63k7sLj6DeZPRKvsxNTcLjucsvhTaXqOlC5MSAOu/FS2JEPbtf3h6EoerS8URABqet2kBru7Ykb0KHg7iX3Y1bzTg/UsFqOhsuel/t6C5DiVtjbhb4isZGABxfkHI27oTZxqqcLSmTPC2wzwAvclk8V4P9mpKACgBsLKUwDC42NkLenF9UJYv697xxPJ0ag22pS1FYkCI6PeV43mUtDXgg0sFt/WwM5nN2Ft6AcdryvFg9kqEefhI+sVkdWwyssNjsOfiWdT2dgm6fYPJaPEEQCXh1RyUANiI5VGJgm7vYlsjmiRYI5xI5A2SYbA6NhlrYqVRvrdzdAh/P38MM4b5Bfs7x+dm8OfTBxHu5YuHMlfCSWcn2eNpr9bg0SXrMDA5jl35xwWrn68X4PODkhIASgCsKczTB34uwnU2m5qfw8eXSyjwxCLi/YOxLX2pJIZWJ+Zm8FrBSXSNDllsGy2Dffj3j3djSWQ8NiVmSPqN09vJBT/ccB+qetqxu+SsxUcQrzXxcsEfUiwlAJQAWFFWmLANf/ZVFGFOhIU/5MCWSxG42TtiZ/YqBLp5iH5fjWYzDlddxPmmGsGO+4WmGhS3NuDetCVIDY6Q7LQXhmGQFBCKON8gnKgrx8m6Sotty2Cy/NJkBSUAlABYi51agyT/EMG2V9zWYLOlfol1aJQq3Je+FMmBYaJ/qPE8j7KOZuwtPW+VojdGswnvlJzFidoKPJKzCr4Cjvwt+M1docCGhHTkhMfizaIzaB/uX/gEwCzEJwDqMEkJgJWkh0QK9g3KYDLhWPUlCjpZmDdBXClctSlJGsPaveOjeDX/OMZmp62+L8PTE/jd8Q8R5xeE7enLJL0UzVlnj+/kbkb36DB25R/H5PyspN7OeSoRSgmAtaQGRwi2rbONVQt6cS70w4RIR4SXHx7IXC6J8r0z+nm8XXIGjf3i63BZ29uJnx14W1ITJq8nwM0D/3bHAyhtb8L7l/Jh5rjb/jvVCss/QmglFCUAVuHt5CpYu9NZgx5nG6pEGwthcnBKM277bc/OHg9mrkC4p6/o99XEmXGyrgInaitEvZ88z+NEbQXym2qxLX0ZEgJCJD0/ICM0CsmBodhXXoSS9sbb+vtUAhRUWohEhVACcNPSgsMF21Z+c60gS2rE/WgWw1CfNIcbFSyLLclZyAmPlURxm4b+brxecBIGCfW3mDMa8HrhSfi5uGFHdi68HF0ke29TK1XYlrEMa+NT8XrBCXSNDYt3BICjEQBKAKwgOTBMkO3oTUZcEGi2s8jfTygEtyAnLBZ3JEujvG3/xBhezT+OkZkpyca7d3wULxx5H2khkbgrJQdalUqyv8XFzh7/tGYrGgd68GbhKcwZDTc3AqCgEQBKAGyQn4sb3OwdBdlWcWuDKPt9E3ELcvfCzuxcSTS4mTPo8V5ZPi53t9lM/Mvam1DR2YLNSZlYEhEnicZJ1xPl7Y+8rTtwoakWBy+X3PAKDCGSzptNSgglALctQaClfzzPI7+5lt7Or0SDTrwbYK/W4IHMFYjxDRT9vnI8h/NNtThYWWyTR9fMcdhfUYSTdRWSaZ18PSzDYnlUAjJCo7C39PzXNiFTKhTQqS3fqW9GTy9HlAAILN4vSJDt1Pd3Y1TCw6HSSzKkS8Gy2JSYjqWRCZJ422we7MVrBacwb7T9G/iMfh4vnTuCAFcP7MzOhbsEmipdj06lxiM5qzE0NYFd+cev24rc1c5BkCt2dgHLPxNKAL6Wg0YHX4Fm/xdI4u2fWFu0jz92ZOdCpxJ/b/Q5gx5/OXsYveMjsjtO3WPD+M/De5EdHoM7k7MEmSRnKZ6OzvjBhntxuasd7148B+MXJmwK9Yl0Rk8JACUAAgr38hEks52cm0XjQA8F/FP0CeCLvBxdcGdKFmJ8AqTzBqnW4I6kTOyvLEL/xJgsj1tRSz3K2ptwT+pipAVHSrjtMIPkwFDE+wfheE05TtdXfnqVCjX3ZIbmR1kM1Vi8hjCB1lBf6myxSrlTInAKcgv3fp1KjTuTs/Dsursl9fC/KtLbD8+svQv3pi2RdBW922E0m/HuxfP4j0PvonNkUNpviqwCGxPT8ZM7H/p0noOrveUTAIPJhHlKAGgEQNARAIESgPLOZgq26N54rJtVMAyD1KBwbE7KhKNWJ+23C4ZFdlgMkgJCcaK2HPnNtbJMeMdmZ/DHUwcQ4eWHB7NWwEkr3bbDDlodnly+Ad2jw5jUW75q6cjMFI0LUgIg4Amu0cHLycXi2xmcHEfv+CgF3PKPX8mMAIR7+mJLSragraeFYKfWYEtKNrLDYrC/shgN/d2yPLubB3vx7wd2IzcmGWvjFkm6z32AQB0lR2cm6bZICYCAb/8Cff+v7u2gYBMAV5q1bExMl3QL2hvh5eSCJ5atR11fJ/aVF0m6GNDtJJin6itxvqkG2zOWSaJDozWNTNMKKUoABCTU9//a3k4KtsypFErkxiRhZXSSJLr1LZRY3yBEeQegsKUOR2vKMG80yu7YG80mvFV0GkeqS7EjaxUCBXqjlhpaIk0JgKBC3L0svo2p+Tl0jg5RsGWKAZAYEIo7kjMlUcXPEhQsi6WR8UgKCMXx2nIUtzXIsu3ryPQU/vvkPiT6h+C+9KWwU2voAvmMwclxCgIlAMJgGQaeAjT4aB7spR7XMhXg6oGtKdkI8fCmYABw0tnh3rQlyAqLxr6KIrQPD8gyDlU97aju7cCa2BSsjk2RdNvhhdQ7QfOkKAEQiLuDkyBDsa1D/RRsuT3otHZYG78IWaHRkl0TbunE6Nu5d6Cquw0HKkswPjstuxjwPI/jteXIb6rB9ozliPcPlvU5MTE3S0WAKAEQjo+TqyDbaRnqo2DLCAMGz2+8DxqlioLxlXECkgJCEesbiNKOZuyvKILJLL9WsLNGA14tOAF/V3c8nL1K0mWFb0efDCtJCo3GmT7D29nyCcCMfv66tbWJ7aKH/41TKZTICYvBz7c+jOVRCbKNQ8/YCP7z8F68VXwa8zLsiNdDy6QpAbC1EYDusWEKtJjR1AwRJQIK3JmchX/dfD9CPLxkG4eKzlbk7X8LhS11spo71D1GE6UpARAyAXB2oQRA7mTyeX5oagJ/v3AMfzt7WPT1+l3sHPCd3Dvxndw74KDRyfK0NHMcPrhUgJ8deFsW/UN4AG0ynRAqJJoDcDUTYlh4ODhbfDs99F2LRgCsaM5owOn6SpxrrIaZ4wAAvz/+ETJDo7AhIU3UdftDPLzx/+58EMWt9dhXUfTp/svJ1bbDYR4+eDBrJVzs7G3ydw5MjNEEQEoAhOOo1Qqy9Eaq61pp3rrE8xqex6XOFnxcWYJp/dzn/ozjORS11uNydxvWxi3C4ohYsIw4BwdZhkFOeCxSgyOwr7wIF9sbZXk8W4f78cuD7yA7PAZbkrOgUiht7vcRSgAE4yBA4xWe52VZ/pRYV8tgH/ZXFn1t74lZgx77KopQ2FKPLSlZiBZxF0KNUoXtGcuwJi4FrxecQs+4PD+tXW07fNeiHGSERNnMEtM2WipNCYCgIwACfFscn52R5bImYh3jszM4Ul2Kso6b6zo5ODWOl88fRZxfELakZMPd3lG0v9HN3hH/vHYrGgd68EbhKVnOljeazdhbegHHayuwI3slQtylXWSK53laKk0JgO2NAFBdayIEg8mEs41VOFVfeVsJZ21vJxr6u7E4PBbr4tOgVYl3KWOUtz/ytuzA+aZqHK4qlWXb4fHZafzvqY8R6e2PBzKXS7btcOfoEKbm5+hCpgRAwBEAAS6WiflZCrT43z8kvecLXUnPzHE431SDyq420VcyVLAsVkYnITM0GntKz6GmR54Nt5oGevDvB3ZjRXQi1iekQclKq9FUXV8X3YYoARA6AbD8CMDkHCUAxDK6x4axr7wI7SOWWTo1OT+L98vyUdzaIPpeBnZqDb65eC0Gp8bxav4JWRbe4gGcaahCQUsdtqVLq+0wdUoVDtUB+IQQy5+maViLWCCpfL8sH/99cr/FHv5fTDT+dPpj7C45iwmRJ7Reji74wYb7sCM71+Zmyd8og+lK2+HfHNn7tZNAxUBvMmFwcowubBoBEP6twdLmjHoKNFkQZo5DYUsdjlSXQW8yCv52eamjGVXd7ciNScLK6CRBmmjdCgZASmAYEvyDcbymHKfrK2VZ7HF4ahK/P/4hkgJCcW/aEtG2HdYolbgrdTHeL8uni5wSAOGwAnzXFPpGveB3UhmQwsOhrq8T+8qLrL6k1Gg24VjNJRS3NmBjYjpSgyNEe5ooWQU2JqZjWVQC3ik5i4b+blne5y53t6Gqp13UbYezw2IwODmO80019GCiBMCGEgCjkQJNblnv+Cj2VxSJbonUxNwM3ik5i4ttjdiSkg0/FzfRxtBBo8UTy9ajc3QIrxWckOW8nKtthwta6rAzOxcRXn6i28c7k7MwOjONmt4OuvAt+dyjEFxNACwfCpMMS5eS2zdr0GN/RRH+68RHol4f3TLUhz+c+AjvlJwV/TKuIDdP/NvmB/Bg1kooFQpZnlcz+nn89exh/PnMQUyLrOwuwzB4MGsFfJxd6QZACYBtjADwkv76SMWAhWbmrpTo/c2R93C+qUYSa9t5nkdZRzNeOPLe5/oNiPKMZhikBoXjZ1t2IjssRrbnWetQP35xYDfON1aLqtugRqnCIzmroVWp6WZACYDlbwaEiEV9fzd+d+xDvF+WL8mmKHNGAw5UFuN3xz5Evci/t6uVStybtgT/uvkBBLl7yvJ843gO+z85XuOzM6LZL09HZzyYuYJePygBkP4IAEOnMfkaw9OTeKPwFF45fxSDU+OS/z2DU+N45fxRvHLhmOjX47vY2eO7q7bgWys2iboroiX1T47hVwffQWFrnWj2Kc4vCMujE+nmYAE0CVDAEQC5rkUmX09vMuJcYzVO1VXCxNlev4j6vi40DfQgI0T8bYfDvXzxkzsfQnFbPfaVy6/tMA/gg7ICNPT1YGdOrigqCW5MSEf78AA6RgbpZkEjAAvPYDJZfBtqJSUA5As320++mf/68F4cq7lkkw//q67OaXjh6Psoaq0X9ZwGlmGQExaLvC07kBocIctzs6a3A/95aA/GZqatvi8KlsWDmStE3Y+CEgAJE6JIj4YSAPIZrUP9+MOJfZKYNb+QZvTzeL8sH7899oHo1+NrVWo8mLkCP950PwJcPWR3jk7MzeLXR/aipsf6y/HcHZywJTmbbhyUAFggATBYvo2oTqTVt4jQN9Ur6+b/cuYgesdHZBuHwckrbYd35R8XfadMV3sHfG/NVjy5fAN0MpuVbuY4vFpwAmfqL1t9XzJCoxDjG0g3EUoAFnoEwPIJgFTbc5KFYTSbcLy2HL8+vBdlHc2yLEl7LbW9nfjNkfewv6JI9NUyo7z9kbd1J7akZAkycVhMDlZdxIflhVY/b7elL6WXKUoAFnoEwPKfAIToOEjE6XJ3G1448j6O1VyC0WymgFzjLfN8Uw1eOPIeLnW2iPumyTBYFpmAn27ZgTi/IFkdp4LmWrxReMKq9QKctHa4IymTLhpKABbOrAAJgJOORgDkaHp+Dm8UnsLY7DQF42tMzM1id/EZSXTOtFNr8OiStfj+unvg7uAom2NU1d2Bl84dteokzozQKISKuCU1JQASMy/AJwB3e+neJKiCwa2jEtC2HTMfZ1f8cON2fHPxGmiU8pil3jTYg7+dPWS1JIABcG/aElE2M6IEQIpvaQJUW3PW2Yu2berXoe/VhHz1AynePxh5W3ZgRXSiLBLmlqF+vF54wmolzr2dXLE0Ip5OPkoAbt/I9KTlbxIMAzd7JxoBIMRGKRUK3JGUiZ9s2YEYnwCb/701PZ14t+Sc1ba/Nn4Rza2iBOD2jc5MC1Lxi7pbEWL7HDRaPL5sPf55zV1wsbO36d9a1tGMo9VlVpkYqFGqsDo2hU44SgBuD8dzgkzS8ndxp2CLGM/Txw6ygNe7qzt+vOl+bEtfZtPfq0/UVeCVC8esssIlOywGXo4udLJRAnB7hgX4DODvSgmAmFFXSGKJcyozNAq/uOthLItMsNnf2dDfjfdKzwu+XQXLYnUcjQJQAnC7CYAA3coCXD3oezqNABAZUimU2JKShX+94wGEuHvZ5G+81NmCC001gm83JTAMno7OdJJRAnDrRgQoR2qn1sDLieYBECJXLjp7fGfVnfiHlZttsu3wx5dL0D48IOyDjGGQG5NEJxclALdOqH7l4Z4+FGxCZC7M0wc/ufMh3LUoByxjO7diM8fhreLTglRX/azUoAi42TvSiUUJwK3pHhsWZEVrGCUAhJBP3lyXRMTh53ftREZIpM38rvHZGbxXli/oNhUsi5XRNApACcAtmtHPC1IPINLb36YyfkLI7dEoVdiesRzPb9gGXxtZKny5uw3lAvd1yAiNhDOVXKcE4FZ1jAxafBt2ag2C3T0p2F9gr9FApVBadR+oXr/tGp6eFP0kT09HJzy77h48umQttDZQVnhfRRFmBKiyepWSVWAFjQJQAiDmBAAA9bS+BgeNDr+462FsTEy32j6YqW6/zSrvbMG/f7wbLUN9ot/XOL8g5G3dic1JGZJemjqjn8e+iiJhRwFCIq3+IkEJACUAXynBP5iCfQ0KlsWqmGT8dMsOxPgGUEDIgpqcn8NfzhzCX84cxOT8rOivhZXRScjbskPS94vyzhY0DvQItj2tSo2kgBA62SkBuHn9E6PQm4wW346Xowv8JFQVUOiRUweNFo8vXY9/WrMVzjp7OjHJgmoZ6scvDuzGh+WFMJpNot5XO7UG31i8Bs+tvxeeDtJc676vokjQ0bXM0Gg6ySkBuHkcz6N7dFiQbaUEhkkmLgYr3SQDXT3wr5vvx/0Zy6GgKn1kgRU01+InH72BS53NVutqd6O8nVzwg4334RuL10iuq+jg5DgKW+oE216Ypw+VB6YE4NY0D/YKsp1FQWFgJfJQm5ibsdq2GYZBekgkfnH3I1gaEUcnKFlQJo7D7uKz+M3hveibGBX1vjK48vnw51sflty1cLy2HPNGg2DbywiNopObEoCbV9PbKch2XOwcECWRlqFCJUVfRaVQYuuiHPx48/0IdqNVFGRhDU9P4XfHPsSr+ScwK3ARm5ulVCiwdVEO/nntXVBLZDRg1qDH2cZqwbaXFhxh0w2YKAGwkL6JUYwKUBYYALIk8q2qsLleNAOkrnYO+MfVW/Dd1VvgoNXSCUsW+AWgA3n73sTJukrRrwrxd3HHjzc/AHuNRhKxPd9YLdiyQEetDrG02ooSgFtR19clyHbi/AIlMcnNYDaiX2TDo0Funvh/dzyErYuyqYsfWVA8gCPVpfjpvjdR09sp6tkB9hotnl17jySKi+lNRkFHARIDQulkpgTg1t4CBDkADItlkfGSiMl7pRfEdwIzDJZGxOMXWx9GalAEnbhkwR9Yr+Yfx2+PfSBYr5Bb4aSzwzcWr5ZETAtbagWbCxDrG0ifASgBuHmtQ/2YE+gkzQ6PgU6lFn1MOkeHUNfXKcp906hUeDBrBf5l03b4OrvRCUwW1MDEGH5z5D3sLjmLeaNRlPsY5xeEADcP0cdy3mhESVujINvSqdQI8fCmE5gSgJtj5jg09HcL8/BSqpAdHiOJuLxecBKTc+ItoOJm74hn192Np5ZvlERSRaTlUkczfrLvDeQ314ITYVnhbWlLJRHHC001gsUv3o+KrlECcAuqutsF29aKqERoJFD728Rx+O3xDwSt730rIr398NMtO7AhIR00O4AsJJ7n8VF5IfL2vynYS8KN8nVxl8R9ZGx2WrDYJVACQAnArajt6xTsM4C9RiuZuQCzej1+dfAd9IyPiHo/FSyL1bHJyNu6E/H+QXRCkwU1ZzDg5fNH8T8nD4imiRQD6awsKmqtF2Q7rvYO8LGRDouUAAj5tms2o7KrVbDtLY9OhE4tjeU8BrMZfzj+EfaVF8JkNot6X+3UGnxz8Vo8u+5ueDg40YlNFlTH6CB+dfBdvF+WD4PJ+mWFI7x9JRG3+r4uwQqMxfnRCwAlALegrL1ZsG3pVGqsjVskqfhcaK7FT/a9gUudLaIvperr7IbnN27Do0vWQqWkbmFk4d9o/99Hr6Owpc6qbYdddA6SiBfH86joFOYFK8LTj05QSgBuXvvIAPomxgTb3pKIWMkNVxnNZuwuPoP/OLhHsG6Kt4r55G3g51t3Yo3Eki0ijYfaB5cK8MuD76B7bNgq+6BWqSQTrwqBRlgD3TwlU3adEgCREbKJBcuwuDM5S5JxGpudxv+cOoBdF45jWuSTBJWsAuvjU/HTOx9ClLc/neRkQU3MzeK/TuzD384dwdT8nOBJrlR0jw0LUl9Bq1LB28mFTkxKAG7epY5mQdf+Rnn7Y1FQuGTjVdvXiZ/vfwuHqi7CxIl7foCDVocnl2/A99ffA1d7BzrZyYJqGujBzw+8jY8vl4h+roy1VPcIU3Qt2J3qAVACcAv0JiPKOpoE3ebWlGzYa6Rb554HcLr+MvL2vYXa3k7R76+Pkyv+ZeN2SSde5KtZsyLc2YYq/GTfm6IfGbMGocquB7t7UbApAbjFC7ixChwvXGMQe40WW1KybSJ52pV/HC8e/QD9k2Oi3leGYWiVgA1ztbPuCI/RbBJ9/Qxr6BgZEKT7YpA7dRClBOAWjc1Mo7KrTdBtpgaF28wb6cDkGH579AO8WXgKcwYDnVCEEABXJk42DVi+3binowvsJLLMmhIAETrTUCX4Qre7Uxdb/c1lIVV2tyFv/5s43XBZ0BEVQoh4tQ73W3wbDAB/V3cKNiUAt6Z3fETw79k6lRoPZa20qY5WHM/j0OWL+Nn+t9E40EMnFiEy1zbUL8h2PBycKdiUANy6o9Wlghf5CPHwxh1JmTYXy1mDHi+dO4LfH/8Qw9OTdHIRIlP9k2OYE2AeAM3xoQTgtvRNjAm2bOWzlkbGIyMkyiZj2js+il8f3ot3S86JttUqIcRyeJ5HtwC9RSgBoATgth2pKbPK9+u7Uxcjysd2i9aUdjQhb/+bKGqtt2opVUKIFV4ExgRIABwpAaAE4DYNTo6jqLVB8O2qFAo8sXQ9Niak2WxszRyH98vy8fMDu9E82EcnGyEyIUR3UXd7JyoJTAnA7TtWcwnzRuGXszEMg1WxKcgOi7Hp+E7r5/DXs4fw5zOHMD47QyccITZuQIA6IQqWhbOdPQWbEoDbM6Ofx4m6Cqtt/560JUgKCLH5OLcO9eFXB9/B/spiGKmUKiE2a3h6UpBl1p60EoASgIVwvrEGveOjVtk2A2Bn9ipZNLLhAZxvrMZP972BkrYGmh9Abu2aoaFfUTOYTJiam7X4dhwkXGKdEgAR4XgOH5UXwFqPI4Zh8PiydYj0kkc3O6PZjL2lF/Cfh/eix0qtVm+FkqXLjGJGbsTIjOWXA2upGiAlAAulbXgApW2N1juADIsnl6/HoqAw2cR8dGYKfzixD6+cP4pp/Zzo99dBq8ODWSvhrLOjC+ZrOOnscG/aEjhodRSMWyTl8bFJAUYA7FRqOkkoAVg4+yuLrTpRjWEYPJSVi5XRibKKe31/N36+/20crS6DmRN3WeHUoHD8cOM2rItPhUqhoIvmCxQsi2WR8Xh+w302P8GVfEUCMG/5hF6rpgSAEoAFNG80YG/peatn3puTMnHXohzZve2cqKvAT/a9gYquVlG//agUSqyNW4QfbtyGtOAI0BfpK+L8gvD8hvuwJSUbGqWKAiJjU/OWHwHQqegTACUAC6xxoAel7Y1W348lEXF4bOlam+odcCMMJhPeKjqN3x37AH0To6LeV2edPR7IXIF/XL0FQW7ybVHq5+KOf1i5GY8uWQs3e0e6iSxYVizdjwBCdArV0QgAJQCWsL+iCCMiqGkf6xuEf9m0HW4O8rup9k+M4XfHPsRbxacFqS1+O4LcPPGdVXfi3rQlsJfRzGQ7tQZbU7LxvTVbEebpQzcO8n+JvNkkwAgAJQCUAFjAvNGIN4tOi+J7tLPOHs+vvw8pgWGyPBYVna3I2/82TtZVinp+AMswyA6Lwb9s2o518alQsrY7P+Dqd/4fbdqOpZHxVJGNfDkBMFm+F4iaPjNRAmAp3WPDOFxdKpob7o7sXDyUtVKWN1uO53CkuhS/OPA2Gvq7Rb2vGqUKa+MW4dl1dyPGN9DmjkWktx+eWXsXtqRk0xsYuS4hin1Zo4+LWCkpBAvvXEMVwjx8EOcXJIr9WRQUjjBPH7xy/pjov49bwoxBj5fPH0WAqwcezlkl6u/Nno7OeHzpOtT3d+NARTEGp8YlHXsvRxfcmZKFGJ8AujGQryVEkS8qJEYjAJY9wQDsLjmLoakJ0eyTs84ez667Gw9krrDpYeav0j02jP84tAd7S89DbxJ32+EYnwA8u+5u3JmcJck3Zp1KjU2JGXhm3V308CeiwnGUAFACYGHzRgN25R8XXX/7tOAI/GTLQ4iW8U25pK0RP933JvKba0X9NqBgWSyPSsCPNm3HMol8M2cYBmnBEXh+433IjUmSbbJJRJwAgBIASgAEMDQ1gXdKzoruIaNTqfHEsvV4esVGWc0+/ywzx+Gj8kL8+8F30DbUL+p9tVNrsCUlG99bcxfCPX1Fu5/hnr745zV34YHMFXDQUCU/cvOEKJLFcTQHgBIAgdT0duBAZbEo9y3Cyw8/ufMhbE3JBsvI81SYnJvFn84cxJ/PHBR922E/Fzd8a+UmPLZ0LdxFNI/hal2Dp1dugp+LG1305JYJUQiK5gD8H5oEKIDzTTVwd3DCkog48WWADIOlkfHICI3CR5cKUdrRJMtj1DrUj18efAfZYTG4MzkLaqV4L41Y3yBEeQegsKUOR6rLrDafQaVQIjcmCbnRSVBSeWOyEAmAyvIJAEcJAI0ACO1ARREMJpN4LzylCvdnLsfzG+6Dt7OrbI9TUWs98va/hUsdzaKfH7A0Mh4/2HAfUgUuK8wASAoIxQ823Iu1cYvo4U8WjFaACa+zIi8QRiMANsjH2U3Ub5VXeTo647l196BxoAdvFp7EnNEou2NlNJuwu+QsjlRfws7slQhy9xLtvjrr7PBg5gosi4zHvvIitI8MWHR7Aa4e2JqSjRAPb7qoyYJz1Fq+Y+bU/BwFmkYAhCWWmgA3KsrbHz/dshObEjNkW7FtbHYKfzx1AH87d1j0N40AVw98e9UdeDhnFVzsHBb873fSXmnT+0+rt9DDn1iMkwAJgBRaiNMIgI2JlWB1NwXLIjcmCVlh0dhz8RxqejtleeyaBnrxi493Y2V0EtbFLxLt0rarQ/OxvoE401CFU/WVMN1mZTUFy2JxeCzWxadBq5J2CVUqPCyFEQDLrx6ZphEASgCEPqkDXD0ku/92ag2+uWQt+ifGsCv/OEZnpmR3DHmex+n6SuQ312Bb+jIkB4aJ9oFyte1wRkgUjlSXoqyj+Zb+nkT/EGxOzhTVigNyA+eqhPfdXYAGZvQJ4P/QJwABRHr7g7GBYXQfZ1f8aNM2fHPxGtn2bb/advi3R99H7/iIqPfVxe7K8rxv3eTyPC9HFzyxbD0eWbyaHv5EMGqlEk46e8snAPQJgBIAIYXa0DdTBgzi/YORt3UHVsUky3ZYdWByHL8//hHeLDwl+lnFN1qg52qb3u+vv1vWlSKJdXg6OAtyP6ERgP9DnwAEYIs9z5WsAhsT07EsKgHvlJwVfbc9S6nsbkNVTwfWxS/CyugkKFhx5tRXS/TG+QXhdH0lzjVWf9ommWVYZIZGYUNCmmwrQwqH1qBfj5eTi8W3YeLMtAyQEgDh2Gu08HR0sdnf56DR4oll69E1OoxXC45jcm5Wdsf4StvhMpxrrMb9mcsR5yveFR9Xm/RkhEThQGUxTGYztqRkw0cWtR8Y2gcR83d1t/g2RqYnqRIgJQDCvv3L4ZIPdPPAv21+ACVtjfiwvODTt0s5mTXosevCcfi5uGNndi48HZ1Fu6+ejs54bOk6ukCJaAgxUXpoapIC/Rk0B8DCgtw8ZfNbGYZBVlg0fr71YSwWYdljofSOj+A3R97DuxfPib7tMBEavX1e894BwM/F8iMAw9MTFGxKAITj6yy/5ihqpRJ3L8rBjzffjwAZJUBfVNrehJ/uexNn6i+Lri20mFksaRLFUBx9ArgWH2c36AQoA9w/MUbBpgRAOEJktWLlaueA763egn/I3QwHrTzbw5o5DgerLuKFI++hqLWevj9+zbvx5e42vHj0A8u8J1PoRSvcS5g2173joxTsz6A5ABbkpLMTpLKV2IV5+OD/3fEgCpprcaCyBBwvv/kBk/OzeL8sH8WtDVRL/xq6x4Yt38uAXr7FmwB4Wj4BMHFmDE6NU7ApAaC3f6F9tu3wh5cKbrk6nS086P50+mMkBoTijuRMuFqgbr+kEqO5WRyvLUdxW4NMRkdoGOLL9wYW4QIslR6YHJfl5GRKAKzES8SzwK1Fo1ThgcwVWBOXglcvnMCADDPyq0PddX1dyI1JwsroJKhk1lLXzHEobKnDkeoymU2UpGGILwr19IZOrbH4djpGBinYlAAIx43KqF6Xh4MznttwLxoHevBG4UlZTpIzmk04VnMJxa0N2JiYjtTgCFk8Hur6OvFReZEse0qQLxOqbkb78AAFmxIASgDE5Erb4R04WVeBk7UVshwgnZibwTslZ1HS1oCtKTk3VbdfSnrHR7G/oggtQ3038E/zNvq2TJ8AvpQACNQq3aLzSygBIF8kRCOV6p4OqJVKRHn7S/ckZBVYH5+GZZEJePfiOdTKtO1w61A//nDiI6QGhWNzUqbNTCCdNehxorYc+c214GgVBPmMAFcPeDg4WXw747MzGJuZpoBTAiAMBoCrAAnA4NQ4DleVIszTFzuyVsJJZyfZmNmpNXh0yVr0jI3g9cITGJXhBcvzPMo6mlHb24ncmGQsi4qHkpXm/AAzxyG/uRYnassxZzTQTYF8SWpwhCDbaRrsoWBfA9UBsBCdWiPIxK6rWW3rUB9+8fFufHipAEazWdKx83d1x482bseDmStkNznuqjmjAYeqLuJ3xz5EXZ/0RkTq+7vxu2Mf4kBl8a09/C0wUEDT70T28GFYpASGCZMADPRSwGkEQDhf1XZ1IX1xIlVBSx0utjfh3rTFSA2KAMNI87bHMAxSgyOQFBCKozVlONtQJcuvp0NTEzhUVYZgd2/YCTBT+nbNG414v+wCKrpaRfe0po8P4hLrGyjIZy6eEgBKAIQmVFvVa82kNppNeKfkHI7WXMIj2asR4OYh3RNUocDmpEwsjUzAW0Wn0TbcL5tz6OqSyXj/YNG/vXI8j+LWeuyvKIaJE+cIFI0AiMviiFhBttM9OoRp/RwFnBIAIRMAy7+t8TyP8dmZ6/752Mw0/uvkPkR5++OBzOVw1Ep3foCzzg7fzt0sm7bDq2NTsDZuERSs+L/SdYwM4vXCkwt7TGx1EYAQJDDU4eHghEgvP0G2Vd3TQecEJQACJwBqy48AzBr0N/S21TjQg18c2I218alYFZMsiYfK9QS6eeBfNz+AopY67K8strnKXvF+wdiesUwSw/0Tc7N4s+gUra8mN21JRJxgnydreikBoARAYFoBOlsZzKabeik4VnMJZxsu44HMlUjwD5ZsbFmGweKIOKSHROGjikJcbGuU/PniaueARxavFqQn+u0ymk34+PJFFDTX0oVObv7lSKNFVli0INsamprAwOQ4BZ0SAGEpFJZ/yzaYTDf97+hNJrxWcAI+zq7Ymb0K3k4uko2xWqnE9vRlWBu7CG8Wn0LnyJD0LkCWxbaMZVgUFA5G5GPePHiUd7bivdLzkl9pYsvE/gVgWWQCVAphHj23PRmVEgByazd2yy9fM5pNt/zv9k+M4cWj7yM5MAz3pi0RpBe3xd6e7R3w3VVb0DLUhzcKT2FGPy+J/V4cEYc7kjIEuxnejt7xEbxecBIjVL6X3AatSi3Y5D8AKO9soaBTAmCFEQBWnCMAX1TZ1Yqq7nZsTsrA0sh4sIx0Z16Fe/riJ3c+hPzmWnxcWSzaqnOhHt7YkZ0LZ5296GM6o5/HuxfPoa6viy5qcttyY5IEe9noGh3C0NQEBZ0SANtMAG5nBOCzOJ7DgcpinKyvxI6slZIuK8wyDJZFxiMzJAoflBfgkojaDjtqddiRnStI7/PbZeLMOF1/Gcdry2XSppdYmpPODssi4wXbnlxbjlMCIAJCfM81LfAM+Fn9PF46dwSBbp54OHsVXO2l26teo1LhwcwVWB2TjNcKTmLQim2HGYbBXYuykRMWK/rCTDyA2p4O7C45a4NteuWyrlCcCdv6+DTBPncZzWZcouF/SgCsRYjlaZYqk9s1OoRfHXoXOeExuDM5SxLfqK/Hy8kFP7Bi2+Gs0GhsScmGWin+GA5PT2BX/gkM2uysaRrJsJaUwDBkhkYJtr3KrlbMGfQUeEoArEOIamgapcqif39hSz1K2hqxJSUbOWExki0rDPxf2+Ez9VU4VnvJ4sPaPs6ueDhnFbwcXUQfm3mjAe9fKkCFzb8xUWUha7BTa7AlJVvQbRa21FHgKQGgBGAhRjI+vFSA0/WXsTM7F8HuXtI92VkF1sSlYHFELN4pOWuRiW1alRo7s3MR7RMg+nhwPP/JhMkScDxHFy2xiDuShW1t3TU6hM7RIQo8JQDWYzZb/oYqRAJw1fjsNP7n1AGEe/riIRtoO/zY0nXomxjFawUnMTI9uSDvlusSUpEbLY1Ki1JbMkmkKdzTF+khUYJu82xjFQWeEgDrMpgt/63ZGt+VWz5pO7w8KgEbE9Ml26seAHyd3fDDDfehrLMZ75flw3SLxW0SA0KxLW0JdBIo3zs6M4U3i06ha3RYdtckfQAQlkqhwH3pSwWN+9jsNKq6qfQvJQBWNqO3/AQUjUpltd93rrEaRS312J6xDEmBYZK9uTIMg/TgSCQHhOFQ1UVcaKq54X/Xy8kFD2evgo+zq/gTUpMJ+yuLUNzaQBcnEcTmpEx4ODgJus3zjdX0OYsSADEkAJYfWlWyCjhqdZiat06rS4PZhDeLTsOzpgwP56yGr7ObpN9WtqZkY2V04idth6/f4EatVOLBzBWI9w+RTJvefRVFNtc4iYhXcmAolkTECbrNqfk5FFGCSwmAKBIAgzDfVt3sHa2WAFw1NDWJ3x37EHG+QdiesQz2Gq1kj5uzzh7fzr0DXaPD2JV/HFPzn29xuyY2BWsk0qZXLq2Tibh4ODjhvrRlgm/3bEPVghVHowSAiH4EAADcHZzQMTIoit9c29eJnx14GxsS0rAyOhEsI+22w/92xwMoaWvAvvIihHn64IHM5XDUin/y47R+Hu+UnEVDfzddiERQKoUCD+esglbgz5NT83MooKV/lACIJwHQg+M5iz8E3e0dRfW7eZ7H4apSnG2ows7sXERKvKxwdlgM0oMjoVSIf7Kj0WzG4epSXGisppI3xCruTVsKPxd3wbd7sq6C3v4pARAPjucwPjsDNws/oN0FnmRzo2YNevzt3BEEuLrjwaxceDk6S/ciEfnD37bL9xKpWB6VgLTgCMG3Ozw9iaLWejoAlACIy8jMlAAJgKOoY9A9NoIXjryHjNAobE3JFrR2gRz0T47h1fzjGJmmNr3EehYFheOOpEyrbPtwVSlNcKUEQHxGp6cACxfO83V2A8uwol/6crGtEWXtzbgjOQNLIqTddlgMZg167Ll4HjW9tOaZWFeMTwDuz1hulVLh7SMDqOpuo4NACYAIE4AZy7+VaZQq+Di7oHd8VPTx4HgO+yuKPykrvAphnj50ktx0DHnkN9d8Ur6XvvSTLxPyrAh088TOnFVWWRXD8Tw+ulRI810oARCn4QUoMXsjgt29JJEAXDU1P4c/nzmIUA9v7MjOhbPOnk6WG1Df1423i09hzkjf+W8JDTotKG8nFzyxbL3VPuvlN9eiZ3yEDsRtYCkEltMr0MkZ7O4tyfi0DQ/g3z9+B/sri265DK8cjM1M479O7MMrF47Sw5+IQoCrB761chPsrFT+emp+DsdqLtGBoBEA8RqZnsS80WjxNbFS7tAHAOcba1DQXIe7UxcjMyRK0m2HF5LBZMKHFYUobWukYBDRCPfyxaNL1lp1Qu/+iiLMGw10MCgBEC8eQP/kKEIs/Ibu4eBk1ZLAC8HMcXiv9AJO1VXi4ZxVCHD1kO15w/E8Stoa8FF5Ic1uJqIS5xeEndmroLLi0tja3k5UdLXSwaAEQPx6xy2fAABApJcfLnW2SD5eozNT+K8T+xDn90lZYbVWVudL23A/Xi84iWkZt+l11tkDNAokOmnBEdiescyqFT5n9PN4r+wCHQxKAKShe0yYtqsJ/iE2kQB8Nsv/2b63sDYuFatikyVRe/92jM/N4M3CU6Ip62wNCpbFluQs5ITH2ux8PSku3GAZFhsT07AiOsnqx+WDSwWSHumkBEBm2r+iq9xCivENgEqhtKlymDyAY7WXcKaxCg9mrkCCf7DNnR8msxnHa8txqr5S1teJXApFSW1gw16jxY6sXER6+1l9X8o7W3CZ1vxTAiAlQ1MTmJybhZPOsk1kVAolorz9bbIwjMFkxGsFJ+Dj5Iod2bnwcXa1gTdBHpXdbXj34jlZr4Dwd/HAwzm5oi1pLecRgFAPH+zMyYWTCBpgjc1M48PyQnqgUAIgwVGAkQEkBYRafDsJ/sE2XRmuf3IMvz32AdKCI3DXosWCdxxbKH0To3it4ISsy/faqzV4IHMFYnwD6QYhtlEKAMujErEpKV0UHT1NnBlvFJ3CnEFPB4cSAOlpHeoXJAGI8wuCgmVtfuZ4WUczLnW24M7kTEmVFaY2vVe+J29ISMOK6ATBHy5iOEsEOVVvY5jB3d4R96YvRaSXn2jOmf0VxegaHaIHCSUA0tQ82CvIduzUGsT5BqGqp93mY8rzPPZXFONUXSV25qxCuKevaPfVxJlxoubKd345ly1NDgzDvWlLoFOp6aYgwsRsSUQsNiSkQ60Uz2OhsqsVhS11dIAoAZCugclxDE9PwkOA75w5EbGySAA++1b9lzOHrtQkz861ePfFm0pSANT3deHtotOYl3GbXm8nFzyUtdIqfeLFl7iKb5/8Xd2xLX0Z/EV2fHrHR7G3lJb8UQJgA+r7urA0Mt7i24n08oO3kysGJsdkFd+u0SH8x6E9yAmPwR3JWVArrHtqj0xP4tX8E+iX2XH4LLVSiW3py5AcGEZl+EXIUavDmtgUZIfHiOJb/2dNzs9iV/4x6E1U+poSABtQJ1ACAADZYdHYV1EkyzgXttSjpK3RamWF540GvFd2AZVd8l2uxABYGZOEdfGpULIKuvg/GxsRZEIapQqLI2KxKiZFlBNpjWYzXss/gfHZGTphKAGwDa1D/dCbjIKsc04PicTh6lIYTCZZxvpqWeETteV4JGc1At08Lb5NjudwrrEah6pKwcu4TW+cbyC2ZyyHvUZ8FRxNIpgca81TQ61UYmlEPFZGJ0JnpSY+Xx8fHruLz6CTJv1RAmBLTJwZdX1dSAkMs/i2tCo1UoMiUNRaL+uYj8/O4L9P7keMTwAeyFxhsYdSy1AfXi84iVkZL1Nys3fEI4tXi+478meJoYIcK0BFyy/mGE46O2SHxSA7LAaOWp2oz6N9FUWymsNECYCMXOpoESQBAIBVMcm42N5IzWQA1Pd3I2//W1gVk4x18akLVlZ4dGYKbxSeEqzcsxipFArcnboY6cGRou/i2Dlq/TLLKkE+iVxJAQJcPbA0Mh4pgWGSKKV9uLoU+c219KCgBMA2NQ50Y0Y/L8jwqKu9A7LCYlBAF9SnTtVXIr+5Bg9krkS8f/AtT0wzmE3YX1GMYhmPsDAAlkYlYGNCulU7w92Mhr4uq++DQmH5B7G9Rotn1t4NPxc3yZxPp+sv41SdvMthUwJg48wch8ruNiwOjxVke6tjk3GxrdGm+gPcLr3JhNcKTsDbyQUP56yGt5PLDf+7HM+huLUB+yqKZD2yEubpg4eycuGss5PMPo/PzWDOaP0Z5QrG8smSg0YHB41OMsemoLkWh6ou0s2JEgDbV97RIlgC4KS1w5KIOJxpuEyB/4KByXG8ePR9BLt7YXNSBgLdPK87Y31qfg6VXa04XFUKg4yTKQeNFjuycxEhoipxN+pCU404brgKli6+zz78W+rwkUxXLFECIEMdIwMYmBy/qTfP25Ebk4Si1nrMGw0U/Gsej0H86fRBAICLnQPCPX3gpLODwWTC4OQE2ob7YeLMso6RgmWxNSUbWWExkim7/FnzRgPONVSJJpbkitP1l+nNnxIAeeE/yXrvXpQjyPbs1BqkBUfQ5JobMD47jbKOZgrEZ2SERmNrSpak2/S+WXRaFCWYGQAKhhIAADhUVYrT9fTN39robLSCsvYmzAv4PXJdfKoo12UT8fJ3dcePNm7D9vSlkn74n2+qEU3zJUednehXSlgax3N4vyyfHv6UAMiX3mREeadwb5p2ag02JKRR4MkNnStPLtuAf15zF9wF6F1hSSVtjdgvou/LHhKP50Lc917NPyn7+iRiQp8ArKSgpQ7Z4bGC1UjPCo1GWXsz2kcGKPjky28CDIMNielYEZkgSLEaS79lHqgowYXmGlHtV4Crh2zPr4m5Wey6cAw94yN0sVECQPonxlDf14lY3yBBtscwDO7PXI7fH/9QtiWCybUlBYTivrQloi0PezM6RwbxasEJUVT9+yJfZzdZnl+do0N4Nf+4KI8JJQDEak7UVgiWAABXhiA3J2bgw/JCCj6Bl6MzduassokH09T8HHYXn0HTYK9o99HT0Vl251hRaz0+Ki+kiqSUAJBrZcZNg72IFHBddU5EHGr7ukQzMYoIT6VQ4v6M5UgKDJV8m14TZ8bRmks4Uy/+Wheu9g6yOccMJhPeK7uA8s4WuuAoASDXc6quUtAEgAHwUNZK/OH4RxibnaYDICMMgKWR8diYmCGZ8r3XwwOo7+vCG4WnJFHpUsGycJRQdb7bMTg5jtcLT2FgcowuOkoAyFdpHuxF61A/wjx9BNumnVqDh7JX4i9nDtHQnExEefvjwawVkioRez294yN4reAkRmemJLPPfi7uNr8EkAdQ3FqPA5XFNM+IEgByow5eLsE/rt4i6HBsiLs37kjKxD4qw2nTXOzssSM7FyHu3pL/LbMGPd69eA61vZ2S2/d4v2CbPs/GZ6fx7sXzaBbxHAxCCYAodY4O4XJXG5IDQwXd7tLIeAxNTaCgpY4Ogo1RsCy2pGQjJyxG8m+eZo7D2cYqHKkqFUVFv1sR6e1rs2/9pW2N2F9ZTOXGKQEgt+pQ1UXE+wddtyGNpWxdlI3h6Uk0DvTQQbAR2WExuDM5C2ql9C/v5sFevFZwUvIPF28nV5s7z4amJvBheQGaBuitnxIAcltGZ6ZQ1FKPpZHxgm6XZVg8nLMKfz5zCL1UpEPSgt29sDN7FVzs7CX/WwanxvF6gW1MJHPW2Um6nPIXGUwmnKgrx7nGappDRAkAWSjHasuREhQm+EQtrUqNp5ZvwJ/OHMTg5DgdCImx12jxUNZKRHn7S/636I1GfFheYFNNmTJDo23id/A8j/LOFhyuLsM4rSCiBIAsrDmDHocul2J7xjKrPESeXLYe/3v6IF3cEsEyLDYlpmNZVDxYRurle3kUNNdif2UxeJ63qeOUEhgm+d/QNNCLg1Ul6BmjUUJKAIjFlLY3Ij0kUtBlgVe52DngO7mb8ZezhzEyPUkHQ8RSgyJwd2oOtCq15H9Ly1AfXi84hVnDvM0dJ41SJekKgF2jQzhcXUrf+SkBIELgAXxUXoDvrbkLCis0ZXGxc8C3VmzC384dxtDUBB0QkfF1dsWO7FXwdnKR/G8Zm53Gm4Wn0Dk6ZLPHKykwRJKrMNqHB3C64TLqejvB02VHCQARTt/EGE7UVWB9fKpVtu9iZ49vrdyEv5+n7l1ioVWqsD1zORL9QyT/WwwmEw5UFsuiLWxWaIykXj7q+7pwqq6SuoZSAkCs6VRdJeL9gqzWQtRJa4dv596BN4tOoa6viw6IlTAMg3XxqciNTrLKiNCCPmB4Hpc6m7G39IJsZo9L4ZjNGvQobW9CYUsdhunTHyUAxPo4nsPe0gv47uo7Ba8NcJVaqcQ3l6zBh5cKZfG2JjYxPgG4P3MFHDRayf+WrrFhvHrhOCbnZ2Vz/By1Ovi5iLfTYufoEIpa6lHR1QKj2UwXHCUAREx6x0dwpKoMdyRnWm0fWIbFvWlLEOLhjffLLtCNQgCudo54OGcVAt08JP9bpubn8HbxaTQP9snuOGaGRotudcbY7DQqOltxsb2R5vgQSgDE7lxjFaJ8/K2+xjstOAIeDk54o/AkJuZm6cBYgEqhxL1pi5EaFCH58r0mzoxjNZdwWgJtei2BAZAREimKfRmamkBtXycqu9rQZcMTLgklADaHB/BOyVk8s/ZuOGqt28kt2N0Lz667B3tLz6O6p4MOzgI+LFZEJ2F9QqrVPvcs2PnK86joasXei+dh5OQ7WhTlEwB3ByerbNvMcWgd6kddXyfq+rrouz6hBEDKpubn8FbRaTy1YoPVhxTt1Bp8Y/EaFLXWY39FsSR6sYtZuJcvHspaCSetneR/S//EGF4rOEEPHAAroxMF25bRZELP+AjahgfQPjKA1qE+zBuNdHERSgBsRctQHw5VleKOpExR7E92WAyivP3xflk+NRK6BU46O+zMzkWoh4/kf8usQY89F8+jppdGhQDA38UdEV5+gmxrYm4Gvzq4BxxPNfkJJQA27VxDFYLcPJEUECqK/XGzd8QTyzegtK0RH18uwaxBTwfp6y44VoG7FuUgMzTKJtr0nqqvwPGacioW89m3/5gkwbZV3tlCD39CCYAcXJkPcA5u9o5Wqw/wRQyAjNAoxPsH41jNJRS21NMN6TpxWhwRj02J6TbRpremtwO7i89Ab6JPQJ/l7eSKZAET9PLOVgo6oQRALoxmE3ZdOI7vrt4iqravdmoN7lqUg5zwGBy8XIq6vk46WJ9YFBSOrSnZsLeB9fyDk+N4vfAkBqhr5DWti18k2MjOwOQ4tfAmlADIzeT8LHblH8c/rNwMrUpcfca9nVzx2NK16BgZxNHqMjQNyreJSJxfEO5etFhUidqtmjca8F5ZPiq76I3zevxd3ZEo4Nt/aXsTBZ1QAiBHveMjeLXgOJ5Yuh5KhfiWjgW7e+GpFRvRPjyAs41VqOnttLk2r9fCMAxSg8KxPiENrnYOkv89HM/hQlMtDl4uAcfTl/6vsiU5G0LN6jBzHMo6KAEglADIVstgH94uPoOdOavAinRCWYiHN0I8vDE0NYHzTTUo72y2ySVKOpUaa+JSkBUWA41SZRvn11AfXi84SZM7b0BSQKigLbxrezsxNT9HgSeUAMhZVU873iu7gG1pS0U9q9zT0Rn3pC7GHUmZKO9qQUlrg+TbwDIMgyhvf6yNW4Qgd08wYGzinBqdmcKbhafQNTZMF9gNUCmUgi/PLW5roMCT208AWICjgT1pu9jWCJZhcG/aUtE/gtRKJbJCo5EVGo3h6UlUdLWiorMVA5Njkog1yzAI9/TFssh4RHj7Q6VQ2Mx5JKc2vQtpXXwqXO2F+9wzNDWBxv5uCjy5/QSABwwUBukrbm0AAwb3pC2RzHuoh4MT1sSmYE1sCoanJ1HX14X6vi60DvXDJKIysq72Doj3DcKi4AgEuLiDlXhb3i/ieR7FbQ34qLxQNm16F4q/qzuWR8ULus1zjdVUd4EsTAIA8AbYyNCl3BW11sPMcbgvfalo5wR8VTKwLDIeyyLjYTKb0Tk6hNbhfrQPD6B7bBgz+nnB3vAD3TwR7xeECC8/+Di7QqWw3S9l7SMDeKPwFCapwdNNU7AstqcvE7Q894x+nib/kYVMABia4WNDLrY3Yt5owEPZKyXbWEapUCDM0+dzk6om5mbROz6MgclxDE9PYnh6EiPTU5ien7vl0QKtSgUnnT3c7R3h5egCD0cn+Dq7Idjdy+bPk4m5WbxdfBqtQ/100dyiDQlp8HNxF3Sb+c211JKb0AgAub6qnnb8/cIxfGPxGpuZke6ss4OzLgixvkFf+rNZgx5T83OYNxpgMJkwbzJ8acmhglVAo1RCq1JDq1LDWWdn02/212M0m3GkuhTnGqvpQrkNYZ4+WB6VKOg2541GXGiupeCThUsAeDAGevzbnqaBXvzvqQN4bOk6uNjAevSvYqfWwE6toYP+FXjwuNzVhncunoOJ3iBvi4NGh4eycgX/zJbfXIs5WpJJFnYEALSY1Eb1TYzhj6cO4NEla0XTO4BY4zwYxesFJ6lN7wJgGRY7s3PhrBO2fbPeZMT5Jhq1IQucADDAKIXBdk3OzeIvZw7h/szlSPQPoYDIyIx+Hu9ePIe6vi4KxgLZlJSOcC9fwbd7tqFKsImwREYJAM8zIwxDi0psmd5kxBsFJ7EyJgkbEtIlt0KA3Bwzx+FcYzUOV5fKovyyUFICwwT/7g8A0/o5mrNBLJMAgOGGaRKg7eMBnK6/jN7xUTyQuRwOGh0FxQbV9nbi7eIz0JuMFIwFFObpg/szl1vlTnmsppyOJ7FMAsDy7AhPIwCy0dDfjd8e/RDb0pcizi+IAmIjhqYm8FrBCWrTawHeTq745pK1VllWOzA5huJWKvtLLDYCwAyD6krJyrR+DrvyjyMtOAL3pC6BWkktIaTKYDLig/JClFFrWItwd3DCU8s3QKdSW2X7H5YXguOpOiOx1AgAaxo2cyxFQobKOprRNTqMB7NW0CoBieF4HgXNtThQWUIPCAtx1tnhqeUb4CTwjP+rKrta0TLYRweCWC4B4FWKTuhpBECuBqfG8T+nDmBdfCpWRifRBEEJaBzowVvFZzBLs8ItxsXOHk8t3wg3e0erbH/OaMCBymI6EMSiGAB4bs/LIwDcKBzy5ufijrsW5SDUw5uCIULjszN4s+gkOkaGKBgW5GbviKdWbIS7lR7+APDuxXMopc86xIJ4oOSTj798O8BQAiBzveMj+PPpj5EYEIo7k7PgYmdPQREBvcmIw1WlyKcysBbn6+yKJ5ZvgJPWzmr7UNvbSQ9/IohPEgCmDUAqhYPwAC53t6G+vwsro5OwKiYZCpbmiFjlWPA8yjqa8X5ZvqjaI9uqKG9/PJyzGlqV9fpnzBr0eL8snw4GES4BYHimnZYCks8ymEw4VnMJlV2t2JKSjShvfwqKgAYmx/DXs4cxNU+VuoWQFRqNu1MXWz3Z/ai8EJPz1JqZCEMBAEu23RkJhtlE4SBfNKOfx6WOZjQN9MJRq4WnozMFRQB2ai2MZjNah6ldryWxDIuNienYnJRh9QmwNb0dOFJdRgeFCKVHAQCLt29xBJhvUDzI9YzPzaC8sxWNAz1w1Org4ehM9SMtiGEYhHv6IsDVAw393dQD3gKcdXZ4Ytl6pASFWX1fpubn8PL5ozCaTXRgiLAJQM7dd0wxLPs8xYN8nYlPEoGa3k7YazTwcnKlRMCCPB2dsSgoHF2jQxifm6GALJBonwA8vmw9vJxcrL4vZo7DrvzjGKQqjkTgBODTe/dze17uBeBLMSE3w9fZFdlhMUgNjoDWStXS5MDMcThWcwlnG6tg5qjwz61SKZS4MzkLOeExotmnDy8VoKCljg4OERQPlHxa3Hrxtq1rAURQWMjNmNbPo76/G+ebatA3Pgo7tQbuDo4UmAXGMgwivf0Q7x+C3vERTNBowE0L9fDBY8vWIsYnQDT7VNbRjMPVpXRwiFVGAP4vAdi+JRnAYooJuRUcz2NgchxlHc2o6e0AcGX4WqlQUHAWkKNWh4yQKNhrtGgfGYCJRgO+lp1ag7sXLcbWRTlw0GhFs19do0N4rfAkOGrZTKydAORs2+LDAHdTTMjtmpqfQ11fF842VKFpoAd6kxHOdg5WXV9tSxiGQZCbJ9KCIzE2O40h+nZ8TSzDIic8Bt9YsgYhHt6imqsyNT+Hv549jDmDng4UsVoC8Ok18fyeV6I58PUUE2Ip3k6uSA4MRXJAqCgmX9mKrtEhHK25hIb+bgrGJ6J9AnBHUiZ8nF1Ft28msxl/O3cEbbTEk1gRD5T8X1LM88xze18ZAOBJoSGW5unojFAPb4R6+CDY3YvqCyyAjpFBHK0uQ9Ngr2xjEOrhjfXxaQj3Eud8Zo7n8VbRaVzubqMTlogoAQDw3J6X9wO4k0JDhOag0SHEwwshHt4IcfeGj7MrNEpxfDKYNxrQOz6K3vFRhHh4ib51cvNgL07VV6J5oBdy+LrMAIjxDcLK6ESEefqI+YaLd0vOoqyjmS54IooEQPmF/yUfDCUARHjT+jlU93Sguqfj0//NSWcHT0dneDo4w9PRGV6OzvBwdIabvQNYZmFLthrNZkzMzWB8dhpDU5MYnp7A0NQEBifHMTIz9ek/p1Io8eTy9Qj1EO+DJsLLDxFefhiamkBRaz1K25swa4PfmtVKJVICw7A8KhHeEviktL+iiB7+RHTJ86e+v+eVpQz48xQWIvaT1kGrg71GC0eNDjq1Bjq1GhqlCmqlCmqF8kv/Dsdz0JuM4HkeswY95gwGzBr1mNXPY2Ju9qYekFqVGk+v2Cj6kYDPJjeVXa0obKlD56j0WwkHuHogMzQai4LCJTOx9FjNJRyvLaeLl4hqBOBzCUDerl3aaXvzOAANhYeQ67PXaPEPKzdL4s3zs0ZmplDT04Ga3g60Dw9IZgmat5MLkgPDJDmB9HxTDfZXFNFFQ8SdAADAc3teOQnwqyg8hHw1R60OTy7fAF9nN0nu/4x+HrV9najt7UTLUL+olqQpFQqEefgg2icAMb4B8HJ0kWSMzzVW4+PKYtBKfyKVBOAHAP8bCg8hX89OrcETy9Yj0M1T6jcDDE2Oo3N0CB0jg+gYGcTA5JhgIwR2ag2C3DwR7OGNMA8fBLp5QiXhIlI8gCNVpThVX0kXCZFQAvDOywlgUUXhIeTGaJQqPLZ0nahnoN8KvcmIwclxjM5MY3Rm6nP/mZqfg95kvLm3elYBFzt7uNk7ws3eEe4OjvBxdoOvsyucdfY2EzeO5/HBpXwUtzbQxUGklQBcGQV4uQNAEIWIkBujUijxcE4uYn3lddnoTUaYzGbMm4wwmIyYmp/DvNEArUoNBgy0KhXsNVrYa7SiWdZpSSbOjLeLzqCqp50uCiL6BEB5zT9hcBQ8nqQQEXJjjGYTXs0/gQ0J6ciNSZLN79YoVdAorzzkAcBXxvWc9CYjXi84icaBHrogiCRcezE1zxym0BBycziex6Gqi/iovJAavMjMyMwU/nT6Y3r4E0m55giAwwx7eNrePAnAiUJEyM3Jb67F6MwUdmTnymLYW+7q+7rwdslZauxDJOe6DbJ+sPeVt3mef5BCRMit8XR0xsM5q+ErwoY05PbxAM7UX8bh6lLwNOJDpHf+lrDX/0PuXQoRIbduaGoCfzy5DyVtjRQMGzNvNOL1ghM4VHWRHv5Esq6bAOjt544AmKAQEXLrjGYz9paexweX8mHizBQQG9A7Por/OvHR5/pWECJFzFf94XN7Xn4dwMMUJkJun7eTKx7MXAF/V3cKhgRxPIezDdU4VnOJkjkieTxQ8pWltpZs2zIHYCeFipDbN6Of//RzQKiHDxiGoaBIxMDkGHbln0BZRxOt8CC2oucrE4B18amtBk+nbwJwoVgRshBZN4+WoT40DfQg1MPn0/XzRLxv/SfrK/F28RmMz85QQIh8EoAzZ87wi++70wUMs5JiRcjCmZibQVFrPQxmE0I9fMCyLAVFZPonxvD3C8dR3tlCE/2ITSYAXzsG+fz7LwVwZqYdgILiRcjCc7d3xF2pixHjE0DBEIFZgx5nGi7jfGMNfesnNuu6vQC+6Lk9Lx8CsJFCRojlJAWEYlNiOtwdqP6WNZg5Dheaa3CyrpKK+hBZJADKG/oHefyNYSgBIMSSLne3oaa3AxkhUVgXnwpHrY6CIpC6vk7sryjG8PQkBYPIxg2NAGzbs0cRgslGHgijkBFieRqlCiujE7EsKoHKCVtQ+/AADlVdRNvwAAWDyG4E4IbXIT2395V/Bs//nsJGiHC0KhVywmOxMjoJdmoNBWRhbnxoHujFheYa1PZ2UkAIJQBfmwC8/ro9tIZOAG4UOkKEHxHIDI3CiugkOOvsKCC3wMxxqOhqxen6yxiYHKOAEEoAbuZfeG7vy/8JHj+k0BFiHUpWgaSAEORExCLE3ZsCcgPmjUaUtDXgfFM1reUn5FYTgOd3v+LHKfg2AGoKHyHW5efihpzwWCwKCqd5Al+8ufE8mgZ7UdbehKqeDhjNJgoKIbeTAADAc+++8ncw/KMUPkLEQaVQINLbH2nBEYj3C4ZCxkWFhqYmUNHVitL2JozOTNHJQchCJgA/2r0rxKQwN9AoACHiY6/RIjkgFEkBoQj19AbL2H4yMDY7jdreTpR3tqBjZJBOAkIslQAAwA/2vPJXHvxTFEJCxEunUiPKxx+xvkGI8Qmwmb4DHM+hc2QIDf3dqO3rRO/4KB1sQoRKAJ7d/fdAVsE1AaB1SYRIAMsw8HVxQ5iHD0I9fRDq4Q0HjTQKDZk5Dj3jI+gYGUTTQC9ah/qgNxnpoBJijQQAAJ7b8/IfAfwjhZEQafJydEGgmwd8nd3g6+IGX2c3q1cfNHMcBibH0Dcxht7xEXSODqF7bBgmM9XkJ2ShEwDlrf7LJoX5V0qz4jEAtCiZEAkanBrH4NT45/43R60Ono7OcLN3hLu9I9w++Y+znT3s1JrbXm3A8Tym9XOYnJvF5NwsxmenMTIzheHpSQxPT2JkehJmjqODQ4gAmNv5l59796U8MMxPKYyEyINSoYC9WgM7tRZ2Gg1Y5sotRKtSg/nM7YTnecybDOB5YN5owJxBjzmjAfNGAzhqrUuItEcAAMDMOP9agclvAgimcBJi+0xmMybmZjExN0vBIETibmuN0O+3b58D8GMKIyGEECKjBAAAXtz2+G4AFyiUhBBCiIwSADAMzwLfB0AzdwghhBDZJAAAfrP9iRIAf6VwEkIIITJKAABAb9D+CEAXhZQQQgiRUQLwx507Jxme/xaFlBBCCJFRAgAAL9z/5CEw/B4KKyGEECKjBAAAjEb8EwDqzkEIIYTIKQH4r4eeHOAZ/kkKLSGEECKjBAAAfrvtyQ944FUKLyGEECKjBAAAmHn1PwJopBATQgghMkoAXnzkkRmWZXYAoMbdhBBCiFwSAAD4zX2Pl/IMfk5hJoQQQmSUAACAY033rwAcpFATQggh4sEIsZF//nCXi9JovggggkJOCCGEWBcPlLBCbOgPdz86bobiHgAzFHZCCCHE+lihNvT77Y9W8TzVByCEEEJklQAAwG/vf3I3GLxIYSeEEEJklAAAgENN9w8BfEChJ4QQQqyHscZGn9mzR6fA5EkAOXQICCGEEGEJNgnwi36/ffscbzJvAdBEh4EQQggRHmutDf/2oaeHeda8BcAIHQZCCCFEJgkAAPz2vqfrGXBrAIzToSCEEEJkkgAAwAvbn6rgGG4zgGk6HIQQQohMEgAA+N22pwrAs3cDmKdDQgghhMgkAQCAF+9/7AQH5n5Q90BCCCFEPgkAAPxu++P7GYa7h0YCCCGEEBklAADwwranPmZ5ZhNoTgAhhBAinwQAAH5z/+OnGYbfBGCSDhEhhBAikwTgykjAk+d58KtAdQIIIYQQ+SQAAPDb7U+WgcNKAJ10qAghhBCZJAAA8OIDT1QzUGQBKKXDRQghhMgkAQCAF7Y/2o959UoG2E+HjBBCCJFJAgAALz7yyEw7nO4B8D902AghhJDbw0hxp3+w95VHeJ77C8Do6BASQgghN8dq7YBv1wvbHn+d4RRLeaCdDiMhhBBy81ip7vgLDzx2CSZzBgMcp8NICCGEyCQBAIDfPvT0cDucNoLBrwFwdDgJIYSQG8PYyg95bs9LqwDmNQABdFgJIYSQ65PsHIBreXH7k6cUMCcwDLObDi0hhBAikxGAz7qySoD/XwAOdIgJIYQQGx4B+KwXtj3+OsAnAThGh5kQQgiRyQjA50cDXt7G8/gTAA863IQQQogNjwB8fjTgib1QGuMBvEGHnBBCCJHJCMDnRgP2vLyBB/N7gI+hQ08IIYRGAGTihe1PHHHw7ErkwT8NYJhOAUIIITQCIDPP7HnZTcEwPwXPfxuAkk4FQgghchoBYOQehB++97d4M8f+DMA9ck6ICCGEUAIgS8+983ICWPwEwH2UCBBCCKEEQGae3/NyJgf8DMAGigYhhBBKAGTm2XdeSWZZ/vsAHgCgoogQQnyro/kAAAE1SURBVAihBEBGfrBnlw/Pm74FhvknAK4UEUIIIZQAyMh333zTSa2efxTAkwwQTxEhhBBCCYDMfH/PS2ks2Kd48A+BGg4RQgihBEB+owIazfyD4LETwGIALEWFEEIIJQAy8sye1/xZGO9jgG2fJAMUW0IIIZQAyMn33385GBx/H8OzmwB+KQA1RYUQQgglADKSd+CvdtOzqsVg+Tt5nt/CACEUFUIIIZQAyMyz7/wtilUwS8Cxy8DwiwFEU1QIIYRQAiAz/7Ln755GxryY59lsBnwSgEQAgRQZQgghlADIzI/e+pOrUalOZMEn8gwTDyD0k/+EANBQhAghhFACIKsjxjPPv/N3X57lQzmWCQHPezAM4w6OdwfLe/A848kA7swntQl4wBFXWh0rADhRAAkhhFxNAP4/rnJ9WniV5SMAAAAldEVYdGRhdGU6Y3JlYXRlADIwMjMtMDktMDNUMjM6MjA6NDgrMDA6MDBxArOiAAAAJXRFWHRkYXRlOm1vZGlmeQAyMDIzLTA5LTAzVDIzOjIwOjQ4KzAwOjAwAF8LHgAAAABJRU5ErkJggg==;" parent="1" vertex="1">
          <mxGeometry x="-30" y="310" width="42" height="42" as="geometry" />
        </mxCell>
        <mxCell id="3lFjE9dBdx0LUiIUw8xG-17" value="&lt;span style=&quot;caret-color: rgb(0, 0, 0); color: rgb(0, 0, 0); font-family: Helvetica; font-size: 12px; font-style: normal; font-variant-caps: normal; font-weight: 400; letter-spacing: normal; orphans: auto; text-align: center; text-indent: 0px; text-transform: none; white-space: nowrap; widows: auto; word-spacing: 0px; -webkit-text-stroke-width: 0px; background-color: rgb(255, 255, 255); text-decoration: none; display: inline !important; float: none;&quot;&gt;Streaming +&amp;nbsp;&lt;/span&gt;&lt;div&gt;&lt;span style=&quot;caret-color: rgb(0, 0, 0); color: rgb(0, 0, 0); font-family: Helvetica; font-size: 12px; font-style: normal; font-variant-caps: normal; font-weight: 400; letter-spacing: normal; orphans: auto; text-align: center; text-indent: 0px; text-transform: none; white-space: nowrap; widows: auto; word-spacing: 0px; -webkit-text-stroke-width: 0px; background-color: rgb(255, 255, 255); text-decoration: none; display: inline !important; float: none;&quot;&gt;non streaming&lt;/span&gt;&lt;/div&gt;" style="text;whiteSpace=wrap;html=1;" parent="1" vertex="1">
          <mxGeometry x="90" y="230" width="90" height="40" as="geometry" />
        </mxCell>
        <mxCell id="3lFjE9dBdx0LUiIUw8xG-18" value="" style="image;sketch=0;aspect=fixed;html=1;points=[];align=center;fontSize=12;image=img/lib/mscae/Cognitive_Services.svg;" parent="1" vertex="1">
          <mxGeometry x="877" y="562" width="50" height="30" as="geometry" />
        </mxCell>
        <mxCell id="3lFjE9dBdx0LUiIUw8xG-19" style="edgeStyle=orthogonalEdgeStyle;rounded=0;orthogonalLoop=1;jettySize=auto;html=1;entryX=-0.018;entryY=0.512;entryDx=0;entryDy=0;entryPerimeter=0;exitX=1;exitY=0.5;exitDx=0;exitDy=0;" parent="1" target="3lFjE9dBdx0LUiIUw8xG-18" edge="1" source="oO-yoU9O_R-_ua10_7h0-2">
          <mxGeometry relative="1" as="geometry">
            <mxPoint x="817" y="577" as="sourcePoint" />
          </mxGeometry>
        </mxCell>
        <mxCell id="3lFjE9dBdx0LUiIUw8xG-20" value="&lt;div style=&quot;caret-color: rgb(0, 0, 0); color: rgb(0, 0, 0); font-family: Helvetica; font-size: 12px; font-style: normal; font-variant-caps: normal; font-weight: 400; letter-spacing: normal; orphans: auto; text-align: center; text-indent: 0px; text-transform: none; white-space: normal; widows: auto; word-spacing: 0px; -webkit-text-stroke-width: 0px; text-decoration: none;&quot;&gt;General AI Service for PII identification&lt;/div&gt;" style="text;whiteSpace=wrap;html=1;" parent="1" vertex="1">
          <mxGeometry x="834" y="592" width="130" height="50" as="geometry" />
        </mxCell>
        <mxCell id="3lFjE9dBdx0LUiIUw8xG-21" value="&lt;div style=&quot;caret-color: rgb(0, 0, 0); color: rgb(0, 0, 0); font-family: Helvetica; font-size: 12px; font-style: normal; font-variant-caps: normal; font-weight: 400; letter-spacing: normal; orphans: auto; text-align: center; text-indent: 0px; text-transform: none; white-space: normal; widows: auto; word-spacing: 0px; -webkit-text-stroke-width: 0px; text-decoration: none;&quot;&gt;CosmosDB for Log data&lt;/div&gt;" style="text;whiteSpace=wrap;html=1;" parent="1" vertex="1">
          <mxGeometry x="940" y="415" width="130" height="50" as="geometry" />
        </mxCell>
        <mxCell id="AK5pfq6Lcy51ytAFB1wp-1" value="&lt;div&gt;Summary Logger&lt;/div&gt;" style="shape=hexagon;perimeter=hexagonPerimeter2;whiteSpace=wrap;html=1;fixedSize=1;strokeWidth=2;fillColor=#6666FF;" vertex="1" parent="1">
          <mxGeometry x="680" y="164" width="120" height="100" as="geometry" />
        </mxCell>
        <mxCell id="AK5pfq6Lcy51ytAFB1wp-2" value="" style="group" vertex="1" connectable="0" parent="1">
          <mxGeometry x="730" y="244" width="90" height="55" as="geometry" />
        </mxCell>
        <mxCell id="AK5pfq6Lcy51ytAFB1wp-3" value="" style="shape=hexagon;perimeter=hexagonPerimeter2;whiteSpace=wrap;html=1;fixedSize=1;strokeWidth=2;fillColor=#FFFFFF;" vertex="1" parent="AK5pfq6Lcy51ytAFB1wp-2">
          <mxGeometry width="90" height="55" as="geometry" />
        </mxCell>
        <mxCell id="AK5pfq6Lcy51ytAFB1wp-4" value="" style="shape=image;verticalLabelPosition=bottom;labelBackgroundColor=default;verticalAlign=top;aspect=fixed;imageAspect=0;image=https://upload.wikimedia.org/wikipedia/commons/thumb/c/c0/Dapr_logo.svg/367px-Dapr_logo.svg.png;" vertex="1" parent="AK5pfq6Lcy51ytAFB1wp-2">
          <mxGeometry x="11.5" y="2.8500000000000227" width="67" height="49.29" as="geometry" />
        </mxCell>
        <mxCell id="AK5pfq6Lcy51ytAFB1wp-9" style="edgeStyle=orthogonalEdgeStyle;rounded=0;orthogonalLoop=1;jettySize=auto;html=1;exitX=1;exitY=0.5;exitDx=0;exitDy=0;" edge="1" parent="1" source="AK5pfq6Lcy51ytAFB1wp-3" target="3PPzKcf8SJXLLi3a6Jo8-1">
          <mxGeometry relative="1" as="geometry" />
        </mxCell>
      </root>
    </mxGraphModel>
  </diagram>
  <diagram id="Nr5V2rQuQv_O9mtbP-iS" name="AKS view">
    <mxGraphModel dx="1434" dy="795" grid="1" gridSize="10" guides="1" tooltips="1" connect="1" arrows="1" fold="1" page="1" pageScale="1" pageWidth="827" pageHeight="1169" math="0" shadow="0">
      <root>
        <mxCell id="0" />
        <mxCell id="1" parent="0" />
        <mxCell id="aFu0s1edcoKj5AkoM0eE-14" value="" style="rounded=1;whiteSpace=wrap;html=1;" parent="1" vertex="1">
          <mxGeometry x="200" y="370" width="490" height="220" as="geometry" />
        </mxCell>
        <mxCell id="s1grVKPfcrWEWZLnFrPt-6" value="" style="aspect=fixed;sketch=0;html=1;dashed=0;whitespace=wrap;fillColor=#2875E2;strokeColor=#ffffff;points=[[0.005,0.63,0],[0.1,0.2,0],[0.9,0.2,0],[0.5,0,0],[0.995,0.63,0],[0.72,0.99,0],[0.5,1,0],[0.28,0.99,0]];shape=mxgraph.kubernetes.icon2;kubernetesLabel=1;prIcon=pod" parent="1" vertex="1">
          <mxGeometry x="580" y="381.5" width="50" height="48" as="geometry" />
        </mxCell>
        <mxCell id="aFu0s1edcoKj5AkoM0eE-21" style="edgeStyle=orthogonalEdgeStyle;rounded=0;orthogonalLoop=1;jettySize=auto;html=1;exitX=0.995;exitY=0.63;exitDx=0;exitDy=0;exitPerimeter=0;" parent="1" source="s1grVKPfcrWEWZLnFrPt-7" target="aFu0s1edcoKj5AkoM0eE-7" edge="1">
          <mxGeometry relative="1" as="geometry" />
        </mxCell>
        <mxCell id="s1grVKPfcrWEWZLnFrPt-7" value="" style="aspect=fixed;sketch=0;html=1;dashed=0;whitespace=wrap;fillColor=#2875E2;strokeColor=#ffffff;points=[[0.005,0.63,0],[0.1,0.2,0],[0.9,0.2,0],[0.5,0,0],[0.995,0.63,0],[0.72,0.99,0],[0.5,1,0],[0.28,0.99,0]];shape=mxgraph.kubernetes.icon2;prIcon=pod" parent="1" vertex="1">
          <mxGeometry x="230" y="443.5" width="50" height="48" as="geometry" />
        </mxCell>
        <mxCell id="aFu0s1edcoKj5AkoM0eE-1" value="&lt;div style=&quot;caret-color: rgb(0, 0, 0); color: rgb(0, 0, 0); font-family: Helvetica; font-size: 12px; font-style: normal; font-variant-caps: normal; font-weight: 400; letter-spacing: normal; orphans: auto; text-align: center; text-indent: 0px; text-transform: none; white-space: normal; widows: auto; word-spacing: 0px; -webkit-text-stroke-width: 0px; text-decoration: none;&quot;&gt;Ingress&lt;/div&gt;" style="text;whiteSpace=wrap;html=1;" parent="1" vertex="1">
          <mxGeometry x="232" y="491.5" width="48" height="25" as="geometry" />
        </mxCell>
        <mxCell id="aFu0s1edcoKj5AkoM0eE-3" value="&lt;div style=&quot;caret-color: rgb(0, 0, 0); color: rgb(0, 0, 0); font-family: Helvetica; font-size: 12px; font-style: normal; font-variant-caps: normal; font-weight: 400; letter-spacing: normal; orphans: auto; text-align: center; text-indent: 0px; text-transform: none; white-space: normal; widows: auto; word-spacing: 0px; -webkit-text-stroke-width: 0px; text-decoration: none;&quot;&gt;Facade-Service&lt;/div&gt;" style="text;whiteSpace=wrap;html=1;" parent="1" vertex="1">
          <mxGeometry x="396" y="491.5" width="130" height="50" as="geometry" />
        </mxCell>
        <mxCell id="aFu0s1edcoKj5AkoM0eE-4" value="&lt;div style=&quot;caret-color: rgb(0, 0, 0); color: rgb(0, 0, 0); font-family: Helvetica; font-size: 12px; font-style: normal; font-variant-caps: normal; font-weight: 400; letter-spacing: normal; orphans: auto; text-align: center; text-indent: 0px; text-transform: none; white-space: normal; widows: auto; word-spacing: 0px; -webkit-text-stroke-width: 0px; text-decoration: none;&quot;&gt;facade&lt;/div&gt;" style="text;whiteSpace=wrap;html=1;" parent="1" vertex="1">
          <mxGeometry x="600" y="429.5" width="48" height="25" as="geometry" />
        </mxCell>
        <mxCell id="aFu0s1edcoKj5AkoM0eE-5" value="" style="aspect=fixed;sketch=0;html=1;dashed=0;whitespace=wrap;fillColor=#2875E2;strokeColor=#ffffff;points=[[0.005,0.63,0],[0.1,0.2,0],[0.9,0.2,0],[0.5,0,0],[0.995,0.63,0],[0.72,0.99,0],[0.5,1,0],[0.28,0.99,0]];shape=mxgraph.kubernetes.icon2;kubernetesLabel=1;prIcon=pod" parent="1" vertex="1">
          <mxGeometry x="583" y="518" width="50" height="48" as="geometry" />
        </mxCell>
        <mxCell id="aFu0s1edcoKj5AkoM0eE-6" value="&lt;div style=&quot;caret-color: rgb(0, 0, 0); color: rgb(0, 0, 0); font-family: Helvetica; font-size: 12px; font-style: normal; font-variant-caps: normal; font-weight: 400; letter-spacing: normal; orphans: auto; text-align: center; text-indent: 0px; text-transform: none; white-space: normal; widows: auto; word-spacing: 0px; -webkit-text-stroke-width: 0px; text-decoration: none;&quot;&gt;CosmosDBLogger&lt;/div&gt;" style="text;whiteSpace=wrap;html=1;" parent="1" vertex="1">
          <mxGeometry x="562" y="559.5" width="48" height="25" as="geometry" />
        </mxCell>
        <mxCell id="aFu0s1edcoKj5AkoM0eE-7" value="" style="sketch=0;outlineConnect=0;fontColor=#232F3E;gradientColor=none;fillColor=#8C4FFF;strokeColor=none;dashed=0;verticalLabelPosition=bottom;verticalAlign=top;align=center;html=1;fontSize=12;fontStyle=0;aspect=fixed;pointerEvents=1;shape=mxgraph.aws4.network_load_balancer;" parent="1" vertex="1">
          <mxGeometry x="413.5" y="452.5" width="41.5" height="41.5" as="geometry" />
        </mxCell>
        <mxCell id="aFu0s1edcoKj5AkoM0eE-15" value="&lt;div style=&quot;caret-color: rgb(0, 0, 0); color: rgb(0, 0, 0); font-family: Helvetica; font-size: 12px; font-style: normal; font-variant-caps: normal; font-weight: 400; letter-spacing: normal; orphans: auto; text-align: center; text-indent: 0px; text-transform: none; white-space: normal; widows: auto; word-spacing: 0px; -webkit-text-stroke-width: 0px; text-decoration: none;&quot;&gt;Namespace: ai-sentry&lt;/div&gt;" style="text;whiteSpace=wrap;html=1;" parent="1" vertex="1">
          <mxGeometry x="220" y="345" width="140" height="25" as="geometry" />
        </mxCell>
        <mxCell id="aFu0s1edcoKj5AkoM0eE-17" value="" style="rounded=1;whiteSpace=wrap;html=1;" parent="1" vertex="1">
          <mxGeometry x="793" y="370" width="280" height="220" as="geometry" />
        </mxCell>
        <mxCell id="aFu0s1edcoKj5AkoM0eE-18" value="&lt;div style=&quot;caret-color: rgb(0, 0, 0); color: rgb(0, 0, 0); font-family: Helvetica; font-size: 12px; font-style: normal; font-variant-caps: normal; font-weight: 400; letter-spacing: normal; orphans: auto; text-align: center; text-indent: 0px; text-transform: none; white-space: normal; widows: auto; word-spacing: 0px; -webkit-text-stroke-width: 0px; text-decoration: none;&quot;&gt;Namespace: redis&lt;/div&gt;" style="text;whiteSpace=wrap;html=1;" parent="1" vertex="1">
          <mxGeometry x="819" y="345" width="140" height="25" as="geometry" />
        </mxCell>
        <mxCell id="aFu0s1edcoKj5AkoM0eE-19" value="" style="aspect=fixed;sketch=0;html=1;dashed=0;whitespace=wrap;fillColor=#2875E2;strokeColor=#ffffff;points=[[0.005,0.63,0],[0.1,0.2,0],[0.9,0.2,0],[0.5,0,0],[0.995,0.63,0],[0.72,0.99,0],[0.5,1,0],[0.28,0.99,0]];shape=mxgraph.kubernetes.icon2;kubernetesLabel=1;prIcon=pod" parent="1" vertex="1">
          <mxGeometry x="824" y="444.5" width="50" height="48" as="geometry" />
        </mxCell>
        <mxCell id="aFu0s1edcoKj5AkoM0eE-20" value="&lt;div style=&quot;caret-color: rgb(0, 0, 0); color: rgb(0, 0, 0); font-family: Helvetica; font-size: 12px; font-style: normal; font-variant-caps: normal; font-weight: 400; letter-spacing: normal; orphans: auto; text-align: center; text-indent: 0px; text-transform: none; white-space: normal; widows: auto; word-spacing: 0px; -webkit-text-stroke-width: 0px; text-decoration: none;&quot;&gt;redis&lt;/div&gt;" style="text;whiteSpace=wrap;html=1;" parent="1" vertex="1">
          <mxGeometry x="905" y="463" width="48" height="25" as="geometry" />
        </mxCell>
        <mxCell id="aFu0s1edcoKj5AkoM0eE-22" style="edgeStyle=orthogonalEdgeStyle;rounded=0;orthogonalLoop=1;jettySize=auto;html=1;entryX=0.005;entryY=0.63;entryDx=0;entryDy=0;entryPerimeter=0;" parent="1" source="aFu0s1edcoKj5AkoM0eE-7" target="s1grVKPfcrWEWZLnFrPt-6" edge="1">
          <mxGeometry relative="1" as="geometry" />
        </mxCell>
        <mxCell id="aFu0s1edcoKj5AkoM0eE-23" value="" style="aspect=fixed;sketch=0;html=1;dashed=0;whitespace=wrap;fillColor=#2875E2;strokeColor=#ffffff;points=[[0.005,0.63,0],[0.1,0.2,0],[0.9,0.2,0],[0.5,0,0],[0.995,0.63,0],[0.72,0.99,0],[0.5,1,0],[0.28,0.99,0]];shape=mxgraph.kubernetes.icon2;kubernetesLabel=1;prIcon=pod" parent="1" vertex="1">
          <mxGeometry x="590" y="391.5" width="50" height="48" as="geometry" />
        </mxCell>
        <mxCell id="22LVdoBTCTF22cVom0NA-1" value="" style="group" parent="1" vertex="1" connectable="0">
          <mxGeometry x="630" y="410" width="60" height="30" as="geometry" />
        </mxCell>
        <mxCell id="22LVdoBTCTF22cVom0NA-2" value="" style="shape=hexagon;perimeter=hexagonPerimeter2;whiteSpace=wrap;html=1;fixedSize=1;strokeWidth=2;fillColor=#FFFFFF;" parent="22LVdoBTCTF22cVom0NA-1" vertex="1">
          <mxGeometry width="60" height="30" as="geometry" />
        </mxCell>
        <mxCell id="22LVdoBTCTF22cVom0NA-3" value="" style="shape=image;verticalLabelPosition=bottom;labelBackgroundColor=default;verticalAlign=top;aspect=fixed;imageAspect=0;image=https://upload.wikimedia.org/wikipedia/commons/thumb/c/c0/Dapr_logo.svg/367px-Dapr_logo.svg.png;" parent="22LVdoBTCTF22cVom0NA-1" vertex="1">
          <mxGeometry x="7.666666666666666" y="1.5545454545454669" width="30.821467688937567" height="22.674479737130344" as="geometry" />
        </mxCell>
        <mxCell id="22LVdoBTCTF22cVom0NA-7" value="" style="group" parent="1" vertex="1" connectable="0">
          <mxGeometry x="620" y="536" width="60" height="30" as="geometry" />
        </mxCell>
        <mxCell id="22LVdoBTCTF22cVom0NA-8" value="" style="shape=hexagon;perimeter=hexagonPerimeter2;whiteSpace=wrap;html=1;fixedSize=1;strokeWidth=2;fillColor=#FFFFFF;" parent="22LVdoBTCTF22cVom0NA-7" vertex="1">
          <mxGeometry width="60" height="30" as="geometry" />
        </mxCell>
        <mxCell id="22LVdoBTCTF22cVom0NA-9" value="" style="shape=image;verticalLabelPosition=bottom;labelBackgroundColor=default;verticalAlign=top;aspect=fixed;imageAspect=0;image=https://upload.wikimedia.org/wikipedia/commons/thumb/c/c0/Dapr_logo.svg/367px-Dapr_logo.svg.png;" parent="22LVdoBTCTF22cVom0NA-7" vertex="1">
          <mxGeometry x="7.666666666666666" y="1.5545454545454669" width="30.821467688937567" height="22.674479737130344" as="geometry" />
        </mxCell>
        <mxCell id="22LVdoBTCTF22cVom0NA-10" value="" style="aspect=fixed;sketch=0;html=1;dashed=0;whitespace=wrap;fillColor=#2875E2;strokeColor=#ffffff;points=[[0.005,0.63,0],[0.1,0.2,0],[0.9,0.2,0],[0.5,0,0],[0.995,0.63,0],[0.72,0.99,0],[0.5,1,0],[0.28,0.99,0]];shape=mxgraph.kubernetes.icon2;kubernetesLabel=1;prIcon=pod" parent="1" vertex="1">
          <mxGeometry x="834" y="454.5" width="50" height="48" as="geometry" />
        </mxCell>
        <mxCell id="22LVdoBTCTF22cVom0NA-11" value="" style="aspect=fixed;sketch=0;html=1;dashed=0;whitespace=wrap;fillColor=#2875E2;strokeColor=#ffffff;points=[[0.005,0.63,0],[0.1,0.2,0],[0.9,0.2,0],[0.5,0,0],[0.995,0.63,0],[0.72,0.99,0],[0.5,1,0],[0.28,0.99,0]];shape=mxgraph.kubernetes.icon2;kubernetesLabel=1;prIcon=pod" parent="1" vertex="1">
          <mxGeometry x="844" y="464.5" width="50" height="48" as="geometry" />
        </mxCell>
        <mxCell id="22LVdoBTCTF22cVom0NA-12" value="" style="aspect=fixed;sketch=0;html=1;dashed=0;whitespace=wrap;fillColor=#2875E2;strokeColor=#ffffff;points=[[0.005,0.63,0],[0.1,0.2,0],[0.9,0.2,0],[0.5,0,0],[0.995,0.63,0],[0.72,0.99,0],[0.5,1,0],[0.28,0.99,0]];shape=mxgraph.kubernetes.icon2;kubernetesLabel=1;prIcon=pod" parent="1" vertex="1">
          <mxGeometry x="854" y="474.5" width="50" height="48" as="geometry" />
        </mxCell>
        <mxCell id="Nl8Wtli4PQKuqUiT4Rvu-1" value="" style="aspect=fixed;sketch=0;html=1;dashed=0;whitespace=wrap;fillColor=#2875E2;strokeColor=#ffffff;points=[[0.005,0.63,0],[0.1,0.2,0],[0.9,0.2,0],[0.5,0,0],[0.995,0.63,0],[0.72,0.99,0],[0.5,1,0],[0.28,0.99,0]];shape=mxgraph.kubernetes.icon2;kubernetesLabel=1;prIcon=pod" vertex="1" parent="1">
          <mxGeometry x="444" y="519" width="50" height="48" as="geometry" />
        </mxCell>
        <mxCell id="Nl8Wtli4PQKuqUiT4Rvu-2" value="" style="group" vertex="1" connectable="0" parent="1">
          <mxGeometry x="481" y="537" width="60" height="30" as="geometry" />
        </mxCell>
        <mxCell id="Nl8Wtli4PQKuqUiT4Rvu-3" value="" style="shape=hexagon;perimeter=hexagonPerimeter2;whiteSpace=wrap;html=1;fixedSize=1;strokeWidth=2;fillColor=#FFFFFF;" vertex="1" parent="Nl8Wtli4PQKuqUiT4Rvu-2">
          <mxGeometry width="60" height="30" as="geometry" />
        </mxCell>
        <mxCell id="Nl8Wtli4PQKuqUiT4Rvu-4" value="" style="shape=image;verticalLabelPosition=bottom;labelBackgroundColor=default;verticalAlign=top;aspect=fixed;imageAspect=0;image=https://upload.wikimedia.org/wikipedia/commons/thumb/c/c0/Dapr_logo.svg/367px-Dapr_logo.svg.png;" vertex="1" parent="Nl8Wtli4PQKuqUiT4Rvu-2">
          <mxGeometry x="7.666666666666666" y="1.5545454545454669" width="30.821467688937567" height="22.674479737130344" as="geometry" />
        </mxCell>
        <mxCell id="Nl8Wtli4PQKuqUiT4Rvu-5" value="&lt;div style=&quot;caret-color: rgb(0, 0, 0); color: rgb(0, 0, 0); font-family: Helvetica; font-size: 12px; font-style: normal; font-variant-caps: normal; font-weight: 400; letter-spacing: normal; orphans: auto; text-align: center; text-indent: 0px; text-transform: none; white-space: normal; widows: auto; word-spacing: 0px; -webkit-text-stroke-width: 0px; text-decoration: none;&quot;&gt;Summary Logger&lt;/div&gt;" style="text;whiteSpace=wrap;html=1;" vertex="1" parent="1">
          <mxGeometry x="446" y="560" width="134" height="25" as="geometry" />
        </mxCell>
      </root>
    </mxGraphModel>
  </diagram>
</mxfile>
